M48
; DRILL file {KiCad 7.0.6} date Wed Aug 21 19:33:45 2024
; FORMAT={-:-/ absolute / inch / decimal}
; #@! TF.CreationDate,2024-08-21T19:33:45+02:00
; #@! TF.GenerationSoftware,Kicad,Pcbnew,7.0.6
; #@! TF.FileFunction,Plated,1,2,PTH
FMAT,2
INCH
; #@! TA.AperFunction,Plated,PTH,ViaDrill
T1C0.0157
; #@! TA.AperFunction,Plated,PTH,ComponentDrill
T2C0.0315
; #@! TA.AperFunction,Plated,PTH,ComponentDrill
T3C0.0394
; #@! TA.AperFunction,Plated,PTH,ComponentDrill
T4C0.0598
; #@! TA.AperFunction,Plated,PTH,ComponentDrill
T5C0.0630
%
G90
G05
T1
X0.188Y-2.7106
X0.2805Y-2.7106
X0.3856Y-1.8914
X0.4084Y-1.7557
X0.4249Y-3.9867
X0.4651Y-4.0542
X0.4651Y-4.1335
X0.4652Y-4.0935
X0.4956Y-2.8683
X0.5008Y-2.6919
X0.5039Y-3.5374
X0.5276Y-3.876
X0.5295Y-3.5707
X0.5363Y-3.0819
X0.5374Y-3.6093
X0.5453Y-3.6969
X0.5494Y-3.2624
X0.5557Y-3.8382
X0.6049Y-1.4608
X0.6305Y-3.8667
X0.6305Y-4.1132
X0.6419Y-4.0756
X0.6485Y-2.3367
X0.6495Y-3.3104
X0.6512Y-1.5118
X0.6512Y-1.6181
X0.6512Y-2.0157
X0.6512Y-2.7745
X0.6512Y-2.8584
X0.6512Y-1.7047
X0.6512Y-2.4549
X0.6519Y-2.6717
X0.67Y-3.767
X0.6713Y-4.1398
X0.6796Y-2.3126
X0.6805Y-2.6304
X0.6875Y-3.5677
X0.6875Y-3.6077
X0.692Y-3.5287
X0.6949Y-2.2736
X0.7053Y-0.5769
X0.7161Y-3.6561
X0.7259Y-1.5209
X0.7259Y-1.6181
X0.7259Y-1.9232
X0.7259Y-1.9626
X0.7259Y-2.0157
X0.7259Y-2.4569
X0.7259Y-2.7462
X0.7259Y-2.8112
X0.7259Y-2.8584
X0.7291Y-1.4816
X0.7305Y-1.6572
X0.7309Y-2.695
X0.7458Y-3.1645
X0.7478Y-2.3501
X0.7544Y-2.0482
X0.7697Y-1.7712
X0.7769Y-2.3193
X0.7791Y-2.28
X0.7897Y-3.9294
X0.7972Y-2.0571
X0.8007Y-2.7548
X0.807Y-0.5828
X0.8158Y-3.2128
X0.8184Y-3.0906
X0.8189Y-0.9547
X0.8193Y-2.4248
X0.8425Y-1.5279
X0.849Y-2.8102
X0.8515Y-2.2804
X0.8521Y-3.2305
X0.8524Y-2.3602
X0.8539Y-3.1912
X0.8616Y-2.3192
X0.8621Y-0.5438
X0.8667Y-0.5828
X0.8702Y-2.0576
X0.88Y-3.9698
X0.9055Y-2.4091
X0.9162Y-3.2771
X0.9247Y-2.6785
X0.9271Y-3.1597
X0.9291Y-1.2234
X0.9336Y-3.2395
X0.939Y-1.5279
X0.9785Y-1.0451
X0.9794Y-0.9317
X0.9862Y-3.5108
X0.9902Y-2.7411
X0.9911Y-2.6506
X0.9978Y-2.4793
X1.0852Y-0.8328
X1.0965Y-2.7077
X1.1121Y-0.966
X1.1398Y-2.3317
X1.172Y-1.1793
X1.1788Y-1.2541
X1.1811Y-2.3602
X1.1851Y-2.6725
X1.2087Y-1.9262
X1.2209Y-2.3607
X1.2584Y-1.2968
X1.2638Y-2.3642
X1.2894Y-1.9262
X1.3248Y-1.5285
X1.3406Y-1.9262
X1.3536Y-2.3322
X1.3858Y-2.3095
X1.4018Y-1.5285
X1.4075Y-1.2161
X1.422Y-2.6804
X1.422Y-2.7198
X1.422Y-2.7591
X1.422Y-2.7992
X1.4223Y-3.1673
X1.4247Y-2.281
X1.4547Y-1.7697
X1.4646Y-1.8993
X1.469Y-2.345
X1.4862Y-2.2598
X1.5008Y-1.4646
X1.5008Y-1.5039
X1.5008Y-1.5512
X1.5098Y-2.4331
X1.5147Y-2.315
X1.5185Y-2.1813
X1.5185Y-2.2281
X1.5197Y-1.2165
X1.5226Y-3.1673
X1.536Y-2.0205
X1.5366Y-1.4449
X1.5462Y-1.8818
X1.5483Y-1.9832
X1.5591Y-1.7736
X1.5945Y-3.663
X1.6004Y-1.4653
X1.6191Y-1.2343
X1.6208Y-3.0723
X1.6208Y-2.8723
X1.621Y-2.7724
X1.6219Y-2.9717
X1.624Y-0.7983
X1.6339Y-2.6654
X1.6417Y-2.5669
X1.6432Y-2.1659
X1.6457Y-2.2618
X1.6473Y-1.9741
X1.6535Y-2.0971
X1.6535Y-1.8024
X1.6559Y-1.8807
X1.6732Y-2.1373
X1.6762Y-1.5768
X1.6762Y-1.505
X1.6772Y-1.6673
X1.685Y-2.2508
X1.6851Y-4.186
X1.6939Y-1.2323
X1.7027Y-0.8643
X1.7037Y-2.3878
X1.7037Y-2.4724
X1.7038Y-3.8878
X1.7038Y-3.9271
X1.7038Y-4.0866
X1.7348Y-0.8013
X1.7644Y-4.3123
X1.7785Y-4.0866
X1.7962Y-3.8879
X1.7983Y-4.121
X1.8039Y-3.9265
X1.8091Y-3.1226
X1.8379Y-4.294
X1.8725Y-2.9217
X1.8839Y-3.0768
X1.9055Y-0.934
X1.9427Y-1.5236
X1.9794Y-4.0424
X1.9803Y-2.9488
T2
X0.5923Y-0.3961
X0.5923Y-0.4945
X0.7323Y-1.2953
X0.7417Y-1.4161
X0.7417Y-1.7161
X0.7417Y-1.8261
X0.7417Y-2.1261
X0.7417Y-2.2261
X0.7417Y-2.5261
X0.7417Y-2.6261
X0.7417Y-2.9261
X0.7417Y-3.0261
X0.7417Y-3.3261
X0.7417Y-3.4261
X0.7417Y-3.7261
X0.7417Y-3.8261
X0.7417Y-4.1261
X0.8417Y-1.4161
X0.8417Y-1.7161
X0.8417Y-1.8261
X0.8417Y-2.1261
X0.8417Y-2.2261
X0.8417Y-2.5261
X0.8417Y-2.6261
X0.8417Y-2.9261
X0.8417Y-3.0261
X0.8417Y-3.3261
X0.8417Y-3.4261
X0.8417Y-3.7261
X0.8417Y-3.8261
X0.8417Y-4.1261
X0.9417Y-1.4161
X0.9417Y-1.7161
X0.9417Y-1.8261
X0.9417Y-2.1261
X0.9417Y-2.2261
X0.9417Y-2.5261
X0.9417Y-2.6261
X0.9417Y-2.9261
X0.9417Y-3.0261
X0.9417Y-3.3261
X0.9417Y-3.4261
X0.9417Y-3.7261
X0.9417Y-3.8261
X0.9417Y-4.1261
X1.032Y-1.1419
X1.0323Y-0.8655
X1.0323Y-1.0055
X1.0323Y-1.2953
X1.0417Y-1.4161
X1.0417Y-1.7161
X1.0417Y-1.8261
X1.0417Y-2.1261
X1.0417Y-2.2261
X1.0417Y-2.5261
X1.0417Y-2.6261
X1.0417Y-2.9261
X1.0417Y-3.0261
X1.0417Y-3.3261
X1.0417Y-3.4261
X1.0417Y-3.7261
X1.0417Y-3.8261
X1.0417Y-4.1261
X1.1417Y-1.4161
X1.1417Y-1.7161
X1.1417Y-1.8261
X1.1417Y-2.1261
X1.1417Y-2.2261
X1.1417Y-2.5261
X1.1417Y-2.6261
X1.1417Y-2.9261
X1.1417Y-3.0261
X1.1417Y-3.3261
X1.1417Y-3.4261
X1.1417Y-3.7261
X1.1417Y-3.8261
X1.1417Y-4.1261
X1.1423Y-1.2953
X1.2417Y-1.4161
X1.2417Y-1.7161
X1.2417Y-1.8261
X1.2417Y-2.1261
X1.2417Y-2.2261
X1.2417Y-2.5261
X1.2417Y-2.6261
X1.2417Y-2.9261
X1.2417Y-3.0261
X1.2417Y-3.3261
X1.2417Y-3.4261
X1.2417Y-3.7261
X1.2417Y-3.8261
X1.2417Y-4.1261
X1.332Y-1.1419
X1.3323Y-0.8655
X1.3323Y-1.0055
X1.3417Y-1.4161
X1.3417Y-1.7161
X1.3417Y-1.8261
X1.3417Y-2.1261
X1.3417Y-2.2261
X1.3417Y-2.5261
X1.3417Y-2.6261
X1.3417Y-2.9261
X1.3417Y-3.0261
X1.3417Y-3.3261
X1.3417Y-3.4261
X1.3417Y-3.7261
X1.3417Y-3.8261
X1.3417Y-4.1261
X1.4417Y-1.4161
X1.4417Y-1.7161
X1.4417Y-1.8261
X1.4417Y-2.1261
X1.4417Y-2.2261
X1.4417Y-2.5261
X1.4417Y-2.6261
X1.4417Y-2.9261
X1.4417Y-3.0261
X1.4417Y-3.3261
X1.4417Y-3.4261
X1.4417Y-3.7261
X1.4417Y-3.8261
X1.4417Y-4.1261
X1.4423Y-1.2953
X1.5413Y-4.2815
X1.5413Y-4.3799
X1.5923Y-1.0769
X1.5923Y-1.1753
X1.6023Y-0.6369
X1.6023Y-0.7353
T3
X0.5923Y-0.6653
X0.5923Y-0.7653
X0.5923Y-0.9653
X0.5923Y-1.0653
X0.5931Y-3.9169
X0.5931Y-4.0169
X0.5933Y-1.5223
X0.5933Y-1.6223
X0.5933Y-1.7223
X0.5933Y-1.8223
X0.5933Y-1.9223
X0.5933Y-2.0223
X0.5933Y-2.1223
X0.5933Y-2.2223
X0.5933Y-2.3223
X0.5933Y-2.4223
X0.5933Y-2.5223
X0.5933Y-2.6223
X0.5933Y-2.7223
X0.5933Y-2.8223
X0.5933Y-2.9223
X0.5933Y-3.0223
X0.5933Y-3.1223
X0.5933Y-3.2223
X0.595Y-3.6448
X0.595Y-3.7448
X0.7374Y-0.4247
X0.7374Y-0.5247
X0.7374Y-0.6247
X0.7374Y-0.7247
X0.7374Y-0.8247
X0.7374Y-0.9247
X0.7374Y-1.0247
X0.7374Y-1.1247
X1.4461Y-0.4247
X1.4461Y-0.5247
X1.4461Y-0.6247
X1.4461Y-0.7247
X1.4461Y-0.8247
X1.4461Y-0.9247
X1.4461Y-1.0247
X1.4461Y-1.1247
X1.5931Y-3.7811
X1.5931Y-3.8811
X1.5933Y-1.5223
X1.5933Y-1.6223
X1.5933Y-1.7223
X1.5933Y-1.8223
X1.5933Y-1.9223
X1.5933Y-2.0223
X1.5933Y-2.1223
X1.5933Y-2.2223
X1.5933Y-2.3223
X1.5933Y-2.4223
X1.5933Y-2.5223
X1.5933Y-2.6223
X1.5933Y-2.7223
X1.5933Y-2.8223
X1.5933Y-2.9223
X1.5933Y-3.0223
X1.5933Y-3.1223
X1.5933Y-3.2223
X1.6023Y-0.4253
X1.6023Y-0.5253
X1.6023Y-0.8553
X1.6023Y-0.9553
T4
X0.3423Y-0.4053
X0.3423Y-0.6053
X0.3423Y-0.8053
X0.3423Y-1.0053
X0.3423Y-1.2053
X0.3423Y-1.4053
X0.3423Y-1.6053
X0.3423Y-1.8053
X0.3423Y-2.0053
X0.3423Y-2.2053
X0.3423Y-2.4053
X0.3423Y-2.6053
X0.3423Y-2.8053
X0.3423Y-3.0053
X0.3423Y-3.2053
X0.3423Y-3.4053
X0.3423Y-3.6053
X0.3423Y-3.8053
X0.3423Y-4.0053
X0.3423Y-4.2053
X0.3423Y-4.4053
X0.8919Y-4.3516
X1.0919Y-4.3516
X1.2919Y-4.3516
X1.8423Y-0.4053
X1.8423Y-0.6053
X1.8423Y-0.8053
X1.8423Y-1.0053
X1.8423Y-1.2053
X1.8423Y-1.4053
X1.8423Y-1.6053
X1.8423Y-1.8053
X1.8423Y-2.0053
X1.8423Y-2.2053
X1.8423Y-2.4053
X1.8423Y-2.6053
X1.8423Y-2.8053
X1.8423Y-3.0053
X1.8423Y-3.2053
X1.8423Y-3.4053
X1.8423Y-3.6053
X1.8423Y-3.8053
X1.8423Y-4.0053
X1.8423Y-4.2053
X1.8423Y-4.4053
T5
X0.9054Y-0.4331
X0.9251Y-0.7205
X1.0865Y-0.2795
X1.1849Y-0.5472
X1.2912Y-0.5945
T0
M30
