%TF.GenerationSoftware,KiCad,Pcbnew,7.0.6*%
%TF.CreationDate,2024-08-21T19:33:41+02:00*%
%TF.ProjectId,Koracni ksilofon,4b6f7261-636e-4692-906b-73696c6f666f,rev?*%
%TF.SameCoordinates,PXca73a30PY16e2660*%
%TF.FileFunction,Copper,L1,Top*%
%TF.FilePolarity,Positive*%
%FSLAX46Y46*%
G04 Gerber Fmt 4.6, Leading zero omitted, Abs format (unit mm)*
G04 Created by KiCad (PCBNEW 7.0.6) date 2024-08-21 19:33:41*
%MOMM*%
%LPD*%
G01*
G04 APERTURE LIST*
G04 Aperture macros list*
%AMFreePoly0*
4,1,6,1.000000,0.000000,0.500000,-0.750000,-0.500000,-0.750000,-0.500000,0.750000,0.500000,0.750000,1.000000,0.000000,1.000000,0.000000,$1*%
%AMFreePoly1*
4,1,6,0.500000,-0.750000,-0.650000,-0.750000,-0.150000,0.000000,-0.650000,0.750000,0.500000,0.750000,0.500000,-0.750000,0.500000,-0.750000,$1*%
G04 Aperture macros list end*
%TA.AperFunction,ComponentPad*%
%ADD10R,1.700000X1.700000*%
%TD*%
%TA.AperFunction,ComponentPad*%
%ADD11O,1.700000X1.700000*%
%TD*%
%TA.AperFunction,ComponentPad*%
%ADD12C,1.600000*%
%TD*%
%TA.AperFunction,ComponentPad*%
%ADD13O,1.600000X1.600000*%
%TD*%
%TA.AperFunction,ComponentPad*%
%ADD14R,3.000000X3.000000*%
%TD*%
%TA.AperFunction,ComponentPad*%
%ADD15C,3.000000*%
%TD*%
%TA.AperFunction,SMDPad,CuDef*%
%ADD16FreePoly0,0.000000*%
%TD*%
%TA.AperFunction,SMDPad,CuDef*%
%ADD17FreePoly1,0.000000*%
%TD*%
%TA.AperFunction,ComponentPad*%
%ADD18R,1.600000X1.600000*%
%TD*%
%TA.AperFunction,SMDPad,CuDef*%
%ADD19FreePoly0,180.000000*%
%TD*%
%TA.AperFunction,SMDPad,CuDef*%
%ADD20FreePoly1,180.000000*%
%TD*%
%TA.AperFunction,ComponentPad*%
%ADD21O,4.000000X2.200000*%
%TD*%
%TA.AperFunction,ComponentPad*%
%ADD22O,2.200000X4.000000*%
%TD*%
%TA.AperFunction,ComponentPad*%
%ADD23R,2.200000X4.000000*%
%TD*%
%TA.AperFunction,ViaPad*%
%ADD24C,0.800000*%
%TD*%
%TA.AperFunction,Conductor*%
%ADD25C,0.250000*%
%TD*%
%TA.AperFunction,Conductor*%
%ADD26C,0.500000*%
%TD*%
%TA.AperFunction,Conductor*%
%ADD27C,0.200000*%
%TD*%
G04 APERTURE END LIST*
D10*
%TO.P,SW1,1,1*%
%TO.N,/vol_up*%
X40698000Y-24264000D03*
D11*
%TO.P,SW1,2,2*%
%TO.N,+3.3V*%
X40698000Y-21724000D03*
%TD*%
D12*
%TO.P,R5,1*%
%TO.N,GND*%
X29014000Y-32900000D03*
D13*
%TO.P,R5,2*%
%TO.N,/vol_up*%
X36634000Y-32900000D03*
%TD*%
D14*
%TO.P,J9,1,Pin_1*%
%TO.N,/MUX_4_IN_4*%
X8694000Y-25534000D03*
D15*
%TO.P,J9,2,Pin_2*%
%TO.N,/MUX_4_IN_5*%
X8694000Y-30614000D03*
%TO.P,J9,3,Pin_3*%
%TO.N,/MUX_4_IN_6*%
X8694000Y-35694000D03*
%TD*%
D10*
%TO.P,J20,1,Pin_1*%
%TO.N,/MP3_TX*%
X40469000Y-38667000D03*
D11*
%TO.P,J20,2,Pin_2*%
%TO.N,/MASTER_MUX_OUT*%
X40469000Y-41207000D03*
%TO.P,J20,3,Pin_3*%
%TO.N,/vol_up*%
X40469000Y-43747000D03*
%TO.P,J20,4,Pin_4*%
%TO.N,/vol_down*%
X40469000Y-46287000D03*
%TO.P,J20,5,Pin_5*%
%TO.N,/MUX_4_S0*%
X40469000Y-48827000D03*
%TO.P,J20,6,Pin_6*%
%TO.N,unconnected-(J20-Pin_6-Pad6)*%
X40469000Y-51367000D03*
%TO.P,J20,7,Pin_7*%
%TO.N,/MUX_4_S1*%
X40469000Y-53907000D03*
%TO.P,J20,8,Pin_8*%
%TO.N,/MUX_4_S2*%
X40469000Y-56447000D03*
%TO.P,J20,9,Pin_9*%
%TO.N,/MUX_5_S0*%
X40469000Y-58987000D03*
%TO.P,J20,10,Pin_10*%
%TO.N,/MUX_5_S1*%
X40469000Y-61527000D03*
%TO.P,J20,11,Pin_11*%
%TO.N,/MUX_5_S2*%
X40469000Y-64067000D03*
%TO.P,J20,12,Pin_12*%
%TO.N,/MUX_6_S0*%
X40469000Y-66607000D03*
%TO.P,J20,13,Pin_13*%
%TO.N,/MUX_6_S1*%
X40469000Y-69147000D03*
%TO.P,J20,14,Pin_14*%
%TO.N,/MUX_6_S2*%
X40469000Y-71687000D03*
%TO.P,J20,15,Pin_15*%
%TO.N,/MUX_MASTER_S0*%
X40469000Y-74227000D03*
%TO.P,J20,16,Pin_16*%
%TO.N,/MUX_MASTER_S1*%
X40469000Y-76767000D03*
%TO.P,J20,17,Pin_17*%
%TO.N,/MUX_MASTER_S2*%
X40469000Y-79307000D03*
%TO.P,J20,18,Pin_18*%
%TO.N,unconnected-(J20-Pin_18-Pad18)*%
X40469000Y-81847000D03*
%TD*%
D10*
%TO.P,J19,1,Pin_1*%
%TO.N,Net-(J18-Pin_2)*%
X15069000Y-38667000D03*
D11*
%TO.P,J19,2,Pin_2*%
%TO.N,Net-(J17-Pin_2)*%
X15069000Y-41207000D03*
%TO.P,J19,3,Pin_3*%
%TO.N,/MUX_1_S1*%
X15069000Y-43747000D03*
%TO.P,J19,4,Pin_4*%
%TO.N,/MUX_1_S2*%
X15069000Y-46287000D03*
%TO.P,J19,5,Pin_5*%
%TO.N,/MUX_2_S0*%
X15069000Y-48827000D03*
%TO.P,J19,6,Pin_6*%
%TO.N,/MUX_2_S1*%
X15069000Y-51367000D03*
%TO.P,J19,7,Pin_7*%
%TO.N,/MUX_2_S2*%
X15069000Y-53907000D03*
%TO.P,J19,8,Pin_8*%
%TO.N,/MUX_3_S0*%
X15069000Y-56447000D03*
%TO.P,J19,9,Pin_9*%
%TO.N,/MUX_3_S1*%
X15069000Y-58987000D03*
%TO.P,J19,10,Pin_10*%
%TO.N,/MUX_3_S2*%
X15069000Y-61527000D03*
%TO.P,J19,11,Pin_11*%
%TO.N,unconnected-(J19-Pin_11-Pad11)*%
X15069000Y-64067000D03*
%TO.P,J19,12,Pin_12*%
%TO.N,unconnected-(J19-Pin_12-Pad12)*%
X15069000Y-66607000D03*
%TO.P,J19,13,Pin_13*%
%TO.N,unconnected-(J19-Pin_13-Pad13)*%
X15069000Y-69147000D03*
%TO.P,J19,14,Pin_14*%
%TO.N,unconnected-(J19-Pin_14-Pad14)*%
X15069000Y-71687000D03*
%TO.P,J19,15,Pin_15*%
%TO.N,GND*%
X15069000Y-74227000D03*
%TO.P,J19,16,Pin_16*%
%TO.N,unconnected-(J19-Pin_16-Pad16)*%
X15069000Y-76767000D03*
%TO.P,J19,17,Pin_17*%
%TO.N,Net-(J19-Pin_17)*%
X15069000Y-79307000D03*
%TO.P,J19,18,Pin_18*%
%TO.N,Net-(J19-Pin_18)*%
X15069000Y-81847000D03*
%TD*%
D16*
%TO.P,JP4,1,A*%
%TO.N,Net-(JP1-A)*%
X22156000Y-26804000D03*
D17*
%TO.P,JP4,2,B*%
%TO.N,/SPK-*%
X23606000Y-26804000D03*
%TD*%
D12*
%TO.P,R6,1*%
%TO.N,GND*%
X26220000Y-32900000D03*
D13*
%TO.P,R6,2*%
%TO.N,/vol_down*%
X18600000Y-32900000D03*
%TD*%
D10*
%TO.P,J16,1,Pin_1*%
%TO.N,unconnected-(J16-Pin_1-Pad1)*%
X18730000Y-28567000D03*
D11*
%TO.P,J16,2,Pin_2*%
%TO.N,unconnected-(J16-Pin_2-Pad2)*%
X18730000Y-26027000D03*
%TO.P,J16,3,Pin_3*%
%TO.N,unconnected-(J16-Pin_3-Pad3)*%
X18730000Y-23487000D03*
%TO.P,J16,4,Pin_4*%
%TO.N,unconnected-(J16-Pin_4-Pad4)*%
X18730000Y-20947000D03*
%TO.P,J16,5,Pin_5*%
%TO.N,unconnected-(J16-Pin_5-Pad5)*%
X18730000Y-18407000D03*
%TO.P,J16,6,Pin_6*%
%TO.N,unconnected-(J16-Pin_6-Pad6)*%
X18730000Y-15867000D03*
%TO.P,J16,7,Pin_7*%
%TO.N,GND*%
X18730000Y-13327000D03*
%TO.P,J16,8,Pin_8*%
%TO.N,unconnected-(J16-Pin_8-Pad8)*%
X18730000Y-10787000D03*
%TD*%
D18*
%TO.P,U4,1,X4*%
%TO.N,/MUX_4_IN_4*%
X18839000Y-74324000D03*
D13*
%TO.P,U4,2,X6*%
%TO.N,/MUX_4_IN_6*%
X21379000Y-74324000D03*
%TO.P,U4,3,X*%
%TO.N,/SLAVE_MUX_4_OUT*%
X23919000Y-74324000D03*
%TO.P,U4,4,X7*%
%TO.N,/MUX_4_IN_7*%
X26459000Y-74324000D03*
%TO.P,U4,5,X5*%
%TO.N,/MUX_4_IN_5*%
X28999000Y-74324000D03*
%TO.P,U4,6,Inh*%
%TO.N,GND*%
X31539000Y-74324000D03*
%TO.P,U4,7,VEE*%
X34079000Y-74324000D03*
%TO.P,U4,8,VSS*%
X36619000Y-74324000D03*
%TO.P,U4,9,C*%
%TO.N,/MUX_4_S2*%
X36619000Y-66704000D03*
%TO.P,U4,10,B*%
%TO.N,/MUX_4_S1*%
X34079000Y-66704000D03*
%TO.P,U4,11,A*%
%TO.N,/MUX_4_S0*%
X31539000Y-66704000D03*
%TO.P,U4,12,X3*%
%TO.N,/MUX_4_IN_3*%
X28999000Y-66704000D03*
%TO.P,U4,13,X0*%
%TO.N,unconnected-(U4-X0-Pad13)*%
X26459000Y-66704000D03*
%TO.P,U4,14,X1*%
%TO.N,/MUX_4_IN_1*%
X23919000Y-66704000D03*
%TO.P,U4,15,X2*%
%TO.N,/MUX_4_IN_2*%
X21379000Y-66704000D03*
%TO.P,U4,16,VDD*%
%TO.N,VCC*%
X18839000Y-66704000D03*
%TD*%
D18*
%TO.P,U6,1,X4*%
%TO.N,/MUX_6_IN_4*%
X18839000Y-94644000D03*
D13*
%TO.P,U6,2,X6*%
%TO.N,/MUX_6_IN_6*%
X21379000Y-94644000D03*
%TO.P,U6,3,X*%
%TO.N,/SLAVE_MUX_6_OUT*%
X23919000Y-94644000D03*
%TO.P,U6,4,X7*%
%TO.N,/MUX_6_IN_7*%
X26459000Y-94644000D03*
%TO.P,U6,5,X5*%
%TO.N,/MUX_6_IN_5*%
X28999000Y-94644000D03*
%TO.P,U6,6,Inh*%
%TO.N,GND*%
X31539000Y-94644000D03*
%TO.P,U6,7,VEE*%
X34079000Y-94644000D03*
%TO.P,U6,8,VSS*%
X36619000Y-94644000D03*
%TO.P,U6,9,C*%
%TO.N,/MUX_6_S2*%
X36619000Y-87024000D03*
%TO.P,U6,10,B*%
%TO.N,/MUX_6_S1*%
X34079000Y-87024000D03*
%TO.P,U6,11,A*%
%TO.N,/MUX_6_S0*%
X31539000Y-87024000D03*
%TO.P,U6,12,X3*%
%TO.N,/MUX_6_IN_3*%
X28999000Y-87024000D03*
%TO.P,U6,13,X0*%
%TO.N,unconnected-(U6-X0-Pad13)*%
X26459000Y-87024000D03*
%TO.P,U6,14,X1*%
%TO.N,/MUX_6_IN_1*%
X23919000Y-87024000D03*
%TO.P,U6,15,X2*%
%TO.N,/MUX_6_IN_2*%
X21379000Y-87024000D03*
%TO.P,U6,16,VDD*%
%TO.N,VCC*%
X18839000Y-87024000D03*
%TD*%
D14*
%TO.P,J4,1,Pin_1*%
%TO.N,/MUX_2_IN_5*%
X46794000Y-66173999D03*
D15*
%TO.P,J4,2,Pin_2*%
%TO.N,/MUX_2_IN_4*%
X46794000Y-61093999D03*
%TO.P,J4,3,Pin_3*%
%TO.N,/MUX_2_IN_3*%
X46794000Y-56013999D03*
%TD*%
D14*
%TO.P,J26,1,Pin_1*%
%TO.N,Net-(J26-Pin_1)*%
X22655003Y-110531453D03*
D15*
%TO.P,J26,2,Pin_2*%
%TO.N,+3.3V*%
X27735003Y-110531453D03*
%TO.P,J26,3,Pin_3*%
%TO.N,GND*%
X32815003Y-110531453D03*
%TD*%
D18*
%TO.P,U3,1,X4*%
%TO.N,/MUX_3_IN_4*%
X18839000Y-64164000D03*
D13*
%TO.P,U3,2,X6*%
%TO.N,/MUX_3_IN_6*%
X21379000Y-64164000D03*
%TO.P,U3,3,X*%
%TO.N,/SLAVE_MUX_3_OUT*%
X23919000Y-64164000D03*
%TO.P,U3,4,X7*%
%TO.N,/MUX_3_IN_7*%
X26459000Y-64164000D03*
%TO.P,U3,5,X5*%
%TO.N,/MUX_3_IN_5*%
X28999000Y-64164000D03*
%TO.P,U3,6,Inh*%
%TO.N,GND*%
X31539000Y-64164000D03*
%TO.P,U3,7,VEE*%
X34079000Y-64164000D03*
%TO.P,U3,8,VSS*%
X36619000Y-64164000D03*
%TO.P,U3,9,C*%
%TO.N,/MUX_3_S2*%
X36619000Y-56544000D03*
%TO.P,U3,10,B*%
%TO.N,/MUX_3_S1*%
X34079000Y-56544000D03*
%TO.P,U3,11,A*%
%TO.N,/MUX_3_S0*%
X31539000Y-56544000D03*
%TO.P,U3,12,X3*%
%TO.N,/MUX_3_IN_3*%
X28999000Y-56544000D03*
%TO.P,U3,13,X0*%
%TO.N,unconnected-(U3-X0-Pad13)*%
X26459000Y-56544000D03*
%TO.P,U3,14,X1*%
%TO.N,/MUX_3_IN_1*%
X23919000Y-56544000D03*
%TO.P,U3,15,X2*%
%TO.N,/MUX_3_IN_2*%
X21379000Y-56544000D03*
%TO.P,U3,16,VDD*%
%TO.N,VCC*%
X18839000Y-56544000D03*
%TD*%
D19*
%TO.P,JP3,1,A*%
%TO.N,Net-(JP2-A)*%
X23680001Y-21724000D03*
D20*
%TO.P,JP3,2,B*%
%TO.N,/SPK+*%
X22230001Y-21724000D03*
%TD*%
D18*
%TO.P,U5,1,X4*%
%TO.N,/MUX_5_IN_4*%
X18839000Y-84484000D03*
D13*
%TO.P,U5,2,X6*%
%TO.N,/MUX_5_IN_6*%
X21379000Y-84484000D03*
%TO.P,U5,3,X*%
%TO.N,/SLAVE_MUX_5_OUT*%
X23919000Y-84484000D03*
%TO.P,U5,4,X7*%
%TO.N,/MUX_5_IN_7*%
X26459000Y-84484000D03*
%TO.P,U5,5,X5*%
%TO.N,/MUX_5_IN_5*%
X28999000Y-84484000D03*
%TO.P,U5,6,Inh*%
%TO.N,GND*%
X31539000Y-84484000D03*
%TO.P,U5,7,VEE*%
X34079000Y-84484000D03*
%TO.P,U5,8,VSS*%
X36619000Y-84484000D03*
%TO.P,U5,9,C*%
%TO.N,/MUX_5_S2*%
X36619000Y-76864000D03*
%TO.P,U5,10,B*%
%TO.N,/MUX_5_S1*%
X34079000Y-76864000D03*
%TO.P,U5,11,A*%
%TO.N,/MUX_5_S0*%
X31539000Y-76864000D03*
%TO.P,U5,12,X3*%
%TO.N,/MUX_5_IN_3*%
X28999000Y-76864000D03*
%TO.P,U5,13,X0*%
%TO.N,unconnected-(U5-X0-Pad13)*%
X26459000Y-76864000D03*
%TO.P,U5,14,X1*%
%TO.N,/MUX_5_IN_1*%
X23919000Y-76864000D03*
%TO.P,U5,15,X2*%
%TO.N,/MUX_5_IN_2*%
X21379000Y-76864000D03*
%TO.P,U5,16,VDD*%
%TO.N,VCC*%
X18839000Y-76864000D03*
%TD*%
D14*
%TO.P,J2,1,Pin_1*%
%TO.N,/MUX_3_IN_4*%
X46794000Y-96654000D03*
D15*
%TO.P,J2,2,Pin_2*%
%TO.N,/MUX_3_IN_3*%
X46794000Y-91574000D03*
%TO.P,J2,3,Pin_3*%
%TO.N,/MUX_3_IN_2*%
X46794000Y-86494000D03*
%TD*%
D12*
%TO.P,C1,1*%
%TO.N,GND*%
X40698000Y-18676000D03*
%TO.P,C1,2*%
%TO.N,/vol_down*%
X40698000Y-16176000D03*
%TD*%
D14*
%TO.P,J3,1,Pin_1*%
%TO.N,/MUX_3_IN_1*%
X46794000Y-81414000D03*
D15*
%TO.P,J3,2,Pin_2*%
%TO.N,/MUX_2_IN_7*%
X46794000Y-76334000D03*
%TO.P,J3,3,Pin_3*%
%TO.N,/MUX_2_IN_6*%
X46794000Y-71254000D03*
%TD*%
D18*
%TO.P,C4,1*%
%TO.N,VCC*%
X39150000Y-111250000D03*
D12*
%TO.P,C4,2*%
%TO.N,GND*%
X39150000Y-108750000D03*
%TD*%
D18*
%TO.P,U7,1,X4*%
%TO.N,/SLAVE_MUX_4_OUT*%
X18839000Y-104804000D03*
D13*
%TO.P,U7,2,X6*%
%TO.N,/SLAVE_MUX_6_OUT*%
X21379000Y-104804000D03*
%TO.P,U7,3,X*%
%TO.N,/MASTER_MUX_OUT*%
X23919000Y-104804000D03*
%TO.P,U7,4,X7*%
%TO.N,unconnected-(U7-X7-Pad4)*%
X26459000Y-104804000D03*
%TO.P,U7,5,X5*%
%TO.N,/SLAVE_MUX_5_OUT*%
X28999000Y-104804000D03*
%TO.P,U7,6,Inh*%
%TO.N,GND*%
X31539000Y-104804000D03*
%TO.P,U7,7,VEE*%
X34079000Y-104804000D03*
%TO.P,U7,8,VSS*%
X36619000Y-104804000D03*
%TO.P,U7,9,C*%
%TO.N,/MUX_MASTER_S2*%
X36619000Y-97184000D03*
%TO.P,U7,10,B*%
%TO.N,/MUX_MASTER_S1*%
X34079000Y-97184000D03*
%TO.P,U7,11,A*%
%TO.N,/MUX_MASTER_S0*%
X31539000Y-97184000D03*
%TO.P,U7,12,X3*%
%TO.N,/SLAVE_MUX_3_OUT*%
X28999000Y-97184000D03*
%TO.P,U7,13,X0*%
%TO.N,unconnected-(U7-X0-Pad13)*%
X26459000Y-97184000D03*
%TO.P,U7,14,X1*%
%TO.N,/SLAVE_MUX_1_OUT*%
X23919000Y-97184000D03*
%TO.P,U7,15,X2*%
%TO.N,/SLAVE_MUX_2_OUT*%
X21379000Y-97184000D03*
%TO.P,U7,16,VDD*%
%TO.N,VCC*%
X18839000Y-97184000D03*
%TD*%
D18*
%TO.P,U2,1,X4*%
%TO.N,/MUX_2_IN_4*%
X18839000Y-54004000D03*
D13*
%TO.P,U2,2,X6*%
%TO.N,/MUX_2_IN_6*%
X21379000Y-54004000D03*
%TO.P,U2,3,X*%
%TO.N,/SLAVE_MUX_2_OUT*%
X23919000Y-54004000D03*
%TO.P,U2,4,X7*%
%TO.N,/MUX_2_IN_7*%
X26459000Y-54004000D03*
%TO.P,U2,5,X5*%
%TO.N,/MUX_2_IN_5*%
X28999000Y-54004000D03*
%TO.P,U2,6,Inh*%
%TO.N,GND*%
X31539000Y-54004000D03*
%TO.P,U2,7,VEE*%
X34079000Y-54004000D03*
%TO.P,U2,8,VSS*%
X36619000Y-54004000D03*
%TO.P,U2,9,C*%
%TO.N,/MUX_2_S2*%
X36619000Y-46384000D03*
%TO.P,U2,10,B*%
%TO.N,/MUX_2_S1*%
X34079000Y-46384000D03*
%TO.P,U2,11,A*%
%TO.N,/MUX_2_S0*%
X31539000Y-46384000D03*
%TO.P,U2,12,X3*%
%TO.N,/MUX_2_IN_3*%
X28999000Y-46384000D03*
%TO.P,U2,13,X0*%
%TO.N,unconnected-(U2-X0-Pad13)*%
X26459000Y-46384000D03*
%TO.P,U2,14,X1*%
%TO.N,/MUX_2_IN_1*%
X23919000Y-46384000D03*
%TO.P,U2,15,X2*%
%TO.N,/MUX_2_IN_2*%
X21379000Y-46384000D03*
%TO.P,U2,16,VDD*%
%TO.N,VCC*%
X18839000Y-46384000D03*
%TD*%
D12*
%TO.P,C2,1*%
%TO.N,GND*%
X40444000Y-29852000D03*
%TO.P,C2,2*%
%TO.N,/vol_up*%
X40444000Y-27352000D03*
%TD*%
D14*
%TO.P,J13,1,Pin_1*%
%TO.N,/MUX_6_IN_2*%
X8694000Y-86494001D03*
D15*
%TO.P,J13,2,Pin_2*%
%TO.N,/MUX_6_IN_3*%
X8694000Y-91574001D03*
%TO.P,J13,3,Pin_3*%
%TO.N,/MUX_6_IN_4*%
X8694000Y-96654001D03*
%TD*%
D10*
%TO.P,J21,1,Pin_1*%
%TO.N,Net-(J19-Pin_18)*%
X15114000Y-92579000D03*
D11*
%TO.P,J21,2,Pin_2*%
%TO.N,VCC*%
X15114000Y-95119000D03*
%TD*%
D12*
%TO.P,R1,1*%
%TO.N,+3.3V*%
X33840000Y-25540000D03*
D13*
%TO.P,R1,2*%
%TO.N,/MP3_TX*%
X26220000Y-25540000D03*
%TD*%
D10*
%TO.P,J22,1,Pin_1*%
%TO.N,+3.3V*%
X40464000Y-98579000D03*
D11*
%TO.P,J22,2,Pin_2*%
%TO.N,Net-(J19-Pin_17)*%
X40464000Y-96039000D03*
%TD*%
D14*
%TO.P,J7,1,Pin_1*%
%TO.N,/MUX_1_IN_3*%
X46794000Y-20453999D03*
D15*
%TO.P,J7,2,Pin_2*%
%TO.N,/MUX_1_IN_2*%
X46794000Y-15373999D03*
%TO.P,J7,3,Pin_3*%
%TO.N,/MUX_1_IN_1*%
X46794000Y-10293999D03*
%TD*%
D14*
%TO.P,J14,1,Pin_1*%
%TO.N,/MUX_6_IN_5*%
X8694000Y-101734000D03*
D15*
%TO.P,J14,2,Pin_2*%
%TO.N,/MUX_6_IN_6*%
X8694000Y-106814000D03*
%TO.P,J14,3,Pin_3*%
%TO.N,/MUX_6_IN_7*%
X8694000Y-111894000D03*
%TD*%
D14*
%TO.P,J8,1,Pin_1*%
%TO.N,/MUX_4_IN_1*%
X8694000Y-10294000D03*
D15*
%TO.P,J8,2,Pin_2*%
%TO.N,/MUX_4_IN_2*%
X8694000Y-15374000D03*
%TO.P,J8,3,Pin_3*%
%TO.N,/MUX_4_IN_3*%
X8694000Y-20454000D03*
%TD*%
D10*
%TO.P,J15,1,Pin_1*%
%TO.N,VCC*%
X36730000Y-28567000D03*
D11*
%TO.P,J15,2,Pin_2*%
%TO.N,/MP3_RX*%
X36730000Y-26027000D03*
%TO.P,J15,3,Pin_3*%
%TO.N,/MP3_TX*%
X36730000Y-23487000D03*
%TO.P,J15,4,Pin_4*%
%TO.N,unconnected-(J15-Pin_4-Pad4)*%
X36730000Y-20947000D03*
%TO.P,J15,5,Pin_5*%
%TO.N,unconnected-(J15-Pin_5-Pad5)*%
X36730000Y-18407000D03*
%TO.P,J15,6,Pin_6*%
%TO.N,/SPK-*%
X36730000Y-15867000D03*
%TO.P,J15,7,Pin_7*%
%TO.N,GND*%
X36730000Y-13327000D03*
%TO.P,J15,8,Pin_8*%
%TO.N,/SPK+*%
X36730000Y-10787000D03*
%TD*%
D10*
%TO.P,J17,1,Pin_1*%
%TO.N,/MUX_1_S0*%
X15044000Y-19438000D03*
D11*
%TO.P,J17,2,Pin_2*%
%TO.N,Net-(J17-Pin_2)*%
X15044000Y-16898000D03*
%TD*%
D14*
%TO.P,J1,1,Pin_1*%
%TO.N,/MUX_3_IN_7*%
X46794000Y-111894001D03*
D15*
%TO.P,J1,2,Pin_2*%
%TO.N,/MUX_3_IN_6*%
X46794000Y-106814001D03*
%TO.P,J1,3,Pin_3*%
%TO.N,/MUX_3_IN_5*%
X46794000Y-101734001D03*
%TD*%
D16*
%TO.P,JP1,1,A*%
%TO.N,Net-(JP1-A)*%
X22155999Y-29344000D03*
D17*
%TO.P,JP1,2,B*%
%TO.N,GND*%
X23605999Y-29344000D03*
%TD*%
D14*
%TO.P,J10,1,Pin_1*%
%TO.N,/MUX_4_IN_7*%
X8694000Y-40774001D03*
D15*
%TO.P,J10,2,Pin_2*%
%TO.N,/MUX_5_IN_1*%
X8694000Y-45854001D03*
%TO.P,J10,3,Pin_3*%
%TO.N,/MUX_5_IN_2*%
X8694000Y-50934001D03*
%TD*%
D10*
%TO.P,J18,1,Pin_1*%
%TO.N,/MP3_RX*%
X15044000Y-24518000D03*
D11*
%TO.P,J18,2,Pin_2*%
%TO.N,Net-(J18-Pin_2)*%
X15044000Y-27058000D03*
%TD*%
D19*
%TO.P,JP2,1,A*%
%TO.N,Net-(JP2-A)*%
X23643000Y-24264000D03*
D20*
%TO.P,JP2,2,B*%
%TO.N,GND*%
X22193000Y-24264000D03*
%TD*%
D12*
%TO.P,R3,1*%
%TO.N,+3.3V*%
X33834000Y-29004000D03*
D13*
%TO.P,R3,2*%
%TO.N,/MASTER_MUX_OUT*%
X26214000Y-29004000D03*
%TD*%
D12*
%TO.P,R2,1*%
%TO.N,GND*%
X33840000Y-21984000D03*
D13*
%TO.P,R2,2*%
%TO.N,/MASTER_MUX_OUT*%
X26220000Y-21984000D03*
%TD*%
D18*
%TO.P,U1,1,X4*%
%TO.N,/MUX_1_IN_4*%
X18839000Y-43590000D03*
D13*
%TO.P,U1,2,X6*%
%TO.N,/MUX_1_IN_6*%
X21379000Y-43590000D03*
%TO.P,U1,3,X*%
%TO.N,/SLAVE_MUX_1_OUT*%
X23919000Y-43590000D03*
%TO.P,U1,4,X7*%
%TO.N,/MUX_1_IN_7*%
X26459000Y-43590000D03*
%TO.P,U1,5,X5*%
%TO.N,/MUX_1_IN_5*%
X28999000Y-43590000D03*
%TO.P,U1,6,Inh*%
%TO.N,GND*%
X31539000Y-43590000D03*
%TO.P,U1,7,VEE*%
X34079000Y-43590000D03*
%TO.P,U1,8,VSS*%
X36619000Y-43590000D03*
%TO.P,U1,9,C*%
%TO.N,/MUX_1_S2*%
X36619000Y-35970000D03*
%TO.P,U1,10,B*%
%TO.N,/MUX_1_S1*%
X34079000Y-35970000D03*
%TO.P,U1,11,A*%
%TO.N,/MUX_1_S0*%
X31539000Y-35970000D03*
%TO.P,U1,12,X3*%
%TO.N,/MUX_1_IN_3*%
X28999000Y-35970000D03*
%TO.P,U1,13,X0*%
%TO.N,unconnected-(U1-X0-Pad13)*%
X26459000Y-35970000D03*
%TO.P,U1,14,X1*%
%TO.N,/MUX_1_IN_1*%
X23919000Y-35970000D03*
%TO.P,U1,15,X2*%
%TO.N,/MUX_1_IN_2*%
X21379000Y-35970000D03*
%TO.P,U1,16,VDD*%
%TO.N,VCC*%
X18839000Y-35970000D03*
%TD*%
D10*
%TO.P,SW2,1,1*%
%TO.N,/vol_down*%
X40698000Y-13342000D03*
D11*
%TO.P,SW2,2,2*%
%TO.N,+3.3V*%
X40698000Y-10802000D03*
%TD*%
D14*
%TO.P,J6,1,Pin_1*%
%TO.N,/MUX_1_IN_6*%
X46794000Y-35694000D03*
D15*
%TO.P,J6,2,Pin_2*%
%TO.N,/MUX_1_IN_5*%
X46794000Y-30614000D03*
%TO.P,J6,3,Pin_3*%
%TO.N,/MUX_1_IN_4*%
X46794000Y-25534000D03*
%TD*%
D14*
%TO.P,J11,1,Pin_1*%
%TO.N,/MUX_5_IN_3*%
X8694000Y-56014000D03*
D15*
%TO.P,J11,2,Pin_2*%
%TO.N,/MUX_5_IN_4*%
X8694000Y-61094000D03*
%TO.P,J11,3,Pin_3*%
%TO.N,/MUX_5_IN_5*%
X8694000Y-66174000D03*
%TD*%
D12*
%TO.P,C3,1*%
%TO.N,GND*%
X15044000Y-10060001D03*
%TO.P,C3,2*%
%TO.N,/MASTER_MUX_OUT*%
X15044000Y-12560001D03*
%TD*%
D14*
%TO.P,J5,1,Pin_1*%
%TO.N,/MUX_2_IN_2*%
X46794000Y-50934000D03*
D15*
%TO.P,J5,2,Pin_2*%
%TO.N,/MUX_2_IN_1*%
X46794000Y-45854000D03*
%TO.P,J5,3,Pin_3*%
%TO.N,/MUX_1_IN_7*%
X46794000Y-40774000D03*
%TD*%
D10*
%TO.P,SW3,1*%
%TO.N,Net-(J26-Pin_1)*%
X15064000Y-102029000D03*
D11*
%TO.P,SW3,2*%
%TO.N,VCC*%
X15064000Y-99489000D03*
%TD*%
D21*
%TO.P,J23,G*%
%TO.N,GND*%
X27596753Y-7100114D03*
D22*
%TO.P,J23,S*%
%TO.N,/SPK-*%
X32796753Y-15100114D03*
%TO.P,J23,SN*%
%TO.N,Net-(JP1-A)*%
X30096753Y-13900114D03*
D23*
%TO.P,J23,T*%
%TO.N,/SPK+*%
X22996753Y-11000114D03*
D21*
%TO.P,J23,TN*%
%TO.N,Net-(JP2-A)*%
X23496753Y-18300114D03*
%TD*%
D14*
%TO.P,J12,1,Pin_1*%
%TO.N,/MUX_5_IN_6*%
X8694000Y-71254000D03*
D15*
%TO.P,J12,2,Pin_2*%
%TO.N,/MUX_5_IN_7*%
X8694000Y-76334000D03*
%TO.P,J12,3,Pin_3*%
%TO.N,/MUX_6_IN_1*%
X8694000Y-81414000D03*
%TD*%
D24*
%TO.N,/MUX_1_IN_1*%
X42574500Y-40050000D03*
X38119500Y-38199503D03*
X23850000Y-38808149D03*
%TO.N,/MUX_1_IN_2*%
X42600000Y-42350000D03*
X38119500Y-39400000D03*
X21400000Y-38808149D03*
%TO.N,/MUX_1_IN_3*%
X43024500Y-31300000D03*
X41125500Y-31350000D03*
X31962299Y-32937701D03*
%TO.N,/MUX_1_IN_4*%
X42000049Y-45780549D03*
X39600000Y-45050000D03*
%TO.N,/MUX_1_IN_7*%
X39273905Y-47798504D03*
X42060984Y-47769519D03*
%TO.N,/MUX_2_IN_1*%
X37200852Y-48241069D03*
X39327851Y-50372150D03*
X36950000Y-44950000D03*
X41841150Y-50141150D03*
%TO.N,/MUX_2_IN_3*%
X39013705Y-51321001D03*
X42000000Y-53266500D03*
%TO.N,/MUX_2_IN_4*%
X20250000Y-52250000D03*
%TO.N,/MUX_2_IN_5*%
X41737300Y-55012700D03*
X38569500Y-55405348D03*
%TO.N,/MUX_2_IN_7*%
X41801299Y-57448701D03*
X38569500Y-56592583D03*
%TO.N,/MUX_3_IN_1*%
X38350000Y-61800000D03*
X36187701Y-57937701D03*
%TO.N,/MUX_3_IN_2*%
X35200000Y-58662201D03*
X41700000Y-65200000D03*
%TO.N,/MUX_3_IN_3*%
X28950000Y-59224500D03*
X41500000Y-67700000D03*
X34382281Y-59236954D03*
%TO.N,/MUX_3_IN_4*%
X36119500Y-68082374D03*
X23000000Y-61190206D03*
X41172373Y-70419591D03*
%TO.N,/MUX_3_IN_5*%
X41167270Y-72956773D03*
X36119500Y-69081877D03*
X30101244Y-67881833D03*
%TO.N,/MUX_3_IN_6*%
X36119500Y-70081380D03*
X41197438Y-75480170D03*
X23488500Y-68035162D03*
%TO.N,/MUX_3_IN_7*%
X27850000Y-68774500D03*
X36119500Y-71100000D03*
X41167211Y-78037259D03*
%TO.N,/MUX_4_IN_1*%
X16539500Y-51200000D03*
X18438500Y-51200000D03*
X25344295Y-62973706D03*
%TO.N,/MUX_4_IN_2*%
X17650000Y-57750000D03*
X20811195Y-61588805D03*
X19788500Y-57911127D03*
%TO.N,/MUX_4_IN_3*%
X17261320Y-58738884D03*
X19732726Y-58909072D03*
%TO.N,/MUX_4_IN_4*%
X12589500Y-72854000D03*
X4775500Y-68850000D03*
X7124500Y-68850000D03*
%TO.N,/MUX_4_IN_5*%
X16471972Y-59351315D03*
X18992898Y-59692898D03*
%TO.N,/MUX_4_IN_6*%
X16539990Y-62355390D03*
X21564000Y-71379500D03*
X18438500Y-62404000D03*
%TO.N,/MUX_4_IN_7*%
X17283692Y-66812465D03*
X18564000Y-68454000D03*
%TO.N,/MUX_5_IN_1*%
X16559192Y-67861626D03*
X18438500Y-69754000D03*
%TO.N,/MUX_5_IN_2*%
X18438500Y-71404000D03*
X16539500Y-70471898D03*
%TO.N,/MUX_5_IN_3*%
X18438500Y-72604000D03*
X16539500Y-72604000D03*
%TO.N,/MUX_5_IN_4*%
X18944497Y-80379500D03*
%TO.N,/MUX_5_IN_5*%
X21688636Y-81056434D03*
X23713500Y-82284083D03*
%TO.N,/MUX_5_IN_6*%
X20722068Y-81604500D03*
%TO.N,/MUX_5_IN_7*%
X21642602Y-82054500D03*
X23272560Y-83238236D03*
%TO.N,/MUX_6_IN_1*%
X13954840Y-82865243D03*
X16496398Y-84083500D03*
%TO.N,/MUX_6_IN_2*%
X17577898Y-89627898D03*
X12800000Y-89850000D03*
%TO.N,/MUX_6_IN_3*%
X13449357Y-90696864D03*
X17463500Y-90620528D03*
%TO.N,/MUX_6_IN_4*%
X13650000Y-91675000D03*
X17463500Y-91635751D03*
%TO.N,/MUX_6_IN_5*%
X18188000Y-92865201D03*
X13850000Y-93900000D03*
%TO.N,/MUX_6_IN_6*%
X17018898Y-95681102D03*
X14114500Y-97489500D03*
%TO.N,/MUX_6_IN_7*%
X13400000Y-98450000D03*
X16013500Y-98214000D03*
%TO.N,/MP3_RX*%
X27564000Y-21154000D03*
X17914000Y-14654000D03*
X28247299Y-24537299D03*
X21896253Y-13811551D03*
%TO.N,/MP3_TX*%
X41248951Y-20275756D03*
X42575750Y-38225750D03*
X44064000Y-20354000D03*
%TO.N,GND*%
X23600000Y-31075000D03*
X20800000Y-24250000D03*
%TO.N,/MUX_1_S0*%
X18518149Y-37633649D03*
X15364000Y-37104000D03*
%TO.N,/MUX_1_S1*%
X16539500Y-41100000D03*
X33650000Y-38824500D03*
X18438500Y-41100000D03*
%TO.N,/MUX_1_S2*%
X16539989Y-43300609D03*
X18555010Y-42092689D03*
X35606466Y-38824500D03*
%TO.N,/MUX_2_S0*%
X18438500Y-48850000D03*
X30700000Y-48924500D03*
%TO.N,/MUX_2_S1*%
X18438500Y-49849503D03*
X32750000Y-48924500D03*
%TO.N,/MUX_2_S2*%
X34050000Y-48924500D03*
X19163000Y-52025500D03*
%TO.N,/MUX_3_S0*%
X21628231Y-57921132D03*
X30000000Y-59949000D03*
%TO.N,/MUX_3_S1*%
X31012051Y-59961548D03*
X21883652Y-58908250D03*
%TO.N,/MUX_3_S2*%
X32100000Y-60050000D03*
X21650000Y-59950000D03*
%TO.N,+3.3V*%
X48400000Y-23724500D03*
X46683010Y-109066990D03*
X35749898Y-30889898D03*
X43247500Y-21954000D03*
X44816990Y-109533010D03*
X50276208Y-102676208D03*
X50300000Y-74900000D03*
%TO.N,Net-(J19-Pin_17)*%
X40500000Y-93039500D03*
X23549362Y-80255934D03*
X38674500Y-80450000D03*
X36125500Y-80450000D03*
%TO.N,/MASTER_MUX_OUT*%
X45677299Y-104672701D03*
X29769520Y-29954500D03*
X42800858Y-106323500D03*
X24854622Y-26544622D03*
X49343500Y-38700000D03*
X29942531Y-31853500D03*
X24876181Y-23666181D03*
X20497253Y-14804000D03*
X22014000Y-14804000D03*
%TO.N,/MUX_4_S0*%
X37750000Y-57400000D03*
%TO.N,/MUX_4_S1*%
X38474500Y-58800000D03*
X42500000Y-54288200D03*
X42800000Y-57171500D03*
X43274500Y-60650000D03*
%TO.N,/MUX_4_S2*%
X43274500Y-62800000D03*
X37312299Y-59562299D03*
%TO.N,/MUX_MASTER_S0*%
X43275500Y-103800000D03*
X47562299Y-74212299D03*
X45174500Y-103800000D03*
%TO.N,/MUX_MASTER_S1*%
X43275500Y-99749503D03*
X47850000Y-78150000D03*
X45818259Y-99733662D03*
%TO.N,/MUX_MASTER_S2*%
X45624500Y-98753502D03*
X45950000Y-79314498D03*
X43275500Y-98750000D03*
%TO.N,/SLAVE_MUX_1_OUT*%
X19550000Y-44989502D03*
X17050000Y-105150000D03*
X11814500Y-104990450D03*
X10373127Y-44593667D03*
%TO.N,/SLAVE_MUX_2_OUT*%
X16013500Y-104475500D03*
X22103500Y-52262299D03*
X9794500Y-48042300D03*
X11814911Y-103975072D03*
%TO.N,/SLAVE_MUX_3_OUT*%
X20338000Y-69971305D03*
X12719500Y-68373546D03*
X11814460Y-102975570D03*
X22352246Y-100834055D03*
X25150000Y-69624500D03*
X20057155Y-99807155D03*
X25172815Y-67325735D03*
X16305056Y-103519467D03*
%TO.N,/SLAVE_MUX_4_OUT*%
X10793502Y-101262039D03*
X20788500Y-78500000D03*
X13622450Y-78279048D03*
%TO.N,/SLAVE_MUX_5_OUT*%
X25050000Y-89174500D03*
%TO.N,/vol_up*%
X38600000Y-30900000D03*
X39030812Y-36700000D03*
%TO.N,/vol_down*%
X16539500Y-38400000D03*
X38119500Y-37200000D03*
X40650000Y-37217498D03*
X18438500Y-38629919D03*
%TD*%
D25*
%TO.N,/MUX_1_IN_1*%
X36550000Y-37650000D02*
X35500000Y-37650000D01*
X44014000Y-23886000D02*
X44014000Y-31536000D01*
X44050000Y-16200000D02*
X45450000Y-17600000D01*
X48700000Y-18800000D02*
X48700000Y-22197999D01*
X46794000Y-10293999D02*
X44050000Y-13037999D01*
X45450000Y-22450000D02*
X44014000Y-23886000D01*
X30518198Y-38268198D02*
X29978247Y-38808149D01*
X43412250Y-32137750D02*
X43412250Y-39212250D01*
X37099503Y-38199503D02*
X38119500Y-38199503D01*
X43412250Y-39212250D02*
X42574500Y-40050000D01*
X29978247Y-38808149D02*
X23850000Y-38808149D01*
X35500000Y-37650000D02*
X31136396Y-37650000D01*
X48700000Y-22197999D02*
X48447999Y-22450000D01*
X44014000Y-31536000D02*
X43412250Y-32137750D01*
X44050000Y-13037999D02*
X44050000Y-16200000D01*
X31136396Y-37650000D02*
X30518198Y-38268198D01*
X47500000Y-17600000D02*
X48700000Y-18800000D01*
X48447999Y-22450000D02*
X45450000Y-22450000D01*
X45450000Y-17600000D02*
X47500000Y-17600000D01*
X36550000Y-37650000D02*
X37099503Y-38199503D01*
%TO.N,/MUX_1_IN_2*%
X21400000Y-38808149D02*
X22591851Y-38808149D01*
X23316851Y-39533149D02*
X29889643Y-39533149D01*
X44464000Y-25950000D02*
X44464000Y-31948250D01*
X49150000Y-17729999D02*
X49150000Y-22050000D01*
X44464000Y-24072396D02*
X44464000Y-25950000D01*
X43862250Y-32550000D02*
X43862250Y-39887750D01*
X22591851Y-38808149D02*
X23316851Y-39533149D01*
X29889643Y-39533149D02*
X31322792Y-38100000D01*
X37500000Y-39400000D02*
X38119500Y-39400000D01*
X45636396Y-22900000D02*
X44464000Y-24072396D01*
X48634395Y-22900000D02*
X45636396Y-22900000D01*
X42600000Y-41150000D02*
X42600000Y-42350000D01*
X36200000Y-38100000D02*
X36450000Y-38350000D01*
X44464000Y-31948250D02*
X43862250Y-32550000D01*
X43862250Y-39887750D02*
X42600000Y-41150000D01*
X46794000Y-15373999D02*
X49150000Y-17729999D01*
X31322792Y-38100000D02*
X36200000Y-38100000D01*
X49150000Y-22384395D02*
X48634395Y-22900000D01*
X49150000Y-22050000D02*
X49150000Y-22400000D01*
X36450000Y-38350000D02*
X37500000Y-39400000D01*
X49150000Y-22050000D02*
X49150000Y-22384395D01*
%TO.N,/MUX_1_IN_3*%
X33185102Y-31714898D02*
X40760602Y-31714898D01*
X43564000Y-23683999D02*
X46794000Y-20453999D01*
X31962299Y-32937701D02*
X33185102Y-31714898D01*
X40760602Y-31714898D02*
X41125500Y-31350000D01*
X43564000Y-30760500D02*
X43564000Y-23683999D01*
X43024500Y-31300000D02*
X43564000Y-30760500D01*
%TO.N,/MUX_1_IN_4*%
X20589500Y-41839500D02*
X18839000Y-43590000D01*
X42300000Y-45480598D02*
X42000049Y-45780549D01*
X44914000Y-32448250D02*
X44312250Y-33050000D01*
X44312250Y-33050000D02*
X44312250Y-39200000D01*
X43450000Y-42525305D02*
X42300000Y-43675305D01*
X44312250Y-40237750D02*
X43450000Y-41100000D01*
X43450000Y-41100000D02*
X43450000Y-42525305D01*
X42300000Y-43950000D02*
X42300000Y-45480598D01*
X44914000Y-27414000D02*
X44914000Y-29000000D01*
X39250000Y-42500000D02*
X37865000Y-41115000D01*
X44312250Y-39200000D02*
X44312250Y-40237750D01*
X39600000Y-45050000D02*
X39250000Y-44700000D01*
X42300000Y-43675305D02*
X42300000Y-43950000D01*
X20879000Y-41550000D02*
X20589500Y-41839500D01*
X37865000Y-41115000D02*
X21314000Y-41115000D01*
X39250000Y-44700000D02*
X39250000Y-42500000D01*
X46794000Y-25534000D02*
X44914000Y-27414000D01*
X44914000Y-29000000D02*
X44914000Y-32448250D01*
X21314000Y-41115000D02*
X18839000Y-43590000D01*
%TO.N,/MUX_1_IN_5*%
X40955701Y-50002000D02*
X39982299Y-50002000D01*
X37756802Y-47776503D02*
X37756802Y-42993198D01*
X45204396Y-43000000D02*
X43704396Y-44500000D01*
X47600000Y-43000000D02*
X45204396Y-43000000D01*
X30124000Y-42465000D02*
X28999000Y-43590000D01*
X39982299Y-50002000D02*
X37756802Y-47776503D01*
X48619000Y-41981000D02*
X48619000Y-32439000D01*
X37756802Y-42993198D02*
X37228604Y-42465000D01*
X47600000Y-43000000D02*
X48619000Y-41981000D01*
X43704396Y-44500000D02*
X43704396Y-47253305D01*
X37228604Y-42465000D02*
X30124000Y-42465000D01*
X43704396Y-47253305D02*
X40955701Y-50002000D01*
X48619000Y-32439000D02*
X46794000Y-30614000D01*
%TO.N,/MUX_1_IN_6*%
X42800000Y-46005903D02*
X41343903Y-47462000D01*
X44762250Y-37725750D02*
X44762250Y-40637750D01*
X42800000Y-45800000D02*
X42800000Y-46005903D01*
X41343903Y-47462000D02*
X39962000Y-47462000D01*
X38800000Y-42686396D02*
X37678604Y-41565000D01*
X46794000Y-35694000D02*
X44762250Y-37725750D01*
X38800000Y-46300000D02*
X38800000Y-42686396D01*
X37678604Y-41565000D02*
X23404000Y-41565000D01*
X43636396Y-42975305D02*
X42800000Y-43811701D01*
X42800000Y-43811701D02*
X42800000Y-45800000D01*
X43900000Y-41500000D02*
X43900000Y-42711701D01*
X44762250Y-40637750D02*
X43900000Y-41500000D01*
X42800000Y-45800000D02*
X42800000Y-46100000D01*
X39962000Y-47462000D02*
X38800000Y-46300000D01*
X23404000Y-41565000D02*
X21379000Y-43590000D01*
X43900000Y-42711701D02*
X43636396Y-42975305D01*
%TO.N,/MUX_1_IN_7*%
X28034000Y-42015000D02*
X26459000Y-43590000D01*
X43250000Y-44318000D02*
X43250000Y-46580503D01*
X46794000Y-40774000D02*
X43250000Y-44318000D01*
X38350000Y-42950000D02*
X37415000Y-42015000D01*
X37415000Y-42015000D02*
X28034000Y-42015000D01*
X43250000Y-46580503D02*
X42060984Y-47769519D01*
X38350000Y-46874599D02*
X38350000Y-42950000D01*
X39273905Y-47798504D02*
X38350000Y-46874599D01*
%TO.N,/MUX_2_IN_1*%
X42506850Y-50141150D02*
X41841150Y-50141150D01*
X46794000Y-45854000D02*
X42506850Y-50141150D01*
X36950000Y-44950000D02*
X25353000Y-44950000D01*
X25353000Y-44950000D02*
X23919000Y-46384000D01*
X39327851Y-50368068D02*
X37200852Y-48241069D01*
X39327851Y-50372150D02*
X39327851Y-50368068D01*
%TO.N,/MUX_2_IN_2*%
X39192000Y-52542000D02*
X45186000Y-52542000D01*
X34850000Y-48200000D02*
X39192000Y-52542000D01*
X21379000Y-46384000D02*
X21379000Y-48178503D01*
X21379000Y-48178503D02*
X22150000Y-48949503D01*
X30000000Y-48200000D02*
X34850000Y-48200000D01*
X45186000Y-52542000D02*
X46794000Y-50934000D01*
X29250497Y-48949503D02*
X30000000Y-48200000D01*
X22150000Y-48949503D02*
X29250497Y-48949503D01*
%TO.N,/MUX_2_IN_3*%
X35442704Y-47750000D02*
X30365000Y-47750000D01*
X39013705Y-51321001D02*
X35442704Y-47750000D01*
X30365000Y-47750000D02*
X28999000Y-46384000D01*
X46794000Y-56013999D02*
X44046501Y-53266500D01*
X44046501Y-53266500D02*
X42000000Y-53266500D01*
%TO.N,/MUX_2_IN_4*%
X36813604Y-50800000D02*
X39000000Y-52986396D01*
X40782001Y-55082706D02*
X41449295Y-55750000D01*
X21700000Y-50800000D02*
X36813604Y-50800000D01*
X43313604Y-55750000D02*
X46794000Y-59230396D01*
X20250000Y-52250000D02*
X21700000Y-50800000D01*
X41449295Y-55750000D02*
X43313604Y-55750000D01*
X39982299Y-55082000D02*
X40782001Y-55082000D01*
X40782001Y-55082000D02*
X40782001Y-55082706D01*
X39000000Y-54099701D02*
X39982299Y-55082000D01*
X39000000Y-52986396D02*
X39000000Y-54099701D01*
X46794000Y-59230396D02*
X46794000Y-61093999D01*
%TO.N,/MUX_2_IN_5*%
X28999000Y-54004000D02*
X31303000Y-51700000D01*
X43212700Y-55012700D02*
X46050000Y-57850000D01*
X38569500Y-55405348D02*
X37750000Y-54585848D01*
X31303000Y-51700000D02*
X36440812Y-51700000D01*
X46650000Y-58450000D02*
X46050000Y-57850000D01*
X36440812Y-51700000D02*
X37750000Y-53009188D01*
X37750000Y-53009188D02*
X37750000Y-53700000D01*
X37750000Y-54585848D02*
X37750000Y-53900000D01*
X48619000Y-59369000D02*
X47700000Y-58450000D01*
X47700000Y-58450000D02*
X46650000Y-58450000D01*
X41737300Y-55012700D02*
X43212700Y-55012700D01*
X46794000Y-66173999D02*
X48619000Y-64348999D01*
X48619000Y-64348999D02*
X48619000Y-59369000D01*
X37750000Y-53900000D02*
X37750000Y-53700000D01*
%TO.N,/MUX_2_IN_6*%
X22000000Y-51250000D02*
X36627208Y-51250000D01*
X21379000Y-54004000D02*
X21379000Y-51871000D01*
X42100000Y-62900000D02*
X42100000Y-58772000D01*
X42100000Y-63287201D02*
X42100000Y-62900000D01*
X38550000Y-53172792D02*
X38550000Y-54286097D01*
X46794000Y-71254000D02*
X44350000Y-68810000D01*
X21379000Y-51871000D02*
X22000000Y-51250000D01*
X43750000Y-64250000D02*
X43062799Y-64250000D01*
X40950000Y-57622000D02*
X40400000Y-57622000D01*
X43062799Y-64250000D02*
X42100000Y-63287201D01*
X39294000Y-55030097D02*
X39294000Y-56933701D01*
X38550000Y-54286097D02*
X39294000Y-55030097D01*
X44350000Y-64850000D02*
X43750000Y-64250000D01*
X40400000Y-57622000D02*
X39982299Y-57622000D01*
X36627208Y-51250000D02*
X38550000Y-53172792D01*
X39294000Y-56933701D02*
X39982299Y-57622000D01*
X42100000Y-58772000D02*
X41439000Y-58111000D01*
X44350000Y-68810000D02*
X44350000Y-64850000D01*
X41439000Y-58111000D02*
X40950000Y-57622000D01*
%TO.N,/MUX_2_IN_7*%
X42550000Y-63100805D02*
X43099195Y-63650000D01*
X44800000Y-67950000D02*
X46050000Y-69200000D01*
X47320940Y-69200000D02*
X48619000Y-70498060D01*
X38569500Y-56592583D02*
X37105917Y-55129000D01*
X43099195Y-63650000D02*
X43900000Y-63650000D01*
X41801299Y-57448701D02*
X42550000Y-58197402D01*
X48619000Y-72131000D02*
X46794000Y-73956000D01*
X44800000Y-64550000D02*
X44800000Y-67950000D01*
X48619000Y-70498060D02*
X48619000Y-72131000D01*
X46050000Y-69200000D02*
X47320940Y-69200000D01*
X37105917Y-55129000D02*
X27584000Y-55129000D01*
X46794000Y-73956000D02*
X46794000Y-76334000D01*
X43900000Y-63650000D02*
X44800000Y-64550000D01*
X27584000Y-55129000D02*
X26459000Y-54004000D01*
X42550000Y-58197402D02*
X42550000Y-63100805D01*
%TO.N,/MUX_3_IN_1*%
X44969000Y-73319000D02*
X43900000Y-72250000D01*
X41068403Y-62892000D02*
X39442000Y-62892000D01*
X43900000Y-65723597D02*
X41068403Y-62892000D01*
X43900000Y-72250000D02*
X43900000Y-66300000D01*
X39442000Y-62892000D02*
X38350000Y-61800000D01*
X46794000Y-81414000D02*
X44969000Y-79589000D01*
X25312701Y-57937701D02*
X23919000Y-56544000D01*
X36187701Y-57937701D02*
X25312701Y-57937701D01*
X44969000Y-79589000D02*
X44969000Y-73319000D01*
X43900000Y-66300000D02*
X43900000Y-65723597D01*
%TO.N,/MUX_3_IN_2*%
X45619000Y-83850000D02*
X44519000Y-82750000D01*
X44519000Y-73869000D02*
X44519000Y-82750000D01*
X21379000Y-56544000D02*
X23335000Y-58500000D01*
X43450000Y-72800000D02*
X44519000Y-73869000D01*
X43450000Y-66950000D02*
X43450000Y-72800000D01*
X46794000Y-86494000D02*
X46794000Y-84444000D01*
X27850000Y-58500000D02*
X35037799Y-58500000D01*
X41700000Y-65200000D02*
X43450000Y-66950000D01*
X46794000Y-84444000D02*
X46200000Y-83850000D01*
X35037799Y-58500000D02*
X35200000Y-58662201D01*
X46200000Y-83850000D02*
X45619000Y-83850000D01*
X23335000Y-58500000D02*
X27850000Y-58500000D01*
%TO.N,/MUX_3_IN_3*%
X43000000Y-69200000D02*
X43000000Y-72986396D01*
X46794000Y-91574000D02*
X46794000Y-89544000D01*
X43000000Y-72986396D02*
X43981802Y-73968198D01*
X41500000Y-67700000D02*
X43000000Y-69200000D01*
X34369827Y-59224500D02*
X34382281Y-59236954D01*
X44969000Y-87719000D02*
X44969000Y-83987198D01*
X43981802Y-73968198D02*
X43981802Y-83000000D01*
X28950000Y-59224500D02*
X34369827Y-59224500D01*
X46794000Y-89544000D02*
X44969000Y-87719000D01*
X44969000Y-83987198D02*
X43981802Y-83000000D01*
%TO.N,/MUX_3_IN_4*%
X46794000Y-96654000D02*
X46794000Y-94594000D01*
X30200000Y-66955991D02*
X31047004Y-67802996D01*
X29275991Y-62850000D02*
X30200000Y-63774009D01*
X30200000Y-63774009D02*
X30200000Y-64700000D01*
X31047004Y-67802996D02*
X31179120Y-67935111D01*
X43531802Y-74154594D02*
X42550000Y-73172792D01*
X24586100Y-61190206D02*
X26245894Y-62850000D01*
X46794000Y-94594000D02*
X44519000Y-92319000D01*
X44519000Y-92319000D02*
X44519000Y-84173594D01*
X26245894Y-62850000D02*
X29275991Y-62850000D01*
X42550000Y-73172792D02*
X42550000Y-71797218D01*
X23000000Y-61190206D02*
X24586100Y-61190206D01*
X43531802Y-83186396D02*
X43531802Y-74154594D01*
X44519000Y-84173594D02*
X43531802Y-83186396D01*
X31326382Y-68082374D02*
X31047004Y-67802996D01*
X42550000Y-71797218D02*
X41172373Y-70419591D01*
X30200000Y-64700000D02*
X30200000Y-66955991D01*
X36119500Y-68082374D02*
X31326382Y-68082374D01*
%TO.N,/MUX_3_IN_5*%
X43081802Y-74340990D02*
X43081802Y-83372792D01*
X44900000Y-93381000D02*
X44069000Y-92550000D01*
X30101244Y-67881833D02*
X30879022Y-68659611D01*
X35631877Y-69081877D02*
X35209611Y-68659611D01*
X46794000Y-101734001D02*
X44900000Y-99840001D01*
X44900000Y-99840001D02*
X44900000Y-93381000D01*
X41167270Y-72956773D02*
X41697585Y-72956773D01*
X30879022Y-68659611D02*
X35230443Y-68659611D01*
X41697585Y-72956773D02*
X43081802Y-74340990D01*
X44069000Y-84359990D02*
X44069000Y-92550000D01*
X43081802Y-83372792D02*
X44069000Y-84359990D01*
X36119500Y-69081877D02*
X35631877Y-69081877D01*
%TO.N,/MUX_3_IN_6*%
X27548460Y-68050735D02*
X27624195Y-67975000D01*
X43619000Y-92869000D02*
X44450000Y-93700000D01*
X23504073Y-68050735D02*
X27548460Y-68050735D01*
X42631802Y-83712802D02*
X43619000Y-84700000D01*
X36119500Y-70081380D02*
X35197269Y-70081380D01*
X27624195Y-67975000D02*
X29025000Y-67975000D01*
X34315889Y-69200000D02*
X30250000Y-69200000D01*
X44450000Y-104470001D02*
X46794000Y-106814001D01*
X23488500Y-68035162D02*
X23504073Y-68050735D01*
X35197269Y-70081380D02*
X34315889Y-69200000D01*
X44450000Y-93700000D02*
X44450000Y-104470001D01*
X30250000Y-69200000D02*
X29025000Y-67975000D01*
X42631802Y-76914534D02*
X42631802Y-83712802D01*
X43619000Y-84700000D02*
X43619000Y-92869000D01*
X41197438Y-75480170D02*
X42631802Y-76914534D01*
%TO.N,/MUX_3_IN_7*%
X41167211Y-78037259D02*
X42181802Y-79051850D01*
X44000000Y-104900000D02*
X44000000Y-104200000D01*
X42181802Y-83899198D02*
X43169000Y-84886396D01*
X31300000Y-69650000D02*
X33950000Y-69650000D01*
X28725500Y-69650000D02*
X31300000Y-69650000D01*
X27850000Y-68774500D02*
X28725500Y-69650000D01*
X33950000Y-69650000D02*
X34700000Y-70400000D01*
X44750000Y-108300000D02*
X44750000Y-105650000D01*
X35400000Y-71100000D02*
X36119500Y-71100000D01*
X44750000Y-105650000D02*
X44000000Y-104900000D01*
X43169000Y-93055396D02*
X44000000Y-93886396D01*
X46794000Y-111894001D02*
X46794000Y-110344000D01*
X44000000Y-93886396D02*
X44000000Y-104200000D01*
X42181802Y-79051850D02*
X42181802Y-83899198D01*
X34700000Y-70400000D02*
X35400000Y-71100000D01*
X46794000Y-110344000D02*
X44750000Y-108300000D01*
X43169000Y-84886396D02*
X43169000Y-93055396D01*
%TO.N,/MUX_4_IN_1*%
X14729990Y-50154000D02*
X13629990Y-49054000D01*
X19660000Y-52750000D02*
X19880000Y-52970000D01*
X11869000Y-31258999D02*
X11664000Y-31054000D01*
X13629990Y-42246404D02*
X12606630Y-41223044D01*
X12606630Y-41223044D02*
X12606630Y-36737442D01*
X11664000Y-31054000D02*
X11664000Y-13264000D01*
X20200000Y-53290000D02*
X19880000Y-52970000D01*
X24285294Y-61914706D02*
X25344295Y-62973706D01*
X16539500Y-51175799D02*
X16539500Y-51200000D01*
X11664000Y-13264000D02*
X8694000Y-10294000D01*
X20200000Y-57297322D02*
X20200000Y-53290000D01*
X18750000Y-52750000D02*
X19660000Y-52750000D01*
X13629990Y-49054000D02*
X13629990Y-42246404D01*
X18438500Y-52438500D02*
X18750000Y-52750000D01*
X20376339Y-57473661D02*
X20907726Y-58005048D01*
X16539500Y-51175799D02*
X15517701Y-50154000D01*
X11869000Y-35999812D02*
X11869000Y-31258999D01*
X12606630Y-36737442D02*
X11869000Y-35999812D01*
X20907726Y-60660031D02*
X22162401Y-61914706D01*
X20376339Y-57473661D02*
X20200000Y-57297322D01*
X15517701Y-50154000D02*
X14729990Y-50154000D01*
X20907726Y-58005048D02*
X20907726Y-60660031D01*
X18438500Y-51200000D02*
X18438500Y-52438500D01*
X22162401Y-61914706D02*
X24285294Y-61914706D01*
%TO.N,/MUX_4_IN_2*%
X11214000Y-31454000D02*
X11214000Y-17894000D01*
X16694000Y-56765882D02*
X16694000Y-56650000D01*
X14567990Y-52542000D02*
X13179990Y-51154000D01*
X12135103Y-36902311D02*
X11419000Y-36186208D01*
X11214000Y-17894000D02*
X8694000Y-15374000D01*
X20457726Y-59942274D02*
X20450000Y-59950000D01*
X15365701Y-52542000D02*
X14567990Y-52542000D01*
X20450000Y-59950000D02*
X20450000Y-61000000D01*
X20450000Y-61227610D02*
X20811195Y-61588805D01*
X16694000Y-56794000D02*
X17650000Y-57750000D01*
X11419000Y-31659000D02*
X11214000Y-31454000D01*
X13179990Y-51154000D02*
X13179990Y-42432800D01*
X20457726Y-58580353D02*
X20457726Y-59942274D01*
X16694000Y-53870299D02*
X15365701Y-52542000D01*
X19788500Y-57911127D02*
X20457726Y-58580353D01*
X20450000Y-61000000D02*
X20450000Y-61227610D01*
X12135103Y-41387913D02*
X12135103Y-36902311D01*
X11419000Y-36186208D02*
X11419000Y-31659000D01*
X16694000Y-56650000D02*
X16694000Y-56794000D01*
X16694000Y-56650000D02*
X16694000Y-53870299D01*
X13179990Y-42432800D02*
X12135103Y-41387913D01*
%TO.N,/MUX_4_IN_3*%
X11664000Y-37067604D02*
X10969000Y-36372604D01*
X13714000Y-54254000D02*
X13714000Y-52772020D01*
X15365701Y-55082000D02*
X14542000Y-55082000D01*
X25064000Y-63718009D02*
X23799991Y-62454000D01*
X27584000Y-65289000D02*
X25993009Y-65289000D01*
X10969000Y-31845396D02*
X10764000Y-31640396D01*
X14542000Y-55082000D02*
X13714000Y-54254000D01*
X10764000Y-22524000D02*
X8694000Y-20454000D01*
X16244000Y-55960299D02*
X15365701Y-55082000D01*
X13714000Y-52772020D02*
X12564000Y-51622020D01*
X19732726Y-61534934D02*
X20651792Y-62454000D01*
X20651792Y-62454000D02*
X22350000Y-62454000D01*
X10764000Y-31640396D02*
X10764000Y-30154000D01*
X11664000Y-41553206D02*
X11664000Y-37067604D01*
X10764000Y-30154000D02*
X10764000Y-22524000D01*
X16244000Y-57721564D02*
X16244000Y-55960299D01*
X23799991Y-62454000D02*
X22350000Y-62454000D01*
X12564000Y-51622020D02*
X12564000Y-42453206D01*
X25064000Y-64359991D02*
X25064000Y-63718009D01*
X28999000Y-66704000D02*
X27584000Y-65289000D01*
X19732726Y-58909072D02*
X19732726Y-61534934D01*
X12564000Y-42453206D02*
X11664000Y-41553206D01*
X17261320Y-58738884D02*
X16244000Y-57721564D01*
X10969000Y-36372604D02*
X10969000Y-31845396D01*
X25993009Y-65289000D02*
X25064000Y-64359991D01*
%TO.N,/MUX_4_IN_4*%
X6400000Y-27828000D02*
X8694000Y-25534000D01*
X5050000Y-68575500D02*
X5050000Y-44650000D01*
X12589500Y-72854000D02*
X12589500Y-70979500D01*
X10464000Y-68854000D02*
X7444000Y-68854000D01*
X4775500Y-68850000D02*
X5050000Y-68575500D01*
X5050000Y-44650000D02*
X6400000Y-43300000D01*
X7444000Y-68854000D02*
X7128500Y-68854000D01*
X7128500Y-68854000D02*
X7124500Y-68850000D01*
X6400000Y-43300000D02*
X6400000Y-27828000D01*
X12589500Y-70979500D02*
X10464000Y-68854000D01*
%TO.N,/MUX_4_IN_5*%
X15921850Y-58178150D02*
X15397701Y-57654000D01*
X12114000Y-42771277D02*
X11214000Y-41871277D01*
X18965893Y-61404497D02*
X20465396Y-62904000D01*
X26750000Y-68900000D02*
X28999000Y-71149000D01*
X14614299Y-57654000D02*
X13264000Y-56303701D01*
X10519000Y-36559000D02*
X10519000Y-32439000D01*
X15397701Y-57654000D02*
X14614299Y-57654000D01*
X22764000Y-63954000D02*
X22764000Y-64954000D01*
X18965893Y-61404497D02*
X18965893Y-59719903D01*
X10519000Y-32439000D02*
X8694000Y-30614000D01*
X16471972Y-58728272D02*
X15921850Y-58178150D01*
X20465396Y-62904000D02*
X21714000Y-62904000D01*
X16471972Y-59351315D02*
X16471972Y-58728272D01*
X13264000Y-56303701D02*
X13264000Y-52958416D01*
X11214000Y-37254000D02*
X10519000Y-36559000D01*
X23313195Y-68900000D02*
X26750000Y-68900000D01*
X22764000Y-68350805D02*
X23313195Y-68900000D01*
X11214000Y-41871277D02*
X11214000Y-37254000D01*
X22764000Y-67250000D02*
X22764000Y-64954000D01*
X28999000Y-71149000D02*
X28999000Y-74324000D01*
X12114000Y-51808416D02*
X12114000Y-42771277D01*
X18965893Y-59719903D02*
X18992898Y-59692898D01*
X22764000Y-67250000D02*
X22764000Y-68350805D01*
X21714000Y-62904000D02*
X22764000Y-63954000D01*
X13264000Y-52958416D02*
X12114000Y-51808416D01*
%TO.N,/MUX_4_IN_6*%
X12720396Y-53051208D02*
X11664000Y-51994812D01*
X16244000Y-62059400D02*
X16539990Y-62355390D01*
X16244000Y-61040299D02*
X16244000Y-62059400D01*
X10764000Y-37764000D02*
X8694000Y-35694000D01*
X15365701Y-60162000D02*
X16244000Y-61040299D01*
X11664000Y-43104000D02*
X10764000Y-42204000D01*
X20712292Y-71379500D02*
X19613500Y-70280708D01*
X10764000Y-42204000D02*
X10764000Y-37764000D01*
X11664000Y-51994812D02*
X11664000Y-43104000D01*
X19613500Y-70280708D02*
X19613500Y-67790500D01*
X12720396Y-58310396D02*
X12720396Y-53051208D01*
X14572000Y-60162000D02*
X12720396Y-58310396D01*
X20254000Y-66950000D02*
X20254000Y-63329000D01*
X19613500Y-67790500D02*
X20254000Y-67150000D01*
X21564000Y-71379500D02*
X20712292Y-71379500D01*
X19329000Y-62404000D02*
X18438500Y-62404000D01*
X20254000Y-67150000D02*
X20254000Y-66950000D01*
X20254000Y-63329000D02*
X19329000Y-62404000D01*
X15365701Y-60162000D02*
X14572000Y-60162000D01*
%TO.N,/MUX_4_IN_7*%
X8694000Y-40774001D02*
X11097197Y-43177198D01*
X12270396Y-60410396D02*
X14562000Y-62702000D01*
X19163500Y-69053500D02*
X19163500Y-70467104D01*
X11097197Y-52064405D02*
X12270396Y-53237604D01*
X24239000Y-72104000D02*
X26459000Y-74324000D01*
X19163500Y-70467104D02*
X20800396Y-72104000D01*
X17283692Y-66103286D02*
X17283692Y-66812465D01*
X18564000Y-68454000D02*
X19163500Y-69053500D01*
X16244000Y-65063594D02*
X17283692Y-66103286D01*
X14562000Y-62702000D02*
X15862002Y-62702000D01*
X20800396Y-72104000D02*
X24239000Y-72104000D01*
X16244000Y-63083998D02*
X16244000Y-65063594D01*
X15862002Y-62702000D02*
X16244000Y-63083998D01*
X12270396Y-53237604D02*
X12270396Y-60410396D01*
X11097197Y-43177198D02*
X11097197Y-52064405D01*
%TO.N,/MUX_5_IN_1*%
X11820396Y-62512396D02*
X11820396Y-53424000D01*
X20614000Y-72554000D02*
X23739991Y-72554000D01*
X10519000Y-52122604D02*
X10519000Y-47679001D01*
X14550000Y-65242000D02*
X11820396Y-62512396D01*
X25044000Y-73858009D02*
X25044000Y-75739000D01*
X16559192Y-66435491D02*
X15365701Y-65242000D01*
X16559192Y-67861626D02*
X16559192Y-66435491D01*
X15365701Y-65242000D02*
X14550000Y-65242000D01*
X25044000Y-75739000D02*
X23919000Y-76864000D01*
X18438500Y-70404000D02*
X18464000Y-70404000D01*
X18464000Y-70404000D02*
X20614000Y-72554000D01*
X10519000Y-47679001D02*
X8694000Y-45854001D01*
X18438500Y-69754000D02*
X18438500Y-70404000D01*
X23739991Y-72554000D02*
X25044000Y-73858009D01*
X11820396Y-53424000D02*
X10519000Y-52122604D01*
%TO.N,/MUX_5_IN_2*%
X18805396Y-71404000D02*
X18438500Y-71404000D01*
X11370396Y-62698792D02*
X13850000Y-65178396D01*
X22504000Y-73858009D02*
X21649991Y-73004000D01*
X11370396Y-53610396D02*
X11370396Y-62698792D01*
X14582299Y-67782000D02*
X15365701Y-67782000D01*
X15365701Y-67782000D02*
X16539500Y-68955799D01*
X16539500Y-68955799D02*
X16539500Y-70471898D01*
X21379000Y-76864000D02*
X22504000Y-75739000D01*
X22504000Y-75739000D02*
X22504000Y-73858009D01*
X13850000Y-67049701D02*
X14582299Y-67782000D01*
X13850000Y-65178396D02*
X13850000Y-67049701D01*
X21649991Y-73004000D02*
X20405396Y-73004000D01*
X20405396Y-73004000D02*
X18805396Y-71404000D01*
X8694000Y-50934001D02*
X11370396Y-53610396D01*
%TO.N,/MUX_5_IN_3*%
X20681434Y-79431434D02*
X26431566Y-79431434D01*
X14700000Y-70322000D02*
X14582000Y-70322000D01*
X18438500Y-72604000D02*
X19369000Y-72604000D01*
X16539500Y-71495799D02*
X15365701Y-70322000D01*
X26431566Y-79431434D02*
X28999000Y-76864000D01*
X20064000Y-78814000D02*
X20681434Y-79431434D01*
X14582299Y-70322000D02*
X14700000Y-70322000D01*
X20064000Y-73299000D02*
X20064000Y-78814000D01*
X13894000Y-69633701D02*
X14582299Y-70322000D01*
X10814000Y-58134000D02*
X10814000Y-62778792D01*
X16539500Y-72604000D02*
X16539500Y-71495799D01*
X13894000Y-67730097D02*
X13894000Y-69633701D01*
X8694000Y-56014000D02*
X10814000Y-58134000D01*
X13400000Y-65364792D02*
X13400000Y-67236097D01*
X19369000Y-72604000D02*
X20064000Y-73299000D01*
X10814000Y-62778792D02*
X13400000Y-65364792D01*
X13400000Y-67236097D02*
X13894000Y-67730097D01*
X15365701Y-70322000D02*
X14700000Y-70322000D01*
%TO.N,/MUX_5_IN_4*%
X8694000Y-61295188D02*
X12950000Y-65551188D01*
X13444000Y-69820097D02*
X13820802Y-70196899D01*
X15372000Y-72862000D02*
X16694000Y-74184000D01*
X8694000Y-61094000D02*
X8694000Y-61295188D01*
X13444000Y-67916493D02*
X13444000Y-69820097D01*
X14582299Y-72862000D02*
X15372000Y-72862000D01*
X16694000Y-74184000D02*
X16694000Y-77856085D01*
X16694000Y-77856085D02*
X18944497Y-80106582D01*
X18944497Y-80106582D02*
X18944497Y-80379500D01*
X12950000Y-65551188D02*
X12950000Y-67422493D01*
X13820802Y-70196899D02*
X13820802Y-72100503D01*
X12950000Y-67422493D02*
X13444000Y-67916493D01*
X13820802Y-72100503D02*
X14582299Y-72862000D01*
%TO.N,/MUX_5_IN_5*%
X21688636Y-81056434D02*
X21511702Y-80879500D01*
X26799083Y-82284083D02*
X23713500Y-82284083D01*
X15365701Y-75402000D02*
X14964000Y-75402000D01*
X14964000Y-75402000D02*
X14582299Y-75402000D01*
X20064000Y-81104000D02*
X18500396Y-81104000D01*
X28999000Y-84484000D02*
X26799083Y-82284083D01*
X13314000Y-74133701D02*
X13314000Y-73504000D01*
X13314000Y-70794000D02*
X13314000Y-73504000D01*
X17957198Y-80560802D02*
X17957198Y-79755679D01*
X8694000Y-66174000D02*
X13314000Y-70794000D01*
X17957198Y-79755679D02*
X16244000Y-78042481D01*
X21511702Y-80879500D02*
X20288500Y-80879500D01*
X20288500Y-80879500D02*
X20064000Y-81104000D01*
X14582299Y-75402000D02*
X13314000Y-74133701D01*
X14964000Y-75402000D02*
X14562000Y-75402000D01*
X18500396Y-81104000D02*
X17957198Y-80560802D01*
X16244000Y-78042481D02*
X16244000Y-76280299D01*
X16244000Y-76280299D02*
X15365701Y-75402000D01*
%TO.N,/MUX_5_IN_6*%
X15597123Y-78032000D02*
X16914000Y-79348877D01*
X9154000Y-71254000D02*
X13400000Y-75500000D01*
X18364500Y-81604500D02*
X20722068Y-81604500D01*
X16914000Y-79348877D02*
X16914000Y-80154000D01*
X8694000Y-71254000D02*
X9154000Y-71254000D01*
X13400000Y-77032000D02*
X14400000Y-78032000D01*
X13400000Y-75500000D02*
X13400000Y-77032000D01*
X16914000Y-80154000D02*
X18364500Y-81604500D01*
X14400000Y-78032000D02*
X15597123Y-78032000D01*
%TO.N,/MUX_5_IN_7*%
X16531551Y-81021551D02*
X17839000Y-82329000D01*
X22504000Y-84704000D02*
X22504000Y-84006796D01*
X26459000Y-84484000D02*
X25334000Y-85609000D01*
X17839000Y-82329000D02*
X20064000Y-82329000D01*
X23409000Y-85609000D02*
X22504000Y-84704000D01*
X13032000Y-80672000D02*
X16182000Y-80672000D01*
X8694000Y-76334000D02*
X13032000Y-80672000D01*
X22504000Y-84006796D02*
X23272560Y-83238236D01*
X16182000Y-80672000D02*
X16531551Y-81021551D01*
X20064000Y-82329000D02*
X21368102Y-82329000D01*
X25334000Y-85609000D02*
X23409000Y-85609000D01*
X21368102Y-82329000D02*
X21642602Y-82054500D01*
%TO.N,/MUX_6_IN_1*%
X16424475Y-84474475D02*
X17500000Y-85550000D01*
X12503597Y-81414000D02*
X13954840Y-82865243D01*
X17749000Y-85799000D02*
X22694000Y-85799000D01*
X22694000Y-85799000D02*
X23919000Y-87024000D01*
X17500000Y-85550000D02*
X17749000Y-85799000D01*
X16496398Y-84546398D02*
X17500000Y-85550000D01*
X16496398Y-84083500D02*
X16496398Y-84546398D01*
X8694000Y-81414000D02*
X12503597Y-81414000D01*
%TO.N,/MUX_6_IN_2*%
X11862499Y-89662501D02*
X12031267Y-89831268D01*
X12049998Y-89850000D02*
X12800000Y-89850000D01*
X18775102Y-89627898D02*
X21379000Y-87024000D01*
X17577898Y-89627898D02*
X18775102Y-89627898D01*
X11862499Y-89662501D02*
X12049998Y-89850000D01*
X8694000Y-86494001D02*
X11862499Y-89662501D01*
%TO.N,/MUX_6_IN_3*%
X27573000Y-88450000D02*
X20589396Y-88450000D01*
X28999000Y-87024000D02*
X27573000Y-88450000D01*
X12572220Y-91574001D02*
X13449357Y-90696864D01*
X18418868Y-90620528D02*
X17463500Y-90620528D01*
X20589396Y-88450000D02*
X18418868Y-90620528D01*
X8694000Y-91574001D02*
X12572220Y-91574001D01*
%TO.N,/MUX_6_IN_4*%
X13650000Y-91698001D02*
X13650000Y-91675000D01*
X17463500Y-91635751D02*
X17463500Y-93268500D01*
X17463500Y-93268500D02*
X18839000Y-94644000D01*
X8694000Y-96654001D02*
X13650000Y-91698001D01*
%TO.N,/MUX_6_IN_5*%
X12089000Y-100991846D02*
X12089000Y-98099299D01*
X8947039Y-101987039D02*
X11093807Y-101987039D01*
X12669150Y-97519150D02*
X13800000Y-96388299D01*
X13800000Y-96388299D02*
X13800000Y-93950000D01*
X12089000Y-98099299D02*
X12669150Y-97519150D01*
X8694000Y-101734000D02*
X8947039Y-101987039D01*
X13800000Y-93950000D02*
X13850000Y-93900000D01*
X12200000Y-97988299D02*
X12669150Y-97519150D01*
X27220201Y-92865201D02*
X28999000Y-94644000D01*
X11093807Y-101987039D02*
X12089000Y-100991846D01*
X18188000Y-92865201D02*
X27220201Y-92865201D01*
%TO.N,/MUX_6_IN_6*%
X21379000Y-94644000D02*
X20486500Y-95536500D01*
X20254000Y-95769000D02*
X17106796Y-95769000D01*
X8694000Y-106814000D02*
X11700000Y-106814000D01*
X12539000Y-98285696D02*
X12937348Y-97887348D01*
X12539000Y-105975000D02*
X12539000Y-98285696D01*
X12650000Y-98174695D02*
X12937348Y-97887348D01*
X12937348Y-97887348D02*
X13335195Y-97489500D01*
X11700000Y-106814000D02*
X12539000Y-105975000D01*
X20486500Y-95536500D02*
X20254000Y-95769000D01*
X17106796Y-95769000D02*
X17018898Y-95681102D01*
X13335195Y-97489500D02*
X14114500Y-97489500D01*
%TO.N,/MUX_6_IN_7*%
X20600396Y-96059000D02*
X20064000Y-96595396D01*
X16208500Y-98409000D02*
X16013500Y-98214000D01*
X19346412Y-98409000D02*
X16208500Y-98409000D01*
X12989000Y-107599000D02*
X8694000Y-111894000D01*
X12989000Y-100609406D02*
X12989000Y-107599000D01*
X13400000Y-98450000D02*
X13400000Y-100198406D01*
X22504000Y-95109991D02*
X21554991Y-96059000D01*
X13400000Y-100198406D02*
X12989000Y-100609406D01*
X20064000Y-96595396D02*
X20064000Y-97691412D01*
X21554991Y-96059000D02*
X20600396Y-96059000D01*
X22504000Y-94346000D02*
X22504000Y-95109991D01*
X22504000Y-94346000D02*
X23331000Y-93519000D01*
X23331000Y-93519000D02*
X25334000Y-93519000D01*
X20064000Y-97691412D02*
X19346412Y-98409000D01*
X25334000Y-93519000D02*
X26459000Y-94644000D01*
D26*
%TO.N,VCC*%
X13664000Y-105564000D02*
X15500000Y-107400000D01*
X20075000Y-108850000D02*
X20075000Y-112051450D01*
X29100811Y-30904000D02*
X34392293Y-30904000D01*
X17006000Y-88857000D02*
X18839000Y-87024000D01*
X16514000Y-90500000D02*
X16514000Y-89600000D01*
X15500000Y-107400000D02*
X18625000Y-107400000D01*
X22764000Y-80789000D02*
X22764000Y-82404000D01*
X21648550Y-113625000D02*
X36775000Y-113625000D01*
X20075000Y-112051450D02*
X21648550Y-113625000D01*
X22638636Y-80662931D02*
X22638636Y-80663636D01*
X16514000Y-91064000D02*
X16514000Y-92350000D01*
X17489000Y-37320000D02*
X18839000Y-35970000D01*
X18839000Y-58504000D02*
X17489000Y-59854000D01*
X27664000Y-33365189D02*
X27664000Y-32340811D01*
X20014934Y-80106434D02*
X22082139Y-80106434D01*
X22034000Y-83134000D02*
X16016000Y-83134000D01*
X16514000Y-89349000D02*
X17006000Y-88857000D01*
X18839000Y-46384000D02*
X17489000Y-45034000D01*
X16514000Y-89600000D02*
X16514000Y-89349000D01*
X36729293Y-28567000D02*
X36730000Y-28567000D01*
X17179000Y-97184000D02*
X15114000Y-95119000D01*
X16514000Y-93719000D02*
X16514000Y-92350000D01*
X16514000Y-91400000D02*
X16514000Y-90471848D01*
X27664000Y-32340811D02*
X29100811Y-30904000D01*
X17489000Y-65354000D02*
X17489000Y-59854000D01*
X18839000Y-97184000D02*
X17179000Y-97184000D01*
X17489000Y-75514000D02*
X18839000Y-76864000D01*
X22764000Y-82404000D02*
X22034000Y-83134000D01*
X18625000Y-107400000D02*
X20075000Y-108850000D01*
X16514000Y-91400000D02*
X16514000Y-91000000D01*
X14799000Y-89349000D02*
X16514000Y-89349000D01*
X13300000Y-87850000D02*
X14799000Y-89349000D01*
X34392293Y-30904000D02*
X36729293Y-28567000D01*
X17489000Y-45034000D02*
X17489000Y-37320000D01*
X26409189Y-34620000D02*
X27664000Y-33365189D01*
X18839000Y-56544000D02*
X17489000Y-55194000D01*
X16514000Y-92350000D02*
X16514000Y-91400000D01*
X17489000Y-47734000D02*
X18839000Y-46384000D01*
X15114000Y-95119000D02*
X16514000Y-93719000D01*
X18839000Y-56544000D02*
X18839000Y-58504000D01*
X15064000Y-99489000D02*
X13664000Y-100889000D01*
X18839000Y-35970000D02*
X20189000Y-34620000D01*
X15064000Y-95169000D02*
X15114000Y-95119000D01*
X17489000Y-68054000D02*
X17489000Y-75514000D01*
X36775000Y-113625000D02*
X39150000Y-111250000D01*
X13300000Y-85850000D02*
X13300000Y-87850000D01*
X13664000Y-100889000D02*
X13664000Y-105564000D01*
X18839000Y-78930500D02*
X20014934Y-80106434D01*
X17489000Y-55194000D02*
X17489000Y-47734000D01*
X16514000Y-91000000D02*
X16514000Y-90500000D01*
X20189000Y-34620000D02*
X26409189Y-34620000D01*
X15064000Y-99489000D02*
X15064000Y-95169000D01*
X18839000Y-76864000D02*
X18839000Y-78930500D01*
X16016000Y-83134000D02*
X13300000Y-85850000D01*
X22082139Y-80106434D02*
X22638636Y-80662931D01*
X18839000Y-66704000D02*
X17489000Y-68054000D01*
X22638636Y-80663636D02*
X22764000Y-80789000D01*
X16514000Y-91000000D02*
X16514000Y-90471848D01*
X18839000Y-66704000D02*
X17489000Y-65354000D01*
D25*
%TO.N,/MP3_RX*%
X21896253Y-13811551D02*
X23707947Y-13811551D01*
X15044000Y-24518000D02*
X13214000Y-22688000D01*
X17555000Y-16353701D02*
X17555000Y-15013000D01*
X17555000Y-15013000D02*
X17914000Y-14654000D01*
X27564000Y-17667604D02*
X27564000Y-21154000D01*
X28247299Y-24537299D02*
X28780598Y-24004000D01*
X28780598Y-24004000D02*
X34707000Y-24004000D01*
X13978000Y-18154000D02*
X14314000Y-18154000D01*
X13214000Y-18918000D02*
X13978000Y-18154000D01*
X13214000Y-21704000D02*
X13214000Y-18918000D01*
X15754701Y-18154000D02*
X17555000Y-16353701D01*
X34707000Y-24004000D02*
X36730000Y-26027000D01*
X23707947Y-13811551D02*
X27564000Y-17667604D01*
X14314000Y-18154000D02*
X15754701Y-18154000D01*
X13214000Y-22688000D02*
X13214000Y-21704000D01*
%TO.N,/MP3_TX*%
X39941244Y-20275756D02*
X36730000Y-23487000D01*
X44072500Y-22295727D02*
X44072500Y-22000000D01*
X36730000Y-23487000D02*
X28273000Y-23487000D01*
X42300000Y-29850000D02*
X43114000Y-29036000D01*
X44072500Y-20362500D02*
X44064000Y-20354000D01*
X43114000Y-29036000D02*
X43114000Y-23254227D01*
X44072500Y-22000000D02*
X44072500Y-20362500D01*
X43114000Y-23254227D02*
X44072500Y-22295727D01*
X28273000Y-23487000D02*
X26220000Y-25540000D01*
X42575750Y-38225750D02*
X42300000Y-37950000D01*
X42300000Y-37950000D02*
X42300000Y-29850000D01*
X41248951Y-20275756D02*
X39941244Y-20275756D01*
D27*
%TO.N,/SPK-*%
X36730000Y-15867000D02*
X33563639Y-15867000D01*
X32796753Y-15100114D02*
X32796753Y-17599278D01*
X32796753Y-17599278D02*
X26167031Y-24229000D01*
X25939000Y-24229000D02*
X24989000Y-25179000D01*
X33563639Y-15867000D02*
X32796753Y-15100114D01*
X24989000Y-25179000D02*
X24989000Y-25421000D01*
X24989000Y-25421000D02*
X23606000Y-26804000D01*
X26167031Y-24229000D02*
X25939000Y-24229000D01*
D25*
%TO.N,GND*%
X20814000Y-24264000D02*
X20800000Y-24250000D01*
X22193000Y-24264000D02*
X20814000Y-24264000D01*
X23605999Y-31069001D02*
X23600000Y-31075000D01*
D27*
X26896753Y-7100114D02*
X27596753Y-7100114D01*
D25*
X23605999Y-29344000D02*
X23605999Y-31069001D01*
D27*
%TO.N,/SPK+*%
X21196753Y-20690752D02*
X21196753Y-12800114D01*
X21196753Y-12800114D02*
X22996753Y-11000114D01*
X22996753Y-11000114D02*
X36516886Y-11000114D01*
X36516886Y-11000114D02*
X36730000Y-10787000D01*
X22230001Y-21724000D02*
X21196753Y-20690752D01*
D25*
%TO.N,/MUX_1_S0*%
X13264000Y-30704000D02*
X16414000Y-27554000D01*
X15314000Y-37104000D02*
X13264000Y-35054000D01*
X15044000Y-21234000D02*
X15044000Y-19438000D01*
X15364000Y-37104000D02*
X15314000Y-37104000D01*
X31539000Y-35970000D02*
X29875351Y-37633649D01*
X29875351Y-37633649D02*
X18518149Y-37633649D01*
X13264000Y-35054000D02*
X13264000Y-30704000D01*
X16414000Y-22604000D02*
X15044000Y-21234000D01*
X16414000Y-27554000D02*
X16414000Y-22604000D01*
%TO.N,Net-(J17-Pin_2)*%
X12364000Y-18104000D02*
X13570000Y-16898000D01*
X13056630Y-36551046D02*
X12364000Y-35858416D01*
X13056630Y-39194630D02*
X13056630Y-36551046D01*
X12364000Y-35858416D02*
X12364000Y-18104000D01*
X15069000Y-41207000D02*
X13056630Y-39194630D01*
X13570000Y-16898000D02*
X15044000Y-16898000D01*
%TO.N,Net-(J18-Pin_2)*%
X12814000Y-35672020D02*
X12814000Y-29288000D01*
X15069000Y-37927020D02*
X12814000Y-35672020D01*
X15069000Y-38667000D02*
X15069000Y-37927020D01*
X12814000Y-29288000D02*
X15044000Y-27058000D01*
%TO.N,/MUX_1_S1*%
X28250000Y-40000000D02*
X19538500Y-40000000D01*
X16539500Y-41100000D02*
X16539500Y-42276500D01*
X16539500Y-42276500D02*
X15069000Y-43747000D01*
X30150000Y-40000000D02*
X28250000Y-40000000D01*
X19538500Y-40000000D02*
X18438500Y-41100000D01*
X30650000Y-39500000D02*
X30150000Y-40000000D01*
X31325500Y-38824500D02*
X30650000Y-39500000D01*
X33650000Y-38824500D02*
X31325500Y-38824500D01*
%TO.N,/MUX_1_S2*%
X20197699Y-40450000D02*
X18555010Y-42092689D01*
X33980966Y-40450000D02*
X28850000Y-40450000D01*
X16539989Y-43300609D02*
X16539989Y-44816011D01*
X35606466Y-38824500D02*
X33980966Y-40450000D01*
X16539989Y-44816011D02*
X15069000Y-46287000D01*
X28850000Y-40450000D02*
X20197699Y-40450000D01*
%TO.N,/MUX_2_S0*%
X18513000Y-48924500D02*
X18438500Y-48850000D01*
X19300000Y-49399503D02*
X18750497Y-48850000D01*
X30224997Y-49399503D02*
X19300000Y-49399503D01*
X30700000Y-48924500D02*
X30224997Y-49399503D01*
X18750497Y-48850000D02*
X18438500Y-48850000D01*
%TO.N,/MUX_2_S1*%
X32750000Y-48924500D02*
X31824997Y-49849503D01*
X31824997Y-49849503D02*
X18438500Y-49849503D01*
%TO.N,/MUX_2_S2*%
X34050000Y-48924500D02*
X32674997Y-50299503D01*
X20888997Y-50299503D02*
X19163000Y-52025500D01*
X29750000Y-50299503D02*
X20888997Y-50299503D01*
X32674997Y-50299503D02*
X29750000Y-50299503D01*
%TO.N,/MUX_3_S0*%
X27800000Y-59099805D02*
X23099805Y-59099805D01*
X21950000Y-57950000D02*
X21657099Y-57950000D01*
X30000000Y-59949000D02*
X28649195Y-59949000D01*
X23099805Y-59099805D02*
X21950000Y-57950000D01*
X21657099Y-57950000D02*
X21628231Y-57921132D01*
X28649195Y-59949000D02*
X27800000Y-59099805D01*
%TO.N,/MUX_3_S1*%
X23550000Y-59549805D02*
X22525207Y-59549805D01*
X30300305Y-60674000D02*
X28737799Y-60674000D01*
X28737799Y-60674000D02*
X27613604Y-59549805D01*
X22525207Y-59549805D02*
X21883652Y-58908250D01*
X31012051Y-59961548D02*
X31012051Y-59962254D01*
X31012051Y-59962254D02*
X30300305Y-60674000D01*
X27613604Y-59549805D02*
X23550000Y-59549805D01*
%TO.N,/MUX_3_S2*%
X27299805Y-59999805D02*
X21699805Y-59999805D01*
X28424000Y-61124000D02*
X27850000Y-60550000D01*
X31026000Y-61124000D02*
X28424000Y-61124000D01*
X32100000Y-60050000D02*
X31026000Y-61124000D01*
X27850000Y-60550000D02*
X27299805Y-59999805D01*
X21699805Y-59999805D02*
X21650000Y-59950000D01*
D26*
%TO.N,+3.3V*%
X49450000Y-24774500D02*
X49450000Y-29250000D01*
X43098000Y-21904000D02*
X43197500Y-21904000D01*
X42050000Y-105375000D02*
X43521820Y-105375000D01*
X49450000Y-29250000D02*
X49450000Y-37462997D01*
X47409436Y-109097703D02*
X46713723Y-109097703D01*
X43197500Y-21904000D02*
X43247500Y-21954000D01*
X43098000Y-12942000D02*
X43098000Y-21904000D01*
X40464000Y-98579000D02*
X40464000Y-98586000D01*
X43521820Y-105375000D02*
X44075000Y-105928180D01*
X50276208Y-106230931D02*
X47409436Y-109097703D01*
X38130000Y-29967000D02*
X38130000Y-24292000D01*
X50276208Y-102676208D02*
X50276208Y-106230931D01*
X33834000Y-25546000D02*
X33840000Y-25540000D01*
X41275000Y-106150000D02*
X42050000Y-105375000D01*
X35247000Y-106153000D02*
X38472000Y-106153000D01*
X48400000Y-23724500D02*
X49450000Y-24774500D01*
X49450000Y-37462997D02*
X50243502Y-38256499D01*
X37975000Y-105650000D02*
X38475000Y-106150000D01*
X50300000Y-38312997D02*
X50300000Y-74900000D01*
X32918547Y-108481453D02*
X35247000Y-106153000D01*
X40464000Y-98586000D02*
X37975000Y-101075000D01*
X35749898Y-30889898D02*
X37207102Y-30889898D01*
X38130000Y-24292000D02*
X40698000Y-21724000D01*
X40698000Y-10802000D02*
X40958000Y-10802000D01*
X44075000Y-105928180D02*
X44075000Y-108791020D01*
X29785003Y-108481453D02*
X32918547Y-108481453D01*
X37975000Y-101075000D02*
X37975000Y-105650000D01*
X44075000Y-108791020D02*
X44816990Y-109533010D01*
X38475000Y-106150000D02*
X41275000Y-106150000D01*
X38472000Y-106153000D02*
X38475000Y-106150000D01*
X37207102Y-30889898D02*
X38130000Y-29967000D01*
X40958000Y-10802000D02*
X43098000Y-12942000D01*
X46713723Y-109097703D02*
X46683010Y-109066990D01*
X50243502Y-38256499D02*
X50300000Y-38312997D01*
X33834000Y-29004000D02*
X33834000Y-25546000D01*
X27735003Y-110531453D02*
X29785003Y-108481453D01*
%TO.N,Net-(J19-Pin_17)*%
X42400000Y-91139500D02*
X42400000Y-85550000D01*
X36125500Y-80450000D02*
X23743428Y-80450000D01*
X40500000Y-93039500D02*
X42400000Y-91139500D01*
X42400000Y-85550000D02*
X40850000Y-84000000D01*
X40850000Y-84000000D02*
X40642101Y-84000000D01*
X38674500Y-82032399D02*
X38674500Y-80450000D01*
X23743428Y-80450000D02*
X23549362Y-80255934D01*
X40642101Y-84000000D02*
X38674500Y-82032399D01*
D25*
%TO.N,/MASTER_MUX_OUT*%
X29942531Y-31853500D02*
X29942531Y-31942531D01*
X42149358Y-106975000D02*
X39975000Y-106975000D01*
X29942531Y-31942531D02*
X32050000Y-34050000D01*
X39106117Y-35750000D02*
X39755812Y-36399695D01*
X39975000Y-106975000D02*
X36075000Y-106975000D01*
X14064000Y-8854000D02*
X13214000Y-9704000D01*
X39106117Y-35750000D02*
X38000000Y-35750000D01*
X24876181Y-23666181D02*
X24876181Y-23327819D01*
X26550000Y-112950000D02*
X25150000Y-111550000D01*
X24064000Y-14804000D02*
X26220000Y-16960000D01*
X39294000Y-37492000D02*
X39294000Y-40032000D01*
X35100000Y-111650000D02*
X33800000Y-112950000D01*
X26214000Y-29004000D02*
X28819020Y-29004000D01*
X47113695Y-104672701D02*
X45677299Y-104672701D01*
X22014000Y-14804000D02*
X24064000Y-14804000D01*
X35100000Y-107950000D02*
X35100000Y-111650000D01*
X20497253Y-10892552D02*
X18458701Y-8854000D01*
X50200000Y-101586396D02*
X47113695Y-104672701D01*
X20497253Y-14804000D02*
X20497253Y-10892552D01*
X32050000Y-34050000D02*
X35950000Y-34050000D01*
X50200000Y-76700000D02*
X50200000Y-101586396D01*
X42800858Y-106323500D02*
X42149358Y-106975000D01*
X36300000Y-34050000D02*
X35950000Y-34050000D01*
X13214000Y-9704000D02*
X13214000Y-10730001D01*
X24854622Y-27644622D02*
X24854622Y-26544622D01*
X18458701Y-8854000D02*
X14064000Y-8854000D01*
X36075000Y-106975000D02*
X35100000Y-107950000D01*
X39294000Y-40032000D02*
X40469000Y-41207000D01*
X49343500Y-75193500D02*
X50200000Y-76050000D01*
X25150000Y-106035000D02*
X23919000Y-104804000D01*
X26214000Y-29004000D02*
X24854622Y-27644622D01*
X50200000Y-76050000D02*
X50200000Y-76700000D01*
X25150000Y-111550000D02*
X25150000Y-106035000D01*
X13214000Y-10730001D02*
X15044000Y-12560001D01*
X24876181Y-23327819D02*
X26220000Y-21984000D01*
X33800000Y-112950000D02*
X26550000Y-112950000D01*
X49343500Y-38700000D02*
X49343500Y-75193500D01*
X39755812Y-37030188D02*
X39294000Y-37492000D01*
X38000000Y-35750000D02*
X36300000Y-34050000D01*
X26220000Y-16960000D02*
X26220000Y-21984000D01*
X28819020Y-29004000D02*
X29769520Y-29954500D01*
X39755812Y-36399695D02*
X39755812Y-37030188D01*
%TO.N,/MUX_4_S0*%
X37750000Y-57400000D02*
X32664000Y-62486000D01*
X32664000Y-62486000D02*
X32664000Y-64250000D01*
X32664000Y-64250000D02*
X32664000Y-65579000D01*
X32664000Y-65579000D02*
X31539000Y-66704000D01*
%TO.N,/MUX_4_S1*%
X43274500Y-57646000D02*
X43274500Y-60650000D01*
X35204000Y-60646000D02*
X37050000Y-58800000D01*
X35204000Y-65579000D02*
X35204000Y-60646000D01*
X37050000Y-58800000D02*
X38474500Y-58800000D01*
X42800000Y-57171500D02*
X43274500Y-57646000D01*
X40850200Y-54288200D02*
X42500000Y-54288200D01*
X40469000Y-53907000D02*
X40850200Y-54288200D01*
X34079000Y-66704000D02*
X35204000Y-65579000D01*
%TO.N,/MUX_4_S2*%
X37744000Y-63694000D02*
X36950000Y-62900000D01*
X43999500Y-62075000D02*
X43274500Y-62800000D01*
X43999500Y-57072292D02*
X43999500Y-62075000D01*
X37744000Y-65579000D02*
X37744000Y-63694000D01*
X35654000Y-61050000D02*
X35654000Y-60896000D01*
X43838604Y-56911396D02*
X43999500Y-57072292D01*
X36000000Y-62900000D02*
X35750000Y-62650000D01*
X36700000Y-59850000D02*
X36987701Y-59562299D01*
X35654000Y-60896000D02*
X36700000Y-59850000D01*
X36950000Y-62900000D02*
X36000000Y-62900000D01*
X36619000Y-66704000D02*
X37744000Y-65579000D01*
X43250000Y-56447000D02*
X43374208Y-56447000D01*
X40469000Y-56447000D02*
X43250000Y-56447000D01*
X43374208Y-56447000D02*
X43838604Y-56911396D01*
X36987701Y-59562299D02*
X37312299Y-59562299D01*
X35654000Y-62554000D02*
X35654000Y-61050000D01*
X35750000Y-62650000D02*
X35654000Y-62554000D01*
%TO.N,/MUX_5_S0*%
X33550000Y-73200000D02*
X35413604Y-73200000D01*
X36550000Y-61900000D02*
X36550000Y-61000000D01*
X37779698Y-66179698D02*
X38194000Y-65765396D01*
X36844000Y-71769604D02*
X36844000Y-68069992D01*
X39312805Y-58987000D02*
X40469000Y-58987000D01*
X36586396Y-61900000D02*
X36550000Y-61900000D01*
X32954000Y-75449000D02*
X32954000Y-73796000D01*
X31539000Y-76864000D02*
X32954000Y-75449000D01*
X37262701Y-60287299D02*
X38012506Y-60287299D01*
X36550000Y-61000000D02*
X37262701Y-60287299D01*
X36844000Y-68069992D02*
X37779698Y-67134293D01*
X32954000Y-73796000D02*
X33550000Y-73200000D01*
X38194000Y-65765396D02*
X38194000Y-63507604D01*
X37779698Y-67134293D02*
X37779698Y-66179698D01*
X35413604Y-73200000D02*
X36844000Y-71769604D01*
X38012506Y-60287299D02*
X39312805Y-58987000D01*
X38194000Y-63507604D02*
X36586396Y-61900000D01*
%TO.N,/MUX_5_S1*%
X37400000Y-62077208D02*
X37400000Y-61100000D01*
X34079000Y-76864000D02*
X35204000Y-75739000D01*
X35204000Y-75739000D02*
X35204000Y-74046000D01*
X37400000Y-61100000D02*
X37750000Y-60750000D01*
X38644000Y-65951792D02*
X38644000Y-63321208D01*
X39692000Y-60750000D02*
X40469000Y-61527000D01*
X37294000Y-71956000D02*
X37294000Y-71400000D01*
X35204000Y-74046000D02*
X37294000Y-71956000D01*
X38229698Y-67320689D02*
X38229698Y-67150000D01*
X38229698Y-67320689D02*
X37294000Y-68256388D01*
X37750000Y-60750000D02*
X39692000Y-60750000D01*
X38644000Y-63321208D02*
X37400000Y-62077208D01*
X38229698Y-66366094D02*
X38644000Y-65951792D01*
X37294000Y-69600000D02*
X37294000Y-71400000D01*
X38229698Y-67150000D02*
X38229698Y-66366094D01*
X37294000Y-68256388D02*
X37294000Y-69600000D01*
%TO.N,/MUX_5_S2*%
X40469000Y-64945299D02*
X38679698Y-66734601D01*
X38679698Y-67507085D02*
X37744000Y-68442784D01*
X38679698Y-66734601D02*
X38679698Y-67507085D01*
X37744000Y-68442784D02*
X37744000Y-75739000D01*
X37744000Y-75739000D02*
X36619000Y-76864000D01*
X40469000Y-64067000D02*
X40469000Y-64945299D01*
%TO.N,/MUX_6_S0*%
X38194000Y-68882000D02*
X38194000Y-76879991D01*
X36950000Y-78123992D02*
X36950000Y-81563604D01*
X35363604Y-83150000D02*
X33414000Y-83150000D01*
X32664000Y-85899000D02*
X31539000Y-87024000D01*
X38194000Y-76879991D02*
X36950000Y-78123992D01*
X40469000Y-66607000D02*
X38194000Y-68882000D01*
X33414000Y-83150000D02*
X32664000Y-83900000D01*
X32664000Y-83900000D02*
X32664000Y-85899000D01*
X36950000Y-81563604D02*
X35363604Y-83150000D01*
%TO.N,/MUX_6_S1*%
X34079000Y-87024000D02*
X35204000Y-85899000D01*
X35204000Y-83946000D02*
X37400000Y-81750000D01*
X35204000Y-85899000D02*
X35204000Y-83946000D01*
X37400000Y-81750000D02*
X37400000Y-78310386D01*
X38644000Y-77066387D02*
X38505193Y-77205193D01*
X37400000Y-78310386D02*
X38505193Y-77205193D01*
X38644000Y-70972000D02*
X38644000Y-77066387D01*
X40469000Y-69147000D02*
X38644000Y-70972000D01*
%TO.N,/MUX_6_S2*%
X37850000Y-78700000D02*
X37850000Y-85793000D01*
X39094000Y-77456000D02*
X37850000Y-78700000D01*
X39094000Y-73062000D02*
X39094000Y-77456000D01*
X40469000Y-71687000D02*
X39094000Y-73062000D01*
X37850000Y-85793000D02*
X36619000Y-87024000D01*
%TO.N,/MUX_MASTER_S0*%
X39150000Y-97186396D02*
X39150000Y-95450000D01*
X43275500Y-100850500D02*
X43275500Y-103800000D01*
X47350000Y-103758941D02*
X49750000Y-101358941D01*
X33114000Y-98759000D02*
X37577396Y-98759000D01*
X41414000Y-94764000D02*
X42100000Y-95450000D01*
X42100000Y-95450000D02*
X42100000Y-99675000D01*
X39150000Y-95450000D02*
X39836000Y-94764000D01*
X39836000Y-94764000D02*
X41414000Y-94764000D01*
X47350000Y-103800000D02*
X47350000Y-103758941D01*
X45174500Y-103800000D02*
X47350000Y-103800000D01*
X31539000Y-97184000D02*
X33114000Y-98759000D01*
X37577396Y-98759000D02*
X39150000Y-97186396D01*
X42100000Y-99675000D02*
X43275500Y-100850500D01*
X49750000Y-101358941D02*
X49750000Y-76400000D01*
X49750000Y-76400000D02*
X47562299Y-74212299D01*
%TO.N,/MUX_MASTER_S1*%
X48530894Y-99203502D02*
X47100000Y-99203502D01*
X47850000Y-78150000D02*
X48550000Y-78150000D01*
X42550000Y-99049804D02*
X42700098Y-99199902D01*
X46450000Y-99203502D02*
X46348419Y-99203502D01*
X35204000Y-98309000D02*
X37391000Y-98309000D01*
X43275500Y-99749503D02*
X43249698Y-99749503D01*
X43249698Y-99749503D02*
X42700098Y-99199902D01*
X49300000Y-98434396D02*
X48530894Y-99203502D01*
X38700000Y-97000000D02*
X38700000Y-95263604D01*
X42700098Y-99199902D02*
X42550000Y-99049805D01*
X48550000Y-78150000D02*
X49300000Y-78900000D01*
X42550000Y-95263604D02*
X42550000Y-99049804D01*
X34079000Y-97184000D02*
X35204000Y-98309000D01*
X39649604Y-94314000D02*
X41600396Y-94314000D01*
X49300000Y-78900000D02*
X49300000Y-81400000D01*
X46348419Y-99203502D02*
X45818259Y-99733662D01*
X37391000Y-98309000D02*
X38700000Y-97000000D01*
X41600396Y-94314000D02*
X42550000Y-95263604D01*
X47100000Y-99203502D02*
X46450000Y-99203502D01*
X38700000Y-95263604D02*
X39649604Y-94314000D01*
X49300000Y-81400000D02*
X49300000Y-98434396D01*
%TO.N,/MUX_MASTER_S2*%
X37879604Y-97184000D02*
X36619000Y-97184000D01*
X43275500Y-98750000D02*
X43275500Y-95352708D01*
X48850000Y-82050000D02*
X48850000Y-98248000D01*
X38250000Y-95077208D02*
X38250000Y-96813604D01*
X48850000Y-79900000D02*
X48850000Y-82050000D01*
X45950000Y-79314498D02*
X48264498Y-79314498D01*
X48850000Y-98248000D02*
X48344498Y-98753502D01*
X41786792Y-93864000D02*
X39463208Y-93864000D01*
X48344498Y-98753502D02*
X45624500Y-98753502D01*
X38250000Y-96813604D02*
X37879604Y-97184000D01*
X39463208Y-93864000D02*
X38250000Y-95077208D01*
X48264498Y-79314498D02*
X48850000Y-79900000D01*
X43275500Y-95352708D02*
X41786792Y-93864000D01*
%TO.N,Net-(JP2-A)*%
X23496753Y-21540752D02*
X23680001Y-21724000D01*
X23643000Y-24264000D02*
X23643000Y-21761001D01*
X23496753Y-18300114D02*
X23496753Y-21540752D01*
X23643000Y-21761001D02*
X23680001Y-21724000D01*
%TO.N,Net-(JP1-A)*%
X23887620Y-25729000D02*
X24564000Y-25052620D01*
X26685991Y-23109000D02*
X27127495Y-22667495D01*
X22156000Y-26804000D02*
X22156000Y-26394380D01*
X24564000Y-25052620D02*
X24564000Y-25002960D01*
X24564000Y-25002960D02*
X26457960Y-23109000D01*
X22155999Y-29344000D02*
X22155999Y-26804001D01*
X22155999Y-26804001D02*
X22156000Y-26804000D01*
X22821380Y-25729000D02*
X23887620Y-25729000D01*
X30096753Y-19698238D02*
X30096753Y-13900114D01*
X26457960Y-23109000D02*
X26685991Y-23109000D01*
X22156000Y-26394380D02*
X22821380Y-25729000D01*
X27127495Y-22667495D02*
X30096753Y-19698238D01*
%TO.N,/SLAVE_MUX_1_OUT*%
X9808461Y-44029001D02*
X6500000Y-44029001D01*
X23919000Y-97606305D02*
X23919000Y-97184000D01*
X5500000Y-45029000D02*
X5500000Y-97700000D01*
X5500000Y-103462792D02*
X6587208Y-104550000D01*
X6587208Y-104550000D02*
X6960000Y-104550000D01*
X17050000Y-104475304D02*
X18037652Y-103487652D01*
X17050000Y-105150000D02*
X17050000Y-104475304D01*
X23079500Y-44429500D02*
X22904500Y-44604500D01*
X11374050Y-104550000D02*
X11814500Y-104990450D01*
X5500000Y-97700000D02*
X5500000Y-98300000D01*
X22904500Y-44604500D02*
X22519498Y-44989502D01*
X22519498Y-44989502D02*
X19550000Y-44989502D01*
X10373127Y-44593667D02*
X9808461Y-44029001D01*
X23919000Y-43590000D02*
X23079500Y-44429500D01*
X17188898Y-104336407D02*
X18037652Y-103487652D01*
X18037652Y-103487652D02*
X23919000Y-97606305D01*
X5500000Y-98300000D02*
X5500000Y-103462792D01*
X6960000Y-104550000D02*
X11374050Y-104550000D01*
X6500000Y-44029001D02*
X5500000Y-45029000D01*
%TO.N,/SLAVE_MUX_2_OUT*%
X9004761Y-48042300D02*
X5950000Y-51097062D01*
X23919000Y-54004000D02*
X22177299Y-52262299D01*
X22177299Y-52262299D02*
X22103500Y-52262299D01*
X9794500Y-48042300D02*
X9004761Y-48042300D01*
X16413408Y-104475500D02*
X16013500Y-104475500D01*
X5950000Y-51097062D02*
X5950000Y-103276396D01*
X11689983Y-104100000D02*
X11814911Y-103975072D01*
X21379000Y-99509909D02*
X16413408Y-104475500D01*
X6773604Y-104100000D02*
X11689983Y-104100000D01*
X21379000Y-97184000D02*
X21379000Y-99509909D01*
X5950000Y-103276396D02*
X6773604Y-104100000D01*
%TO.N,/SLAVE_MUX_3_OUT*%
X16344843Y-103519467D02*
X20057155Y-99807155D01*
X20684805Y-69624500D02*
X20338000Y-69971305D01*
X11814460Y-102975570D02*
X11789108Y-102975570D01*
X11789108Y-102975570D02*
X11114678Y-103650000D01*
X6400000Y-97150000D02*
X6399500Y-97150500D01*
X6960000Y-103650000D02*
X11114678Y-103650000D01*
X6399500Y-97150500D02*
X6399500Y-103089500D01*
X25150000Y-69624500D02*
X20684805Y-69624500D01*
X12500000Y-67150000D02*
X9450000Y-64100000D01*
X23919000Y-64164000D02*
X25172815Y-65417815D01*
X25348945Y-100834055D02*
X28999000Y-97184000D01*
X12719500Y-68373546D02*
X12500000Y-68154046D01*
X9450000Y-64100000D02*
X7400000Y-64100000D01*
X6399500Y-103089500D02*
X6960000Y-103650000D01*
X6400000Y-65100000D02*
X6400000Y-97150000D01*
X16305056Y-103519467D02*
X16344843Y-103519467D01*
X7400000Y-64100000D02*
X6400000Y-65100000D01*
X22352246Y-100834055D02*
X25348945Y-100834055D01*
X12500000Y-68154046D02*
X12500000Y-67150000D01*
X25172815Y-65417815D02*
X25172815Y-67325735D01*
%TO.N,/SLAVE_MUX_4_OUT*%
X6850000Y-75597060D02*
X7938060Y-74509000D01*
X6850000Y-97390941D02*
X9368059Y-99909000D01*
X23919000Y-74324000D02*
X23919000Y-75273009D01*
X9852402Y-74509000D02*
X13622450Y-78279048D01*
X6850000Y-97350000D02*
X6850000Y-75597060D01*
X23919000Y-75273009D02*
X22504000Y-76688009D01*
X9368059Y-99909000D02*
X10409000Y-99909000D01*
X10409000Y-99909000D02*
X10793502Y-100293502D01*
X22504000Y-76688009D02*
X22504000Y-77346000D01*
X21350000Y-78500000D02*
X20788500Y-78500000D01*
X6850000Y-97350000D02*
X6850000Y-97390941D01*
X10793502Y-100293502D02*
X10793502Y-101262039D01*
X22504000Y-77346000D02*
X21350000Y-78500000D01*
X7938060Y-74509000D02*
X9852402Y-74509000D01*
%TO.N,/SLAVE_MUX_5_OUT*%
X25120491Y-89174500D02*
X30124000Y-94178009D01*
X30124000Y-94178009D02*
X30124000Y-103679000D01*
X25050000Y-89174500D02*
X25120491Y-89174500D01*
X30124000Y-103679000D02*
X28999000Y-104804000D01*
%TO.N,/SLAVE_MUX_6_OUT*%
X21379000Y-100782701D02*
X23511701Y-98650000D01*
X21379000Y-104804000D02*
X21379000Y-100782701D01*
X23511701Y-98650000D02*
X24250000Y-98650000D01*
X25334000Y-97566000D02*
X25334000Y-96400000D01*
X23919000Y-94644000D02*
X25334000Y-96059000D01*
X24250000Y-98650000D02*
X25334000Y-97566000D01*
X25334000Y-96059000D02*
X25334000Y-96400000D01*
D26*
%TO.N,Net-(J19-Pin_18)*%
X15114000Y-90793956D02*
X15114000Y-92579000D01*
X12501000Y-88180956D02*
X15114000Y-90793956D01*
X15069000Y-81847000D02*
X15069000Y-82951044D01*
X12501000Y-85519044D02*
X12501000Y-88180956D01*
X15069000Y-82951044D02*
X12501000Y-85519044D01*
D25*
%TO.N,/vol_up*%
X40469000Y-42868701D02*
X40469000Y-43747000D01*
X40444000Y-24518000D02*
X40698000Y-24264000D01*
X38844000Y-36886812D02*
X39030812Y-36700000D01*
X39319000Y-29550000D02*
X39319000Y-30215000D01*
X39294000Y-40850000D02*
X39294000Y-41693701D01*
X38844000Y-38400000D02*
X38844000Y-36886812D01*
X40444000Y-27352000D02*
X40444000Y-24518000D01*
X39319000Y-30181000D02*
X39319000Y-29550000D01*
X38844000Y-38400000D02*
X38844000Y-40400000D01*
X38600000Y-30900000D02*
X39319000Y-30181000D01*
X38844000Y-40400000D02*
X39294000Y-40850000D01*
X39319000Y-28477000D02*
X39319000Y-29550000D01*
X39294000Y-41693701D02*
X40469000Y-42868701D01*
X40444000Y-27352000D02*
X39319000Y-28477000D01*
%TO.N,/vol_down*%
X40698000Y-16176000D02*
X40698000Y-13342000D01*
X41850000Y-29500000D02*
X42423000Y-28927000D01*
X41850000Y-44906000D02*
X41850000Y-38650000D01*
X38119500Y-37200000D02*
X38019500Y-37100000D01*
X42423000Y-17901000D02*
X40698000Y-16176000D01*
X18753730Y-38629919D02*
X18438500Y-38629919D01*
X41850000Y-38650000D02*
X41850000Y-38400000D01*
X40650000Y-37217498D02*
X41369498Y-37217498D01*
X41369498Y-37217498D02*
X41850000Y-37698000D01*
X19300000Y-38083649D02*
X18753730Y-38629919D01*
X42423000Y-28927000D02*
X42423000Y-17901000D01*
X16539500Y-36537088D02*
X16539500Y-38400000D01*
X41850000Y-37698000D02*
X41850000Y-38350000D01*
X41850000Y-38400000D02*
X41850000Y-38350000D01*
X38019500Y-37100000D02*
X31050000Y-37100000D01*
X18600000Y-34476588D02*
X16539500Y-36537088D01*
X40469000Y-46287000D02*
X41850000Y-44906000D01*
X30066351Y-38083649D02*
X19300000Y-38083649D01*
X41850000Y-38350000D02*
X41850000Y-29500000D01*
X41850000Y-38650000D02*
X41850000Y-37698000D01*
X41850000Y-37698000D02*
X41850000Y-38400000D01*
X18600000Y-32900000D02*
X18600000Y-34476588D01*
X31050000Y-37100000D02*
X30066351Y-38083649D01*
D26*
%TO.N,Net-(J26-Pin_1)*%
X16054000Y-106154000D02*
X20864000Y-106154000D01*
X22655003Y-107945003D02*
X22655003Y-110531453D01*
X20864000Y-106154000D02*
X22655003Y-107945003D01*
X15064000Y-105164000D02*
X16054000Y-106154000D01*
X15064000Y-102029000D02*
X15064000Y-105164000D01*
%TD*%
M02*
