%TF.GenerationSoftware,KiCad,Pcbnew,7.0.6*%
%TF.CreationDate,2024-08-21T19:33:41+02:00*%
%TF.ProjectId,Koracni ksilofon,4b6f7261-636e-4692-906b-73696c6f666f,rev?*%
%TF.SameCoordinates,PXca73a30PY16e2660*%
%TF.FileFunction,Profile,NP*%
%FSLAX46Y46*%
G04 Gerber Fmt 4.6, Leading zero omitted, Abs format (unit mm)*
G04 Created by KiCad (PCBNEW 7.0.6) date 2024-08-21 19:33:41*
%MOMM*%
%LPD*%
G01*
G04 APERTURE LIST*
%TA.AperFunction,Profile*%
%ADD10C,0.100000*%
%TD*%
G04 APERTURE END LIST*
D10*
X18474659Y-116883341D02*
G75*
G03*
X16974660Y-115383341I-1499959J41D01*
G01*
X102660Y-8443340D02*
X102660Y-113883341D01*
X38474660Y-115383341D02*
X53846660Y-115383341D01*
X35474660Y-118443260D02*
G75*
G03*
X36974660Y-116943340I40J1499960D01*
G01*
X1602660Y-115383341D02*
X16974660Y-115383341D01*
X19974660Y-118443340D02*
X35474660Y-118443340D01*
X33483686Y-3949305D02*
G75*
G03*
X34837930Y-3094340I14J1500005D01*
G01*
X53846660Y-6943340D02*
X45399838Y-6943340D01*
X20611389Y-3094340D02*
G75*
G03*
X12049483Y-4943340I-4062729J-1935000D01*
G01*
X10049482Y-6943340D02*
X1602660Y-6943340D01*
X43399760Y-4943340D02*
G75*
G03*
X45399838Y-6943340I2000040J40D01*
G01*
X20611342Y-3094363D02*
G75*
G03*
X21965633Y-3949340I1354258J645063D01*
G01*
X102659Y-113883341D02*
G75*
G03*
X1602660Y-115383341I1500041J41D01*
G01*
X10049482Y-6943282D02*
G75*
G03*
X12049482Y-4943340I18J1999982D01*
G01*
X36974660Y-116943340D02*
X36974660Y-116883341D01*
X18474660Y-116943340D02*
G75*
G03*
X19974660Y-118443340I1500040J40D01*
G01*
X43399897Y-4943339D02*
G75*
G03*
X34837931Y-3094340I-4499197J-85961D01*
G01*
X33483686Y-3949340D02*
X21965633Y-3949340D01*
X18474660Y-116883341D02*
X18474660Y-116943340D01*
X1602660Y-6943260D02*
G75*
G03*
X102660Y-8443340I40J-1500040D01*
G01*
X55346660Y-8443340D02*
G75*
G03*
X53846660Y-6943340I-1499960J40D01*
G01*
X55346660Y-113883341D02*
X55346660Y-8443340D01*
X38474660Y-115383260D02*
G75*
G03*
X36974660Y-116883341I40J-1500040D01*
G01*
X53846660Y-115383260D02*
G75*
G03*
X55346660Y-113883341I40J1499960D01*
G01*
M02*
