%TF.GenerationSoftware,KiCad,Pcbnew,7.0.6*%
%TF.CreationDate,2024-08-21T19:33:41+02:00*%
%TF.ProjectId,Koracni ksilofon,4b6f7261-636e-4692-906b-73696c6f666f,rev?*%
%TF.SameCoordinates,PXca73a30PY16e2660*%
%TF.FileFunction,Legend,Top*%
%TF.FilePolarity,Positive*%
%FSLAX46Y46*%
G04 Gerber Fmt 4.6, Leading zero omitted, Abs format (unit mm)*
G04 Created by KiCad (PCBNEW 7.0.6) date 2024-08-21 19:33:41*
%MOMM*%
%LPD*%
G01*
G04 APERTURE LIST*
%ADD10C,0.150000*%
%ADD11C,0.300000*%
%ADD12C,0.125000*%
%ADD13C,0.100000*%
%ADD14C,0.120000*%
G04 APERTURE END LIST*
D10*
X13269000Y-31204000D02*
X42269000Y-31204000D01*
X42269000Y-89204000D01*
X13269000Y-89204000D01*
X13269000Y-31204000D01*
X29400000Y-30750000D02*
G75*
G03*
X25807898Y-30750000I-1796051J0D01*
G01*
X28950000Y-24925000D02*
X31425000Y-26450000D01*
X28900000Y-28300000D02*
X31375000Y-29825000D01*
X28760000Y-86150000D02*
X35110000Y-86150000D01*
X35110000Y-89198000D01*
X28760000Y-89198000D01*
X28760000Y-86150000D01*
X32811000Y-11939000D02*
X22905000Y-11939000D01*
X22905000Y-9399000D01*
X32811000Y-9399000D01*
X32811000Y-11939000D01*
X28750000Y-29800000D02*
X31150000Y-28250000D01*
X28800000Y-26425000D02*
X31200000Y-24875000D01*
X25807898Y-30750000D02*
X20491949Y-30750001D01*
X29400000Y-30750000D02*
X35223950Y-30750000D01*
D11*
X2804361Y-59474952D02*
X2804361Y-60713047D01*
X2804361Y-60713047D02*
X2042457Y-60046380D01*
X2042457Y-60046380D02*
X2042457Y-60332095D01*
X2042457Y-60332095D02*
X1947219Y-60522571D01*
X1947219Y-60522571D02*
X1851980Y-60617809D01*
X1851980Y-60617809D02*
X1661504Y-60713047D01*
X1661504Y-60713047D02*
X1185314Y-60713047D01*
X1185314Y-60713047D02*
X994838Y-60617809D01*
X994838Y-60617809D02*
X899600Y-60522571D01*
X899600Y-60522571D02*
X804361Y-60332095D01*
X804361Y-60332095D02*
X804361Y-59760666D01*
X804361Y-59760666D02*
X899600Y-59570190D01*
X899600Y-59570190D02*
X994838Y-59474952D01*
X2613885Y-61474952D02*
X2709123Y-61570190D01*
X2709123Y-61570190D02*
X2804361Y-61760666D01*
X2804361Y-61760666D02*
X2804361Y-62236857D01*
X2804361Y-62236857D02*
X2709123Y-62427333D01*
X2709123Y-62427333D02*
X2613885Y-62522571D01*
X2613885Y-62522571D02*
X2423409Y-62617809D01*
X2423409Y-62617809D02*
X2232933Y-62617809D01*
X2232933Y-62617809D02*
X1947219Y-62522571D01*
X1947219Y-62522571D02*
X804361Y-61379714D01*
X804361Y-61379714D02*
X804361Y-62617809D01*
X54623638Y-86874951D02*
X54623638Y-88017808D01*
X54623638Y-87446380D02*
X52623638Y-87446380D01*
X52623638Y-87446380D02*
X52909352Y-87636856D01*
X52909352Y-87636856D02*
X53099828Y-87827332D01*
X53099828Y-87827332D02*
X53195066Y-88017808D01*
X52623638Y-85160665D02*
X52623638Y-85541618D01*
X52623638Y-85541618D02*
X52718876Y-85732094D01*
X52718876Y-85732094D02*
X52814114Y-85827332D01*
X52814114Y-85827332D02*
X53099828Y-86017808D01*
X53099828Y-86017808D02*
X53480780Y-86113046D01*
X53480780Y-86113046D02*
X54242685Y-86113046D01*
X54242685Y-86113046D02*
X54433161Y-86017808D01*
X54433161Y-86017808D02*
X54528400Y-85922570D01*
X54528400Y-85922570D02*
X54623638Y-85732094D01*
X54623638Y-85732094D02*
X54623638Y-85351141D01*
X54623638Y-85351141D02*
X54528400Y-85160665D01*
X54528400Y-85160665D02*
X54433161Y-85065427D01*
X54433161Y-85065427D02*
X54242685Y-84970189D01*
X54242685Y-84970189D02*
X53766495Y-84970189D01*
X53766495Y-84970189D02*
X53576019Y-85065427D01*
X53576019Y-85065427D02*
X53480780Y-85160665D01*
X53480780Y-85160665D02*
X53385542Y-85351141D01*
X53385542Y-85351141D02*
X53385542Y-85732094D01*
X53385542Y-85732094D02*
X53480780Y-85922570D01*
X53480780Y-85922570D02*
X53576019Y-86017808D01*
X53576019Y-86017808D02*
X53766495Y-86113046D01*
X2613885Y-34170190D02*
X2709123Y-34265428D01*
X2709123Y-34265428D02*
X2804361Y-34455904D01*
X2804361Y-34455904D02*
X2804361Y-34932095D01*
X2804361Y-34932095D02*
X2709123Y-35122571D01*
X2709123Y-35122571D02*
X2613885Y-35217809D01*
X2613885Y-35217809D02*
X2423409Y-35313047D01*
X2423409Y-35313047D02*
X2232933Y-35313047D01*
X2232933Y-35313047D02*
X1947219Y-35217809D01*
X1947219Y-35217809D02*
X804361Y-34074952D01*
X804361Y-34074952D02*
X804361Y-35313047D01*
X2804361Y-35979714D02*
X2804361Y-37313047D01*
X2804361Y-37313047D02*
X804361Y-36455904D01*
X2613885Y-29090190D02*
X2709123Y-29185428D01*
X2709123Y-29185428D02*
X2804361Y-29375904D01*
X2804361Y-29375904D02*
X2804361Y-29852095D01*
X2804361Y-29852095D02*
X2709123Y-30042571D01*
X2709123Y-30042571D02*
X2613885Y-30137809D01*
X2613885Y-30137809D02*
X2423409Y-30233047D01*
X2423409Y-30233047D02*
X2232933Y-30233047D01*
X2232933Y-30233047D02*
X1947219Y-30137809D01*
X1947219Y-30137809D02*
X804361Y-28994952D01*
X804361Y-28994952D02*
X804361Y-30233047D01*
X2804361Y-31947333D02*
X2804361Y-31566380D01*
X2804361Y-31566380D02*
X2709123Y-31375904D01*
X2709123Y-31375904D02*
X2613885Y-31280666D01*
X2613885Y-31280666D02*
X2328171Y-31090190D01*
X2328171Y-31090190D02*
X1947219Y-30994952D01*
X1947219Y-30994952D02*
X1185314Y-30994952D01*
X1185314Y-30994952D02*
X994838Y-31090190D01*
X994838Y-31090190D02*
X899600Y-31185428D01*
X899600Y-31185428D02*
X804361Y-31375904D01*
X804361Y-31375904D02*
X804361Y-31756857D01*
X804361Y-31756857D02*
X899600Y-31947333D01*
X899600Y-31947333D02*
X994838Y-32042571D01*
X994838Y-32042571D02*
X1185314Y-32137809D01*
X1185314Y-32137809D02*
X1661504Y-32137809D01*
X1661504Y-32137809D02*
X1851980Y-32042571D01*
X1851980Y-32042571D02*
X1947219Y-31947333D01*
X1947219Y-31947333D02*
X2042457Y-31756857D01*
X2042457Y-31756857D02*
X2042457Y-31375904D01*
X2042457Y-31375904D02*
X1947219Y-31185428D01*
X1947219Y-31185428D02*
X1851980Y-31090190D01*
X1851980Y-31090190D02*
X1661504Y-30994952D01*
X2804361Y-54394952D02*
X2804361Y-55633047D01*
X2804361Y-55633047D02*
X2042457Y-54966380D01*
X2042457Y-54966380D02*
X2042457Y-55252095D01*
X2042457Y-55252095D02*
X1947219Y-55442571D01*
X1947219Y-55442571D02*
X1851980Y-55537809D01*
X1851980Y-55537809D02*
X1661504Y-55633047D01*
X1661504Y-55633047D02*
X1185314Y-55633047D01*
X1185314Y-55633047D02*
X994838Y-55537809D01*
X994838Y-55537809D02*
X899600Y-55442571D01*
X899600Y-55442571D02*
X804361Y-55252095D01*
X804361Y-55252095D02*
X804361Y-54680666D01*
X804361Y-54680666D02*
X899600Y-54490190D01*
X899600Y-54490190D02*
X994838Y-54394952D01*
X804361Y-57537809D02*
X804361Y-56394952D01*
X804361Y-56966380D02*
X2804361Y-56966380D01*
X2804361Y-56966380D02*
X2518647Y-56775904D01*
X2518647Y-56775904D02*
X2328171Y-56585428D01*
X2328171Y-56585428D02*
X2232933Y-56394952D01*
X54623638Y-61474951D02*
X54623638Y-62617808D01*
X54623638Y-62046380D02*
X52623638Y-62046380D01*
X52623638Y-62046380D02*
X52909352Y-62236856D01*
X52909352Y-62236856D02*
X53099828Y-62427332D01*
X53099828Y-62427332D02*
X53195066Y-62617808D01*
X54623638Y-59570189D02*
X54623638Y-60713046D01*
X54623638Y-60141618D02*
X52623638Y-60141618D01*
X52623638Y-60141618D02*
X52909352Y-60332094D01*
X52909352Y-60332094D02*
X53099828Y-60522570D01*
X53099828Y-60522570D02*
X53195066Y-60713046D01*
X2804361Y-74714952D02*
X2804361Y-75953047D01*
X2804361Y-75953047D02*
X2042457Y-75286380D01*
X2042457Y-75286380D02*
X2042457Y-75572095D01*
X2042457Y-75572095D02*
X1947219Y-75762571D01*
X1947219Y-75762571D02*
X1851980Y-75857809D01*
X1851980Y-75857809D02*
X1661504Y-75953047D01*
X1661504Y-75953047D02*
X1185314Y-75953047D01*
X1185314Y-75953047D02*
X994838Y-75857809D01*
X994838Y-75857809D02*
X899600Y-75762571D01*
X899600Y-75762571D02*
X804361Y-75572095D01*
X804361Y-75572095D02*
X804361Y-75000666D01*
X804361Y-75000666D02*
X899600Y-74810190D01*
X899600Y-74810190D02*
X994838Y-74714952D01*
X2804361Y-77762571D02*
X2804361Y-76810190D01*
X2804361Y-76810190D02*
X1851980Y-76714952D01*
X1851980Y-76714952D02*
X1947219Y-76810190D01*
X1947219Y-76810190D02*
X2042457Y-77000666D01*
X2042457Y-77000666D02*
X2042457Y-77476857D01*
X2042457Y-77476857D02*
X1947219Y-77667333D01*
X1947219Y-77667333D02*
X1851980Y-77762571D01*
X1851980Y-77762571D02*
X1661504Y-77857809D01*
X1661504Y-77857809D02*
X1185314Y-77857809D01*
X1185314Y-77857809D02*
X994838Y-77762571D01*
X994838Y-77762571D02*
X899600Y-77667333D01*
X899600Y-77667333D02*
X804361Y-77476857D01*
X804361Y-77476857D02*
X804361Y-77000666D01*
X804361Y-77000666D02*
X899600Y-76810190D01*
X899600Y-76810190D02*
X994838Y-76714952D01*
X2613885Y-8770190D02*
X2709123Y-8865428D01*
X2709123Y-8865428D02*
X2804361Y-9055904D01*
X2804361Y-9055904D02*
X2804361Y-9532095D01*
X2804361Y-9532095D02*
X2709123Y-9722571D01*
X2709123Y-9722571D02*
X2613885Y-9817809D01*
X2613885Y-9817809D02*
X2423409Y-9913047D01*
X2423409Y-9913047D02*
X2232933Y-9913047D01*
X2232933Y-9913047D02*
X1947219Y-9817809D01*
X1947219Y-9817809D02*
X804361Y-8674952D01*
X804361Y-8674952D02*
X804361Y-9913047D01*
X2613885Y-10674952D02*
X2709123Y-10770190D01*
X2709123Y-10770190D02*
X2804361Y-10960666D01*
X2804361Y-10960666D02*
X2804361Y-11436857D01*
X2804361Y-11436857D02*
X2709123Y-11627333D01*
X2709123Y-11627333D02*
X2613885Y-11722571D01*
X2613885Y-11722571D02*
X2423409Y-11817809D01*
X2423409Y-11817809D02*
X2232933Y-11817809D01*
X2232933Y-11817809D02*
X1947219Y-11722571D01*
X1947219Y-11722571D02*
X804361Y-10579714D01*
X804361Y-10579714D02*
X804361Y-11817809D01*
X54623638Y-56394951D02*
X54623638Y-57537808D01*
X54623638Y-56966380D02*
X52623638Y-56966380D01*
X52623638Y-56966380D02*
X52909352Y-57156856D01*
X52909352Y-57156856D02*
X53099828Y-57347332D01*
X53099828Y-57347332D02*
X53195066Y-57537808D01*
X52623638Y-55156856D02*
X52623638Y-54966379D01*
X52623638Y-54966379D02*
X52718876Y-54775903D01*
X52718876Y-54775903D02*
X52814114Y-54680665D01*
X52814114Y-54680665D02*
X53004590Y-54585427D01*
X53004590Y-54585427D02*
X53385542Y-54490189D01*
X53385542Y-54490189D02*
X53861733Y-54490189D01*
X53861733Y-54490189D02*
X54242685Y-54585427D01*
X54242685Y-54585427D02*
X54433161Y-54680665D01*
X54433161Y-54680665D02*
X54528400Y-54775903D01*
X54528400Y-54775903D02*
X54623638Y-54966379D01*
X54623638Y-54966379D02*
X54623638Y-55156856D01*
X54623638Y-55156856D02*
X54528400Y-55347332D01*
X54528400Y-55347332D02*
X54433161Y-55442570D01*
X54433161Y-55442570D02*
X54242685Y-55537808D01*
X54242685Y-55537808D02*
X53861733Y-55633046D01*
X53861733Y-55633046D02*
X53385542Y-55633046D01*
X53385542Y-55633046D02*
X53004590Y-55537808D01*
X53004590Y-55537808D02*
X52814114Y-55442570D01*
X52814114Y-55442570D02*
X52718876Y-55347332D01*
X52718876Y-55347332D02*
X52623638Y-55156856D01*
D10*
X26839160Y-11172200D02*
X26982017Y-11219819D01*
X26982017Y-11219819D02*
X27220112Y-11219819D01*
X27220112Y-11219819D02*
X27315350Y-11172200D01*
X27315350Y-11172200D02*
X27362969Y-11124580D01*
X27362969Y-11124580D02*
X27410588Y-11029342D01*
X27410588Y-11029342D02*
X27410588Y-10934104D01*
X27410588Y-10934104D02*
X27362969Y-10838866D01*
X27362969Y-10838866D02*
X27315350Y-10791247D01*
X27315350Y-10791247D02*
X27220112Y-10743628D01*
X27220112Y-10743628D02*
X27029636Y-10696009D01*
X27029636Y-10696009D02*
X26934398Y-10648390D01*
X26934398Y-10648390D02*
X26886779Y-10600771D01*
X26886779Y-10600771D02*
X26839160Y-10505533D01*
X26839160Y-10505533D02*
X26839160Y-10410295D01*
X26839160Y-10410295D02*
X26886779Y-10315057D01*
X26886779Y-10315057D02*
X26934398Y-10267438D01*
X26934398Y-10267438D02*
X27029636Y-10219819D01*
X27029636Y-10219819D02*
X27267731Y-10219819D01*
X27267731Y-10219819D02*
X27410588Y-10267438D01*
X27839160Y-11219819D02*
X27839160Y-10219819D01*
X27839160Y-10219819D02*
X28077255Y-10219819D01*
X28077255Y-10219819D02*
X28220112Y-10267438D01*
X28220112Y-10267438D02*
X28315350Y-10362676D01*
X28315350Y-10362676D02*
X28362969Y-10457914D01*
X28362969Y-10457914D02*
X28410588Y-10648390D01*
X28410588Y-10648390D02*
X28410588Y-10791247D01*
X28410588Y-10791247D02*
X28362969Y-10981723D01*
X28362969Y-10981723D02*
X28315350Y-11076961D01*
X28315350Y-11076961D02*
X28220112Y-11172200D01*
X28220112Y-11172200D02*
X28077255Y-11219819D01*
X28077255Y-11219819D02*
X27839160Y-11219819D01*
D11*
X2804361Y-49314952D02*
X2804361Y-50553047D01*
X2804361Y-50553047D02*
X2042457Y-49886380D01*
X2042457Y-49886380D02*
X2042457Y-50172095D01*
X2042457Y-50172095D02*
X1947219Y-50362571D01*
X1947219Y-50362571D02*
X1851980Y-50457809D01*
X1851980Y-50457809D02*
X1661504Y-50553047D01*
X1661504Y-50553047D02*
X1185314Y-50553047D01*
X1185314Y-50553047D02*
X994838Y-50457809D01*
X994838Y-50457809D02*
X899600Y-50362571D01*
X899600Y-50362571D02*
X804361Y-50172095D01*
X804361Y-50172095D02*
X804361Y-49600666D01*
X804361Y-49600666D02*
X899600Y-49410190D01*
X899600Y-49410190D02*
X994838Y-49314952D01*
X2804361Y-51791142D02*
X2804361Y-51981619D01*
X2804361Y-51981619D02*
X2709123Y-52172095D01*
X2709123Y-52172095D02*
X2613885Y-52267333D01*
X2613885Y-52267333D02*
X2423409Y-52362571D01*
X2423409Y-52362571D02*
X2042457Y-52457809D01*
X2042457Y-52457809D02*
X1566266Y-52457809D01*
X1566266Y-52457809D02*
X1185314Y-52362571D01*
X1185314Y-52362571D02*
X994838Y-52267333D01*
X994838Y-52267333D02*
X899600Y-52172095D01*
X899600Y-52172095D02*
X804361Y-51981619D01*
X804361Y-51981619D02*
X804361Y-51791142D01*
X804361Y-51791142D02*
X899600Y-51600666D01*
X899600Y-51600666D02*
X994838Y-51505428D01*
X994838Y-51505428D02*
X1185314Y-51410190D01*
X1185314Y-51410190D02*
X1566266Y-51314952D01*
X1566266Y-51314952D02*
X2042457Y-51314952D01*
X2042457Y-51314952D02*
X2423409Y-51410190D01*
X2423409Y-51410190D02*
X2613885Y-51505428D01*
X2613885Y-51505428D02*
X2709123Y-51600666D01*
X2709123Y-51600666D02*
X2804361Y-51791142D01*
X52814114Y-108337808D02*
X52718876Y-108242570D01*
X52718876Y-108242570D02*
X52623638Y-108052094D01*
X52623638Y-108052094D02*
X52623638Y-107575903D01*
X52623638Y-107575903D02*
X52718876Y-107385427D01*
X52718876Y-107385427D02*
X52814114Y-107290189D01*
X52814114Y-107290189D02*
X53004590Y-107194951D01*
X53004590Y-107194951D02*
X53195066Y-107194951D01*
X53195066Y-107194951D02*
X53480780Y-107290189D01*
X53480780Y-107290189D02*
X54623638Y-108433046D01*
X54623638Y-108433046D02*
X54623638Y-107194951D01*
X52623638Y-105956856D02*
X52623638Y-105766379D01*
X52623638Y-105766379D02*
X52718876Y-105575903D01*
X52718876Y-105575903D02*
X52814114Y-105480665D01*
X52814114Y-105480665D02*
X53004590Y-105385427D01*
X53004590Y-105385427D02*
X53385542Y-105290189D01*
X53385542Y-105290189D02*
X53861733Y-105290189D01*
X53861733Y-105290189D02*
X54242685Y-105385427D01*
X54242685Y-105385427D02*
X54433161Y-105480665D01*
X54433161Y-105480665D02*
X54528400Y-105575903D01*
X54528400Y-105575903D02*
X54623638Y-105766379D01*
X54623638Y-105766379D02*
X54623638Y-105956856D01*
X54623638Y-105956856D02*
X54528400Y-106147332D01*
X54528400Y-106147332D02*
X54433161Y-106242570D01*
X54433161Y-106242570D02*
X54242685Y-106337808D01*
X54242685Y-106337808D02*
X53861733Y-106433046D01*
X53861733Y-106433046D02*
X53385542Y-106433046D01*
X53385542Y-106433046D02*
X53004590Y-106337808D01*
X53004590Y-106337808D02*
X52814114Y-106242570D01*
X52814114Y-106242570D02*
X52718876Y-106147332D01*
X52718876Y-106147332D02*
X52623638Y-105956856D01*
X52814114Y-15945427D02*
X52718876Y-15850189D01*
X52718876Y-15850189D02*
X52623638Y-15659713D01*
X52623638Y-15659713D02*
X52623638Y-15183522D01*
X52623638Y-15183522D02*
X52718876Y-14993046D01*
X52718876Y-14993046D02*
X52814114Y-14897808D01*
X52814114Y-14897808D02*
X53004590Y-14802570D01*
X53004590Y-14802570D02*
X53195066Y-14802570D01*
X53195066Y-14802570D02*
X53480780Y-14897808D01*
X53480780Y-14897808D02*
X54623638Y-16040665D01*
X54623638Y-16040665D02*
X54623638Y-14802570D01*
X25611653Y-116200828D02*
X26540225Y-116200828D01*
X26540225Y-116200828D02*
X26040225Y-116772257D01*
X26040225Y-116772257D02*
X26254510Y-116772257D01*
X26254510Y-116772257D02*
X26397368Y-116843685D01*
X26397368Y-116843685D02*
X26468796Y-116915114D01*
X26468796Y-116915114D02*
X26540225Y-117057971D01*
X26540225Y-117057971D02*
X26540225Y-117415114D01*
X26540225Y-117415114D02*
X26468796Y-117557971D01*
X26468796Y-117557971D02*
X26397368Y-117629400D01*
X26397368Y-117629400D02*
X26254510Y-117700828D01*
X26254510Y-117700828D02*
X25825939Y-117700828D01*
X25825939Y-117700828D02*
X25683082Y-117629400D01*
X25683082Y-117629400D02*
X25611653Y-117557971D01*
X27183081Y-117557971D02*
X27254510Y-117629400D01*
X27254510Y-117629400D02*
X27183081Y-117700828D01*
X27183081Y-117700828D02*
X27111653Y-117629400D01*
X27111653Y-117629400D02*
X27183081Y-117557971D01*
X27183081Y-117557971D02*
X27183081Y-117700828D01*
X27754510Y-116200828D02*
X28683082Y-116200828D01*
X28683082Y-116200828D02*
X28183082Y-116772257D01*
X28183082Y-116772257D02*
X28397367Y-116772257D01*
X28397367Y-116772257D02*
X28540225Y-116843685D01*
X28540225Y-116843685D02*
X28611653Y-116915114D01*
X28611653Y-116915114D02*
X28683082Y-117057971D01*
X28683082Y-117057971D02*
X28683082Y-117415114D01*
X28683082Y-117415114D02*
X28611653Y-117557971D01*
X28611653Y-117557971D02*
X28540225Y-117629400D01*
X28540225Y-117629400D02*
X28397367Y-117700828D01*
X28397367Y-117700828D02*
X27968796Y-117700828D01*
X27968796Y-117700828D02*
X27825939Y-117629400D01*
X27825939Y-117629400D02*
X27754510Y-117557971D01*
X29111653Y-116200828D02*
X29611653Y-117700828D01*
X29611653Y-117700828D02*
X30111653Y-116200828D01*
X54623638Y-81794951D02*
X54623638Y-82937808D01*
X54623638Y-82366380D02*
X52623638Y-82366380D01*
X52623638Y-82366380D02*
X52909352Y-82556856D01*
X52909352Y-82556856D02*
X53099828Y-82747332D01*
X53099828Y-82747332D02*
X53195066Y-82937808D01*
X52623638Y-79985427D02*
X52623638Y-80937808D01*
X52623638Y-80937808D02*
X53576019Y-81033046D01*
X53576019Y-81033046D02*
X53480780Y-80937808D01*
X53480780Y-80937808D02*
X53385542Y-80747332D01*
X53385542Y-80747332D02*
X53385542Y-80271141D01*
X53385542Y-80271141D02*
X53480780Y-80080665D01*
X53480780Y-80080665D02*
X53576019Y-79985427D01*
X53576019Y-79985427D02*
X53766495Y-79890189D01*
X53766495Y-79890189D02*
X54242685Y-79890189D01*
X54242685Y-79890189D02*
X54433161Y-79985427D01*
X54433161Y-79985427D02*
X54528400Y-80080665D01*
X54528400Y-80080665D02*
X54623638Y-80271141D01*
X54623638Y-80271141D02*
X54623638Y-80747332D01*
X54623638Y-80747332D02*
X54528400Y-80937808D01*
X54528400Y-80937808D02*
X54433161Y-81033046D01*
X2804361Y-84874952D02*
X2804361Y-86113047D01*
X2804361Y-86113047D02*
X2042457Y-85446380D01*
X2042457Y-85446380D02*
X2042457Y-85732095D01*
X2042457Y-85732095D02*
X1947219Y-85922571D01*
X1947219Y-85922571D02*
X1851980Y-86017809D01*
X1851980Y-86017809D02*
X1661504Y-86113047D01*
X1661504Y-86113047D02*
X1185314Y-86113047D01*
X1185314Y-86113047D02*
X994838Y-86017809D01*
X994838Y-86017809D02*
X899600Y-85922571D01*
X899600Y-85922571D02*
X804361Y-85732095D01*
X804361Y-85732095D02*
X804361Y-85160666D01*
X804361Y-85160666D02*
X899600Y-84970190D01*
X899600Y-84970190D02*
X994838Y-84874952D01*
X2804361Y-86779714D02*
X2804361Y-88113047D01*
X2804361Y-88113047D02*
X804361Y-87255904D01*
X32940225Y-116272257D02*
X32797368Y-116200828D01*
X32797368Y-116200828D02*
X32583082Y-116200828D01*
X32583082Y-116200828D02*
X32368796Y-116272257D01*
X32368796Y-116272257D02*
X32225939Y-116415114D01*
X32225939Y-116415114D02*
X32154510Y-116557971D01*
X32154510Y-116557971D02*
X32083082Y-116843685D01*
X32083082Y-116843685D02*
X32083082Y-117057971D01*
X32083082Y-117057971D02*
X32154510Y-117343685D01*
X32154510Y-117343685D02*
X32225939Y-117486542D01*
X32225939Y-117486542D02*
X32368796Y-117629400D01*
X32368796Y-117629400D02*
X32583082Y-117700828D01*
X32583082Y-117700828D02*
X32725939Y-117700828D01*
X32725939Y-117700828D02*
X32940225Y-117629400D01*
X32940225Y-117629400D02*
X33011653Y-117557971D01*
X33011653Y-117557971D02*
X33011653Y-117057971D01*
X33011653Y-117057971D02*
X32725939Y-117057971D01*
X33654510Y-117700828D02*
X33654510Y-116200828D01*
X33654510Y-116200828D02*
X34511653Y-117700828D01*
X34511653Y-117700828D02*
X34511653Y-116200828D01*
X35225939Y-117700828D02*
X35225939Y-116200828D01*
X35225939Y-116200828D02*
X35583082Y-116200828D01*
X35583082Y-116200828D02*
X35797368Y-116272257D01*
X35797368Y-116272257D02*
X35940225Y-116415114D01*
X35940225Y-116415114D02*
X36011654Y-116557971D01*
X36011654Y-116557971D02*
X36083082Y-116843685D01*
X36083082Y-116843685D02*
X36083082Y-117057971D01*
X36083082Y-117057971D02*
X36011654Y-117343685D01*
X36011654Y-117343685D02*
X35940225Y-117486542D01*
X35940225Y-117486542D02*
X35797368Y-117629400D01*
X35797368Y-117629400D02*
X35583082Y-117700828D01*
X35583082Y-117700828D02*
X35225939Y-117700828D01*
X2804361Y-89954952D02*
X2804361Y-91193047D01*
X2804361Y-91193047D02*
X2042457Y-90526380D01*
X2042457Y-90526380D02*
X2042457Y-90812095D01*
X2042457Y-90812095D02*
X1947219Y-91002571D01*
X1947219Y-91002571D02*
X1851980Y-91097809D01*
X1851980Y-91097809D02*
X1661504Y-91193047D01*
X1661504Y-91193047D02*
X1185314Y-91193047D01*
X1185314Y-91193047D02*
X994838Y-91097809D01*
X994838Y-91097809D02*
X899600Y-91002571D01*
X899600Y-91002571D02*
X804361Y-90812095D01*
X804361Y-90812095D02*
X804361Y-90240666D01*
X804361Y-90240666D02*
X899600Y-90050190D01*
X899600Y-90050190D02*
X994838Y-89954952D01*
X1947219Y-92335904D02*
X2042457Y-92145428D01*
X2042457Y-92145428D02*
X2137695Y-92050190D01*
X2137695Y-92050190D02*
X2328171Y-91954952D01*
X2328171Y-91954952D02*
X2423409Y-91954952D01*
X2423409Y-91954952D02*
X2613885Y-92050190D01*
X2613885Y-92050190D02*
X2709123Y-92145428D01*
X2709123Y-92145428D02*
X2804361Y-92335904D01*
X2804361Y-92335904D02*
X2804361Y-92716857D01*
X2804361Y-92716857D02*
X2709123Y-92907333D01*
X2709123Y-92907333D02*
X2613885Y-93002571D01*
X2613885Y-93002571D02*
X2423409Y-93097809D01*
X2423409Y-93097809D02*
X2328171Y-93097809D01*
X2328171Y-93097809D02*
X2137695Y-93002571D01*
X2137695Y-93002571D02*
X2042457Y-92907333D01*
X2042457Y-92907333D02*
X1947219Y-92716857D01*
X1947219Y-92716857D02*
X1947219Y-92335904D01*
X1947219Y-92335904D02*
X1851980Y-92145428D01*
X1851980Y-92145428D02*
X1756742Y-92050190D01*
X1756742Y-92050190D02*
X1566266Y-91954952D01*
X1566266Y-91954952D02*
X1185314Y-91954952D01*
X1185314Y-91954952D02*
X994838Y-92050190D01*
X994838Y-92050190D02*
X899600Y-92145428D01*
X899600Y-92145428D02*
X804361Y-92335904D01*
X804361Y-92335904D02*
X804361Y-92716857D01*
X804361Y-92716857D02*
X899600Y-92907333D01*
X899600Y-92907333D02*
X994838Y-93002571D01*
X994838Y-93002571D02*
X1185314Y-93097809D01*
X1185314Y-93097809D02*
X1566266Y-93097809D01*
X1566266Y-93097809D02*
X1756742Y-93002571D01*
X1756742Y-93002571D02*
X1851980Y-92907333D01*
X1851980Y-92907333D02*
X1947219Y-92716857D01*
X52623638Y-35313046D02*
X52623638Y-35693999D01*
X52623638Y-35693999D02*
X52718876Y-35884475D01*
X52718876Y-35884475D02*
X52814114Y-35979713D01*
X52814114Y-35979713D02*
X53099828Y-36170189D01*
X53099828Y-36170189D02*
X53480780Y-36265427D01*
X53480780Y-36265427D02*
X54242685Y-36265427D01*
X54242685Y-36265427D02*
X54433161Y-36170189D01*
X54433161Y-36170189D02*
X54528400Y-36074951D01*
X54528400Y-36074951D02*
X54623638Y-35884475D01*
X54623638Y-35884475D02*
X54623638Y-35503522D01*
X54623638Y-35503522D02*
X54528400Y-35313046D01*
X54528400Y-35313046D02*
X54433161Y-35217808D01*
X54433161Y-35217808D02*
X54242685Y-35122570D01*
X54242685Y-35122570D02*
X53766495Y-35122570D01*
X53766495Y-35122570D02*
X53576019Y-35217808D01*
X53576019Y-35217808D02*
X53480780Y-35313046D01*
X53480780Y-35313046D02*
X53385542Y-35503522D01*
X53385542Y-35503522D02*
X53385542Y-35884475D01*
X53385542Y-35884475D02*
X53480780Y-36074951D01*
X53480780Y-36074951D02*
X53576019Y-36170189D01*
X53576019Y-36170189D02*
X53766495Y-36265427D01*
X54623638Y-97034951D02*
X54623638Y-98177808D01*
X54623638Y-97606380D02*
X52623638Y-97606380D01*
X52623638Y-97606380D02*
X52909352Y-97796856D01*
X52909352Y-97796856D02*
X53099828Y-97987332D01*
X53099828Y-97987332D02*
X53195066Y-98177808D01*
X53480780Y-95892094D02*
X53385542Y-96082570D01*
X53385542Y-96082570D02*
X53290304Y-96177808D01*
X53290304Y-96177808D02*
X53099828Y-96273046D01*
X53099828Y-96273046D02*
X53004590Y-96273046D01*
X53004590Y-96273046D02*
X52814114Y-96177808D01*
X52814114Y-96177808D02*
X52718876Y-96082570D01*
X52718876Y-96082570D02*
X52623638Y-95892094D01*
X52623638Y-95892094D02*
X52623638Y-95511141D01*
X52623638Y-95511141D02*
X52718876Y-95320665D01*
X52718876Y-95320665D02*
X52814114Y-95225427D01*
X52814114Y-95225427D02*
X53004590Y-95130189D01*
X53004590Y-95130189D02*
X53099828Y-95130189D01*
X53099828Y-95130189D02*
X53290304Y-95225427D01*
X53290304Y-95225427D02*
X53385542Y-95320665D01*
X53385542Y-95320665D02*
X53480780Y-95511141D01*
X53480780Y-95511141D02*
X53480780Y-95892094D01*
X53480780Y-95892094D02*
X53576019Y-96082570D01*
X53576019Y-96082570D02*
X53671257Y-96177808D01*
X53671257Y-96177808D02*
X53861733Y-96273046D01*
X53861733Y-96273046D02*
X54242685Y-96273046D01*
X54242685Y-96273046D02*
X54433161Y-96177808D01*
X54433161Y-96177808D02*
X54528400Y-96082570D01*
X54528400Y-96082570D02*
X54623638Y-95892094D01*
X54623638Y-95892094D02*
X54623638Y-95511141D01*
X54623638Y-95511141D02*
X54528400Y-95320665D01*
X54528400Y-95320665D02*
X54433161Y-95225427D01*
X54433161Y-95225427D02*
X54242685Y-95130189D01*
X54242685Y-95130189D02*
X53861733Y-95130189D01*
X53861733Y-95130189D02*
X53671257Y-95225427D01*
X53671257Y-95225427D02*
X53576019Y-95320665D01*
X53576019Y-95320665D02*
X53480780Y-95511141D01*
X52814114Y-113417808D02*
X52718876Y-113322570D01*
X52718876Y-113322570D02*
X52623638Y-113132094D01*
X52623638Y-113132094D02*
X52623638Y-112655903D01*
X52623638Y-112655903D02*
X52718876Y-112465427D01*
X52718876Y-112465427D02*
X52814114Y-112370189D01*
X52814114Y-112370189D02*
X53004590Y-112274951D01*
X53004590Y-112274951D02*
X53195066Y-112274951D01*
X53195066Y-112274951D02*
X53480780Y-112370189D01*
X53480780Y-112370189D02*
X54623638Y-113513046D01*
X54623638Y-113513046D02*
X54623638Y-112274951D01*
X54623638Y-110370189D02*
X54623638Y-111513046D01*
X54623638Y-110941618D02*
X52623638Y-110941618D01*
X52623638Y-110941618D02*
X52909352Y-111132094D01*
X52909352Y-111132094D02*
X53099828Y-111322570D01*
X53099828Y-111322570D02*
X53195066Y-111513046D01*
X54623638Y-71634951D02*
X54623638Y-72777808D01*
X54623638Y-72206380D02*
X52623638Y-72206380D01*
X52623638Y-72206380D02*
X52909352Y-72396856D01*
X52909352Y-72396856D02*
X53099828Y-72587332D01*
X53099828Y-72587332D02*
X53195066Y-72777808D01*
X52623638Y-70968284D02*
X52623638Y-69730189D01*
X52623638Y-69730189D02*
X53385542Y-70396856D01*
X53385542Y-70396856D02*
X53385542Y-70111141D01*
X53385542Y-70111141D02*
X53480780Y-69920665D01*
X53480780Y-69920665D02*
X53576019Y-69825427D01*
X53576019Y-69825427D02*
X53766495Y-69730189D01*
X53766495Y-69730189D02*
X54242685Y-69730189D01*
X54242685Y-69730189D02*
X54433161Y-69825427D01*
X54433161Y-69825427D02*
X54528400Y-69920665D01*
X54528400Y-69920665D02*
X54623638Y-70111141D01*
X54623638Y-70111141D02*
X54623638Y-70682570D01*
X54623638Y-70682570D02*
X54528400Y-70873046D01*
X54528400Y-70873046D02*
X54433161Y-70968284D01*
X54623638Y-51314951D02*
X54623638Y-50933999D01*
X54623638Y-50933999D02*
X54528400Y-50743522D01*
X54528400Y-50743522D02*
X54433161Y-50648284D01*
X54433161Y-50648284D02*
X54147447Y-50457808D01*
X54147447Y-50457808D02*
X53766495Y-50362570D01*
X53766495Y-50362570D02*
X53004590Y-50362570D01*
X53004590Y-50362570D02*
X52814114Y-50457808D01*
X52814114Y-50457808D02*
X52718876Y-50553046D01*
X52718876Y-50553046D02*
X52623638Y-50743522D01*
X52623638Y-50743522D02*
X52623638Y-51124475D01*
X52623638Y-51124475D02*
X52718876Y-51314951D01*
X52718876Y-51314951D02*
X52814114Y-51410189D01*
X52814114Y-51410189D02*
X53004590Y-51505427D01*
X53004590Y-51505427D02*
X53480780Y-51505427D01*
X53480780Y-51505427D02*
X53671257Y-51410189D01*
X53671257Y-51410189D02*
X53766495Y-51314951D01*
X53766495Y-51314951D02*
X53861733Y-51124475D01*
X53861733Y-51124475D02*
X53861733Y-50743522D01*
X53861733Y-50743522D02*
X53766495Y-50553046D01*
X53766495Y-50553046D02*
X53671257Y-50457808D01*
X53671257Y-50457808D02*
X53480780Y-50362570D01*
X52623638Y-21120665D02*
X52623638Y-19882570D01*
X52623638Y-19882570D02*
X53385542Y-20549237D01*
X53385542Y-20549237D02*
X53385542Y-20263522D01*
X53385542Y-20263522D02*
X53480780Y-20073046D01*
X53480780Y-20073046D02*
X53576019Y-19977808D01*
X53576019Y-19977808D02*
X53766495Y-19882570D01*
X53766495Y-19882570D02*
X54242685Y-19882570D01*
X54242685Y-19882570D02*
X54433161Y-19977808D01*
X54433161Y-19977808D02*
X54528400Y-20073046D01*
X54528400Y-20073046D02*
X54623638Y-20263522D01*
X54623638Y-20263522D02*
X54623638Y-20834951D01*
X54623638Y-20834951D02*
X54528400Y-21025427D01*
X54528400Y-21025427D02*
X54433161Y-21120665D01*
X2804361Y-95034952D02*
X2804361Y-96273047D01*
X2804361Y-96273047D02*
X2042457Y-95606380D01*
X2042457Y-95606380D02*
X2042457Y-95892095D01*
X2042457Y-95892095D02*
X1947219Y-96082571D01*
X1947219Y-96082571D02*
X1851980Y-96177809D01*
X1851980Y-96177809D02*
X1661504Y-96273047D01*
X1661504Y-96273047D02*
X1185314Y-96273047D01*
X1185314Y-96273047D02*
X994838Y-96177809D01*
X994838Y-96177809D02*
X899600Y-96082571D01*
X899600Y-96082571D02*
X804361Y-95892095D01*
X804361Y-95892095D02*
X804361Y-95320666D01*
X804361Y-95320666D02*
X899600Y-95130190D01*
X899600Y-95130190D02*
X994838Y-95034952D01*
X804361Y-97225428D02*
X804361Y-97606380D01*
X804361Y-97606380D02*
X899600Y-97796857D01*
X899600Y-97796857D02*
X994838Y-97892095D01*
X994838Y-97892095D02*
X1280552Y-98082571D01*
X1280552Y-98082571D02*
X1661504Y-98177809D01*
X1661504Y-98177809D02*
X2423409Y-98177809D01*
X2423409Y-98177809D02*
X2613885Y-98082571D01*
X2613885Y-98082571D02*
X2709123Y-97987333D01*
X2709123Y-97987333D02*
X2804361Y-97796857D01*
X2804361Y-97796857D02*
X2804361Y-97415904D01*
X2804361Y-97415904D02*
X2709123Y-97225428D01*
X2709123Y-97225428D02*
X2613885Y-97130190D01*
X2613885Y-97130190D02*
X2423409Y-97034952D01*
X2423409Y-97034952D02*
X1947219Y-97034952D01*
X1947219Y-97034952D02*
X1756742Y-97130190D01*
X1756742Y-97130190D02*
X1661504Y-97225428D01*
X1661504Y-97225428D02*
X1566266Y-97415904D01*
X1566266Y-97415904D02*
X1566266Y-97796857D01*
X1566266Y-97796857D02*
X1661504Y-97987333D01*
X1661504Y-97987333D02*
X1756742Y-98082571D01*
X1756742Y-98082571D02*
X1947219Y-98177809D01*
X21968796Y-116150828D02*
X21254510Y-116150828D01*
X21254510Y-116150828D02*
X21183082Y-116865114D01*
X21183082Y-116865114D02*
X21254510Y-116793685D01*
X21254510Y-116793685D02*
X21397368Y-116722257D01*
X21397368Y-116722257D02*
X21754510Y-116722257D01*
X21754510Y-116722257D02*
X21897368Y-116793685D01*
X21897368Y-116793685D02*
X21968796Y-116865114D01*
X21968796Y-116865114D02*
X22040225Y-117007971D01*
X22040225Y-117007971D02*
X22040225Y-117365114D01*
X22040225Y-117365114D02*
X21968796Y-117507971D01*
X21968796Y-117507971D02*
X21897368Y-117579400D01*
X21897368Y-117579400D02*
X21754510Y-117650828D01*
X21754510Y-117650828D02*
X21397368Y-117650828D01*
X21397368Y-117650828D02*
X21254510Y-117579400D01*
X21254510Y-117579400D02*
X21183082Y-117507971D01*
X22468796Y-116150828D02*
X22968796Y-117650828D01*
X22968796Y-117650828D02*
X23468796Y-116150828D01*
X54623638Y-102114951D02*
X54623638Y-103257808D01*
X54623638Y-102686380D02*
X52623638Y-102686380D01*
X52623638Y-102686380D02*
X52909352Y-102876856D01*
X52909352Y-102876856D02*
X53099828Y-103067332D01*
X53099828Y-103067332D02*
X53195066Y-103257808D01*
X54623638Y-101162570D02*
X54623638Y-100781618D01*
X54623638Y-100781618D02*
X54528400Y-100591141D01*
X54528400Y-100591141D02*
X54433161Y-100495903D01*
X54433161Y-100495903D02*
X54147447Y-100305427D01*
X54147447Y-100305427D02*
X53766495Y-100210189D01*
X53766495Y-100210189D02*
X53004590Y-100210189D01*
X53004590Y-100210189D02*
X52814114Y-100305427D01*
X52814114Y-100305427D02*
X52718876Y-100400665D01*
X52718876Y-100400665D02*
X52623638Y-100591141D01*
X52623638Y-100591141D02*
X52623638Y-100972094D01*
X52623638Y-100972094D02*
X52718876Y-101162570D01*
X52718876Y-101162570D02*
X52814114Y-101257808D01*
X52814114Y-101257808D02*
X53004590Y-101353046D01*
X53004590Y-101353046D02*
X53480780Y-101353046D01*
X53480780Y-101353046D02*
X53671257Y-101257808D01*
X53671257Y-101257808D02*
X53766495Y-101162570D01*
X53766495Y-101162570D02*
X53861733Y-100972094D01*
X53861733Y-100972094D02*
X53861733Y-100591141D01*
X53861733Y-100591141D02*
X53766495Y-100400665D01*
X53766495Y-100400665D02*
X53671257Y-100305427D01*
X53671257Y-100305427D02*
X53480780Y-100210189D01*
X2613885Y-13850190D02*
X2709123Y-13945428D01*
X2709123Y-13945428D02*
X2804361Y-14135904D01*
X2804361Y-14135904D02*
X2804361Y-14612095D01*
X2804361Y-14612095D02*
X2709123Y-14802571D01*
X2709123Y-14802571D02*
X2613885Y-14897809D01*
X2613885Y-14897809D02*
X2423409Y-14993047D01*
X2423409Y-14993047D02*
X2232933Y-14993047D01*
X2232933Y-14993047D02*
X1947219Y-14897809D01*
X1947219Y-14897809D02*
X804361Y-13754952D01*
X804361Y-13754952D02*
X804361Y-14993047D01*
X2804361Y-15659714D02*
X2804361Y-16897809D01*
X2804361Y-16897809D02*
X2042457Y-16231142D01*
X2042457Y-16231142D02*
X2042457Y-16516857D01*
X2042457Y-16516857D02*
X1947219Y-16707333D01*
X1947219Y-16707333D02*
X1851980Y-16802571D01*
X1851980Y-16802571D02*
X1661504Y-16897809D01*
X1661504Y-16897809D02*
X1185314Y-16897809D01*
X1185314Y-16897809D02*
X994838Y-16802571D01*
X994838Y-16802571D02*
X899600Y-16707333D01*
X899600Y-16707333D02*
X804361Y-16516857D01*
X804361Y-16516857D02*
X804361Y-15945428D01*
X804361Y-15945428D02*
X899600Y-15754952D01*
X899600Y-15754952D02*
X994838Y-15659714D01*
X2137695Y-111322571D02*
X804361Y-111322571D01*
X2899600Y-110846380D02*
X1471028Y-110370190D01*
X1471028Y-110370190D02*
X1471028Y-111608285D01*
X2613885Y-112274952D02*
X2709123Y-112370190D01*
X2709123Y-112370190D02*
X2804361Y-112560666D01*
X2804361Y-112560666D02*
X2804361Y-113036857D01*
X2804361Y-113036857D02*
X2709123Y-113227333D01*
X2709123Y-113227333D02*
X2613885Y-113322571D01*
X2613885Y-113322571D02*
X2423409Y-113417809D01*
X2423409Y-113417809D02*
X2232933Y-113417809D01*
X2232933Y-113417809D02*
X1947219Y-113322571D01*
X1947219Y-113322571D02*
X804361Y-112179714D01*
X804361Y-112179714D02*
X804361Y-113417809D01*
X2804361Y-69634952D02*
X2804361Y-70873047D01*
X2804361Y-70873047D02*
X2042457Y-70206380D01*
X2042457Y-70206380D02*
X2042457Y-70492095D01*
X2042457Y-70492095D02*
X1947219Y-70682571D01*
X1947219Y-70682571D02*
X1851980Y-70777809D01*
X1851980Y-70777809D02*
X1661504Y-70873047D01*
X1661504Y-70873047D02*
X1185314Y-70873047D01*
X1185314Y-70873047D02*
X994838Y-70777809D01*
X994838Y-70777809D02*
X899600Y-70682571D01*
X899600Y-70682571D02*
X804361Y-70492095D01*
X804361Y-70492095D02*
X804361Y-69920666D01*
X804361Y-69920666D02*
X899600Y-69730190D01*
X899600Y-69730190D02*
X994838Y-69634952D01*
X2137695Y-72587333D02*
X804361Y-72587333D01*
X2899600Y-72111142D02*
X1471028Y-71634952D01*
X1471028Y-71634952D02*
X1471028Y-72873047D01*
X2137695Y-106242571D02*
X804361Y-106242571D01*
X2899600Y-105766380D02*
X1471028Y-105290190D01*
X1471028Y-105290190D02*
X1471028Y-106528285D01*
X804361Y-108337809D02*
X804361Y-107194952D01*
X804361Y-107766380D02*
X2804361Y-107766380D01*
X2804361Y-107766380D02*
X2518647Y-107575904D01*
X2518647Y-107575904D02*
X2328171Y-107385428D01*
X2328171Y-107385428D02*
X2232933Y-107194952D01*
X2613885Y-24010190D02*
X2709123Y-24105428D01*
X2709123Y-24105428D02*
X2804361Y-24295904D01*
X2804361Y-24295904D02*
X2804361Y-24772095D01*
X2804361Y-24772095D02*
X2709123Y-24962571D01*
X2709123Y-24962571D02*
X2613885Y-25057809D01*
X2613885Y-25057809D02*
X2423409Y-25153047D01*
X2423409Y-25153047D02*
X2232933Y-25153047D01*
X2232933Y-25153047D02*
X1947219Y-25057809D01*
X1947219Y-25057809D02*
X804361Y-23914952D01*
X804361Y-23914952D02*
X804361Y-25153047D01*
X2804361Y-26962571D02*
X2804361Y-26010190D01*
X2804361Y-26010190D02*
X1851980Y-25914952D01*
X1851980Y-25914952D02*
X1947219Y-26010190D01*
X1947219Y-26010190D02*
X2042457Y-26200666D01*
X2042457Y-26200666D02*
X2042457Y-26676857D01*
X2042457Y-26676857D02*
X1947219Y-26867333D01*
X1947219Y-26867333D02*
X1851980Y-26962571D01*
X1851980Y-26962571D02*
X1661504Y-27057809D01*
X1661504Y-27057809D02*
X1185314Y-27057809D01*
X1185314Y-27057809D02*
X994838Y-26962571D01*
X994838Y-26962571D02*
X899600Y-26867333D01*
X899600Y-26867333D02*
X804361Y-26676857D01*
X804361Y-26676857D02*
X804361Y-26200666D01*
X804361Y-26200666D02*
X899600Y-26010190D01*
X899600Y-26010190D02*
X994838Y-25914952D01*
X53290304Y-25153046D02*
X54623638Y-25153046D01*
X52528400Y-25629237D02*
X53956971Y-26105427D01*
X53956971Y-26105427D02*
X53956971Y-24867332D01*
X54623638Y-66554951D02*
X54623638Y-67697808D01*
X54623638Y-67126380D02*
X52623638Y-67126380D01*
X52623638Y-67126380D02*
X52909352Y-67316856D01*
X52909352Y-67316856D02*
X53099828Y-67507332D01*
X53099828Y-67507332D02*
X53195066Y-67697808D01*
X52814114Y-65793046D02*
X52718876Y-65697808D01*
X52718876Y-65697808D02*
X52623638Y-65507332D01*
X52623638Y-65507332D02*
X52623638Y-65031141D01*
X52623638Y-65031141D02*
X52718876Y-64840665D01*
X52718876Y-64840665D02*
X52814114Y-64745427D01*
X52814114Y-64745427D02*
X53004590Y-64650189D01*
X53004590Y-64650189D02*
X53195066Y-64650189D01*
X53195066Y-64650189D02*
X53480780Y-64745427D01*
X53480780Y-64745427D02*
X54623638Y-65888284D01*
X54623638Y-65888284D02*
X54623638Y-64650189D01*
X2613885Y-44330190D02*
X2709123Y-44425428D01*
X2709123Y-44425428D02*
X2804361Y-44615904D01*
X2804361Y-44615904D02*
X2804361Y-45092095D01*
X2804361Y-45092095D02*
X2709123Y-45282571D01*
X2709123Y-45282571D02*
X2613885Y-45377809D01*
X2613885Y-45377809D02*
X2423409Y-45473047D01*
X2423409Y-45473047D02*
X2232933Y-45473047D01*
X2232933Y-45473047D02*
X1947219Y-45377809D01*
X1947219Y-45377809D02*
X804361Y-44234952D01*
X804361Y-44234952D02*
X804361Y-45473047D01*
X804361Y-46425428D02*
X804361Y-46806380D01*
X804361Y-46806380D02*
X899600Y-46996857D01*
X899600Y-46996857D02*
X994838Y-47092095D01*
X994838Y-47092095D02*
X1280552Y-47282571D01*
X1280552Y-47282571D02*
X1661504Y-47377809D01*
X1661504Y-47377809D02*
X2423409Y-47377809D01*
X2423409Y-47377809D02*
X2613885Y-47282571D01*
X2613885Y-47282571D02*
X2709123Y-47187333D01*
X2709123Y-47187333D02*
X2804361Y-46996857D01*
X2804361Y-46996857D02*
X2804361Y-46615904D01*
X2804361Y-46615904D02*
X2709123Y-46425428D01*
X2709123Y-46425428D02*
X2613885Y-46330190D01*
X2613885Y-46330190D02*
X2423409Y-46234952D01*
X2423409Y-46234952D02*
X1947219Y-46234952D01*
X1947219Y-46234952D02*
X1756742Y-46330190D01*
X1756742Y-46330190D02*
X1661504Y-46425428D01*
X1661504Y-46425428D02*
X1566266Y-46615904D01*
X1566266Y-46615904D02*
X1566266Y-46996857D01*
X1566266Y-46996857D02*
X1661504Y-47187333D01*
X1661504Y-47187333D02*
X1756742Y-47282571D01*
X1756742Y-47282571D02*
X1947219Y-47377809D01*
X2804361Y-64554952D02*
X2804361Y-65793047D01*
X2804361Y-65793047D02*
X2042457Y-65126380D01*
X2042457Y-65126380D02*
X2042457Y-65412095D01*
X2042457Y-65412095D02*
X1947219Y-65602571D01*
X1947219Y-65602571D02*
X1851980Y-65697809D01*
X1851980Y-65697809D02*
X1661504Y-65793047D01*
X1661504Y-65793047D02*
X1185314Y-65793047D01*
X1185314Y-65793047D02*
X994838Y-65697809D01*
X994838Y-65697809D02*
X899600Y-65602571D01*
X899600Y-65602571D02*
X804361Y-65412095D01*
X804361Y-65412095D02*
X804361Y-64840666D01*
X804361Y-64840666D02*
X899600Y-64650190D01*
X899600Y-64650190D02*
X994838Y-64554952D01*
X2804361Y-66459714D02*
X2804361Y-67697809D01*
X2804361Y-67697809D02*
X2042457Y-67031142D01*
X2042457Y-67031142D02*
X2042457Y-67316857D01*
X2042457Y-67316857D02*
X1947219Y-67507333D01*
X1947219Y-67507333D02*
X1851980Y-67602571D01*
X1851980Y-67602571D02*
X1661504Y-67697809D01*
X1661504Y-67697809D02*
X1185314Y-67697809D01*
X1185314Y-67697809D02*
X994838Y-67602571D01*
X994838Y-67602571D02*
X899600Y-67507333D01*
X899600Y-67507333D02*
X804361Y-67316857D01*
X804361Y-67316857D02*
X804361Y-66745428D01*
X804361Y-66745428D02*
X899600Y-66554952D01*
X899600Y-66554952D02*
X994838Y-66459714D01*
X52623638Y-30137808D02*
X52623638Y-31090189D01*
X52623638Y-31090189D02*
X53576019Y-31185427D01*
X53576019Y-31185427D02*
X53480780Y-31090189D01*
X53480780Y-31090189D02*
X53385542Y-30899713D01*
X53385542Y-30899713D02*
X53385542Y-30423522D01*
X53385542Y-30423522D02*
X53480780Y-30233046D01*
X53480780Y-30233046D02*
X53576019Y-30137808D01*
X53576019Y-30137808D02*
X53766495Y-30042570D01*
X53766495Y-30042570D02*
X54242685Y-30042570D01*
X54242685Y-30042570D02*
X54433161Y-30137808D01*
X54433161Y-30137808D02*
X54528400Y-30233046D01*
X54528400Y-30233046D02*
X54623638Y-30423522D01*
X54623638Y-30423522D02*
X54623638Y-30899713D01*
X54623638Y-30899713D02*
X54528400Y-31090189D01*
X54528400Y-31090189D02*
X54433161Y-31185427D01*
X52623638Y-41440665D02*
X52623638Y-40107332D01*
X52623638Y-40107332D02*
X54623638Y-40964475D01*
X54623638Y-9722570D02*
X54623638Y-10865427D01*
X54623638Y-10293999D02*
X52623638Y-10293999D01*
X52623638Y-10293999D02*
X52909352Y-10484475D01*
X52909352Y-10484475D02*
X53099828Y-10674951D01*
X53099828Y-10674951D02*
X53195066Y-10865427D01*
X2613885Y-18930190D02*
X2709123Y-19025428D01*
X2709123Y-19025428D02*
X2804361Y-19215904D01*
X2804361Y-19215904D02*
X2804361Y-19692095D01*
X2804361Y-19692095D02*
X2709123Y-19882571D01*
X2709123Y-19882571D02*
X2613885Y-19977809D01*
X2613885Y-19977809D02*
X2423409Y-20073047D01*
X2423409Y-20073047D02*
X2232933Y-20073047D01*
X2232933Y-20073047D02*
X1947219Y-19977809D01*
X1947219Y-19977809D02*
X804361Y-18834952D01*
X804361Y-18834952D02*
X804361Y-20073047D01*
X2137695Y-21787333D02*
X804361Y-21787333D01*
X2899600Y-21311142D02*
X1471028Y-20834952D01*
X1471028Y-20834952D02*
X1471028Y-22073047D01*
X53480780Y-46044475D02*
X53385542Y-46234951D01*
X53385542Y-46234951D02*
X53290304Y-46330189D01*
X53290304Y-46330189D02*
X53099828Y-46425427D01*
X53099828Y-46425427D02*
X53004590Y-46425427D01*
X53004590Y-46425427D02*
X52814114Y-46330189D01*
X52814114Y-46330189D02*
X52718876Y-46234951D01*
X52718876Y-46234951D02*
X52623638Y-46044475D01*
X52623638Y-46044475D02*
X52623638Y-45663522D01*
X52623638Y-45663522D02*
X52718876Y-45473046D01*
X52718876Y-45473046D02*
X52814114Y-45377808D01*
X52814114Y-45377808D02*
X53004590Y-45282570D01*
X53004590Y-45282570D02*
X53099828Y-45282570D01*
X53099828Y-45282570D02*
X53290304Y-45377808D01*
X53290304Y-45377808D02*
X53385542Y-45473046D01*
X53385542Y-45473046D02*
X53480780Y-45663522D01*
X53480780Y-45663522D02*
X53480780Y-46044475D01*
X53480780Y-46044475D02*
X53576019Y-46234951D01*
X53576019Y-46234951D02*
X53671257Y-46330189D01*
X53671257Y-46330189D02*
X53861733Y-46425427D01*
X53861733Y-46425427D02*
X54242685Y-46425427D01*
X54242685Y-46425427D02*
X54433161Y-46330189D01*
X54433161Y-46330189D02*
X54528400Y-46234951D01*
X54528400Y-46234951D02*
X54623638Y-46044475D01*
X54623638Y-46044475D02*
X54623638Y-45663522D01*
X54623638Y-45663522D02*
X54528400Y-45473046D01*
X54528400Y-45473046D02*
X54433161Y-45377808D01*
X54433161Y-45377808D02*
X54242685Y-45282570D01*
X54242685Y-45282570D02*
X53861733Y-45282570D01*
X53861733Y-45282570D02*
X53671257Y-45377808D01*
X53671257Y-45377808D02*
X53576019Y-45473046D01*
X53576019Y-45473046D02*
X53480780Y-45663522D01*
X54623638Y-76714951D02*
X54623638Y-77857808D01*
X54623638Y-77286380D02*
X52623638Y-77286380D01*
X52623638Y-77286380D02*
X52909352Y-77476856D01*
X52909352Y-77476856D02*
X53099828Y-77667332D01*
X53099828Y-77667332D02*
X53195066Y-77857808D01*
X53290304Y-75000665D02*
X54623638Y-75000665D01*
X52528400Y-75476856D02*
X53956971Y-75953046D01*
X53956971Y-75953046D02*
X53956971Y-74714951D01*
X2137695Y-101162571D02*
X804361Y-101162571D01*
X2899600Y-100686380D02*
X1471028Y-100210190D01*
X1471028Y-100210190D02*
X1471028Y-101448285D01*
X2804361Y-102591142D02*
X2804361Y-102781619D01*
X2804361Y-102781619D02*
X2709123Y-102972095D01*
X2709123Y-102972095D02*
X2613885Y-103067333D01*
X2613885Y-103067333D02*
X2423409Y-103162571D01*
X2423409Y-103162571D02*
X2042457Y-103257809D01*
X2042457Y-103257809D02*
X1566266Y-103257809D01*
X1566266Y-103257809D02*
X1185314Y-103162571D01*
X1185314Y-103162571D02*
X994838Y-103067333D01*
X994838Y-103067333D02*
X899600Y-102972095D01*
X899600Y-102972095D02*
X804361Y-102781619D01*
X804361Y-102781619D02*
X804361Y-102591142D01*
X804361Y-102591142D02*
X899600Y-102400666D01*
X899600Y-102400666D02*
X994838Y-102305428D01*
X994838Y-102305428D02*
X1185314Y-102210190D01*
X1185314Y-102210190D02*
X1566266Y-102114952D01*
X1566266Y-102114952D02*
X2042457Y-102114952D01*
X2042457Y-102114952D02*
X2423409Y-102210190D01*
X2423409Y-102210190D02*
X2613885Y-102305428D01*
X2613885Y-102305428D02*
X2709123Y-102400666D01*
X2709123Y-102400666D02*
X2804361Y-102591142D01*
X2804361Y-79794952D02*
X2804361Y-81033047D01*
X2804361Y-81033047D02*
X2042457Y-80366380D01*
X2042457Y-80366380D02*
X2042457Y-80652095D01*
X2042457Y-80652095D02*
X1947219Y-80842571D01*
X1947219Y-80842571D02*
X1851980Y-80937809D01*
X1851980Y-80937809D02*
X1661504Y-81033047D01*
X1661504Y-81033047D02*
X1185314Y-81033047D01*
X1185314Y-81033047D02*
X994838Y-80937809D01*
X994838Y-80937809D02*
X899600Y-80842571D01*
X899600Y-80842571D02*
X804361Y-80652095D01*
X804361Y-80652095D02*
X804361Y-80080666D01*
X804361Y-80080666D02*
X899600Y-79890190D01*
X899600Y-79890190D02*
X994838Y-79794952D01*
X2804361Y-82747333D02*
X2804361Y-82366380D01*
X2804361Y-82366380D02*
X2709123Y-82175904D01*
X2709123Y-82175904D02*
X2613885Y-82080666D01*
X2613885Y-82080666D02*
X2328171Y-81890190D01*
X2328171Y-81890190D02*
X1947219Y-81794952D01*
X1947219Y-81794952D02*
X1185314Y-81794952D01*
X1185314Y-81794952D02*
X994838Y-81890190D01*
X994838Y-81890190D02*
X899600Y-81985428D01*
X899600Y-81985428D02*
X804361Y-82175904D01*
X804361Y-82175904D02*
X804361Y-82556857D01*
X804361Y-82556857D02*
X899600Y-82747333D01*
X899600Y-82747333D02*
X994838Y-82842571D01*
X994838Y-82842571D02*
X1185314Y-82937809D01*
X1185314Y-82937809D02*
X1661504Y-82937809D01*
X1661504Y-82937809D02*
X1851980Y-82842571D01*
X1851980Y-82842571D02*
X1947219Y-82747333D01*
X1947219Y-82747333D02*
X2042457Y-82556857D01*
X2042457Y-82556857D02*
X2042457Y-82175904D01*
X2042457Y-82175904D02*
X1947219Y-81985428D01*
X1947219Y-81985428D02*
X1851980Y-81890190D01*
X1851980Y-81890190D02*
X1661504Y-81794952D01*
X2613885Y-39250190D02*
X2709123Y-39345428D01*
X2709123Y-39345428D02*
X2804361Y-39535904D01*
X2804361Y-39535904D02*
X2804361Y-40012095D01*
X2804361Y-40012095D02*
X2709123Y-40202571D01*
X2709123Y-40202571D02*
X2613885Y-40297809D01*
X2613885Y-40297809D02*
X2423409Y-40393047D01*
X2423409Y-40393047D02*
X2232933Y-40393047D01*
X2232933Y-40393047D02*
X1947219Y-40297809D01*
X1947219Y-40297809D02*
X804361Y-39154952D01*
X804361Y-39154952D02*
X804361Y-40393047D01*
X1947219Y-41535904D02*
X2042457Y-41345428D01*
X2042457Y-41345428D02*
X2137695Y-41250190D01*
X2137695Y-41250190D02*
X2328171Y-41154952D01*
X2328171Y-41154952D02*
X2423409Y-41154952D01*
X2423409Y-41154952D02*
X2613885Y-41250190D01*
X2613885Y-41250190D02*
X2709123Y-41345428D01*
X2709123Y-41345428D02*
X2804361Y-41535904D01*
X2804361Y-41535904D02*
X2804361Y-41916857D01*
X2804361Y-41916857D02*
X2709123Y-42107333D01*
X2709123Y-42107333D02*
X2613885Y-42202571D01*
X2613885Y-42202571D02*
X2423409Y-42297809D01*
X2423409Y-42297809D02*
X2328171Y-42297809D01*
X2328171Y-42297809D02*
X2137695Y-42202571D01*
X2137695Y-42202571D02*
X2042457Y-42107333D01*
X2042457Y-42107333D02*
X1947219Y-41916857D01*
X1947219Y-41916857D02*
X1947219Y-41535904D01*
X1947219Y-41535904D02*
X1851980Y-41345428D01*
X1851980Y-41345428D02*
X1756742Y-41250190D01*
X1756742Y-41250190D02*
X1566266Y-41154952D01*
X1566266Y-41154952D02*
X1185314Y-41154952D01*
X1185314Y-41154952D02*
X994838Y-41250190D01*
X994838Y-41250190D02*
X899600Y-41345428D01*
X899600Y-41345428D02*
X804361Y-41535904D01*
X804361Y-41535904D02*
X804361Y-41916857D01*
X804361Y-41916857D02*
X899600Y-42107333D01*
X899600Y-42107333D02*
X994838Y-42202571D01*
X994838Y-42202571D02*
X1185314Y-42297809D01*
X1185314Y-42297809D02*
X1566266Y-42297809D01*
X1566266Y-42297809D02*
X1756742Y-42202571D01*
X1756742Y-42202571D02*
X1851980Y-42107333D01*
X1851980Y-42107333D02*
X1947219Y-41916857D01*
X54623638Y-91954951D02*
X54623638Y-93097808D01*
X54623638Y-92526380D02*
X52623638Y-92526380D01*
X52623638Y-92526380D02*
X52909352Y-92716856D01*
X52909352Y-92716856D02*
X53099828Y-92907332D01*
X53099828Y-92907332D02*
X53195066Y-93097808D01*
X52623638Y-91288284D02*
X52623638Y-89954951D01*
X52623638Y-89954951D02*
X54623638Y-90812094D01*
D10*
X39344611Y-20292103D02*
X39487468Y-20339722D01*
X39487468Y-20339722D02*
X39725563Y-20339722D01*
X39725563Y-20339722D02*
X39820801Y-20292103D01*
X39820801Y-20292103D02*
X39868420Y-20244483D01*
X39868420Y-20244483D02*
X39916039Y-20149245D01*
X39916039Y-20149245D02*
X39916039Y-20054007D01*
X39916039Y-20054007D02*
X39868420Y-19958769D01*
X39868420Y-19958769D02*
X39820801Y-19911150D01*
X39820801Y-19911150D02*
X39725563Y-19863531D01*
X39725563Y-19863531D02*
X39535087Y-19815912D01*
X39535087Y-19815912D02*
X39439849Y-19768293D01*
X39439849Y-19768293D02*
X39392230Y-19720674D01*
X39392230Y-19720674D02*
X39344611Y-19625436D01*
X39344611Y-19625436D02*
X39344611Y-19530198D01*
X39344611Y-19530198D02*
X39392230Y-19434960D01*
X39392230Y-19434960D02*
X39439849Y-19387341D01*
X39439849Y-19387341D02*
X39535087Y-19339722D01*
X39535087Y-19339722D02*
X39773182Y-19339722D01*
X39773182Y-19339722D02*
X39916039Y-19387341D01*
X40249373Y-19339722D02*
X40487468Y-20339722D01*
X40487468Y-20339722D02*
X40677944Y-19625436D01*
X40677944Y-19625436D02*
X40868420Y-20339722D01*
X40868420Y-20339722D02*
X41106516Y-19339722D01*
X42011277Y-20339722D02*
X41439849Y-20339722D01*
X41725563Y-20339722D02*
X41725563Y-19339722D01*
X41725563Y-19339722D02*
X41630325Y-19482579D01*
X41630325Y-19482579D02*
X41535087Y-19577817D01*
X41535087Y-19577817D02*
X41439849Y-19625436D01*
X33633333Y-33354819D02*
X33300000Y-32878628D01*
X33061905Y-33354819D02*
X33061905Y-32354819D01*
X33061905Y-32354819D02*
X33442857Y-32354819D01*
X33442857Y-32354819D02*
X33538095Y-32402438D01*
X33538095Y-32402438D02*
X33585714Y-32450057D01*
X33585714Y-32450057D02*
X33633333Y-32545295D01*
X33633333Y-32545295D02*
X33633333Y-32688152D01*
X33633333Y-32688152D02*
X33585714Y-32783390D01*
X33585714Y-32783390D02*
X33538095Y-32831009D01*
X33538095Y-32831009D02*
X33442857Y-32878628D01*
X33442857Y-32878628D02*
X33061905Y-32878628D01*
X34538095Y-32354819D02*
X34061905Y-32354819D01*
X34061905Y-32354819D02*
X34014286Y-32831009D01*
X34014286Y-32831009D02*
X34061905Y-32783390D01*
X34061905Y-32783390D02*
X34157143Y-32735771D01*
X34157143Y-32735771D02*
X34395238Y-32735771D01*
X34395238Y-32735771D02*
X34490476Y-32783390D01*
X34490476Y-32783390D02*
X34538095Y-32831009D01*
X34538095Y-32831009D02*
X34585714Y-32926247D01*
X34585714Y-32926247D02*
X34585714Y-33164342D01*
X34585714Y-33164342D02*
X34538095Y-33259580D01*
X34538095Y-33259580D02*
X34490476Y-33307200D01*
X34490476Y-33307200D02*
X34395238Y-33354819D01*
X34395238Y-33354819D02*
X34157143Y-33354819D01*
X34157143Y-33354819D02*
X34061905Y-33307200D01*
X34061905Y-33307200D02*
X34014286Y-33259580D01*
X8366666Y-32704819D02*
X8366666Y-33419104D01*
X8366666Y-33419104D02*
X8319047Y-33561961D01*
X8319047Y-33561961D02*
X8223809Y-33657200D01*
X8223809Y-33657200D02*
X8080952Y-33704819D01*
X8080952Y-33704819D02*
X7985714Y-33704819D01*
X8890476Y-33704819D02*
X9080952Y-33704819D01*
X9080952Y-33704819D02*
X9176190Y-33657200D01*
X9176190Y-33657200D02*
X9223809Y-33609580D01*
X9223809Y-33609580D02*
X9319047Y-33466723D01*
X9319047Y-33466723D02*
X9366666Y-33276247D01*
X9366666Y-33276247D02*
X9366666Y-32895295D01*
X9366666Y-32895295D02*
X9319047Y-32800057D01*
X9319047Y-32800057D02*
X9271428Y-32752438D01*
X9271428Y-32752438D02*
X9176190Y-32704819D01*
X9176190Y-32704819D02*
X8985714Y-32704819D01*
X8985714Y-32704819D02*
X8890476Y-32752438D01*
X8890476Y-32752438D02*
X8842857Y-32800057D01*
X8842857Y-32800057D02*
X8795238Y-32895295D01*
X8795238Y-32895295D02*
X8795238Y-33133390D01*
X8795238Y-33133390D02*
X8842857Y-33228628D01*
X8842857Y-33228628D02*
X8890476Y-33276247D01*
X8890476Y-33276247D02*
X8985714Y-33323866D01*
X8985714Y-33323866D02*
X9176190Y-33323866D01*
X9176190Y-33323866D02*
X9271428Y-33276247D01*
X9271428Y-33276247D02*
X9319047Y-33228628D01*
X9319047Y-33228628D02*
X9366666Y-33133390D01*
X39915476Y-35679819D02*
X39915476Y-36394104D01*
X39915476Y-36394104D02*
X39867857Y-36536961D01*
X39867857Y-36536961D02*
X39772619Y-36632200D01*
X39772619Y-36632200D02*
X39629762Y-36679819D01*
X39629762Y-36679819D02*
X39534524Y-36679819D01*
X40344048Y-35775057D02*
X40391667Y-35727438D01*
X40391667Y-35727438D02*
X40486905Y-35679819D01*
X40486905Y-35679819D02*
X40725000Y-35679819D01*
X40725000Y-35679819D02*
X40820238Y-35727438D01*
X40820238Y-35727438D02*
X40867857Y-35775057D01*
X40867857Y-35775057D02*
X40915476Y-35870295D01*
X40915476Y-35870295D02*
X40915476Y-35965533D01*
X40915476Y-35965533D02*
X40867857Y-36108390D01*
X40867857Y-36108390D02*
X40296429Y-36679819D01*
X40296429Y-36679819D02*
X40915476Y-36679819D01*
X41534524Y-35679819D02*
X41629762Y-35679819D01*
X41629762Y-35679819D02*
X41725000Y-35727438D01*
X41725000Y-35727438D02*
X41772619Y-35775057D01*
X41772619Y-35775057D02*
X41820238Y-35870295D01*
X41820238Y-35870295D02*
X41867857Y-36060771D01*
X41867857Y-36060771D02*
X41867857Y-36298866D01*
X41867857Y-36298866D02*
X41820238Y-36489342D01*
X41820238Y-36489342D02*
X41772619Y-36584580D01*
X41772619Y-36584580D02*
X41725000Y-36632200D01*
X41725000Y-36632200D02*
X41629762Y-36679819D01*
X41629762Y-36679819D02*
X41534524Y-36679819D01*
X41534524Y-36679819D02*
X41439286Y-36632200D01*
X41439286Y-36632200D02*
X41391667Y-36584580D01*
X41391667Y-36584580D02*
X41344048Y-36489342D01*
X41344048Y-36489342D02*
X41296429Y-36298866D01*
X41296429Y-36298866D02*
X41296429Y-36060771D01*
X41296429Y-36060771D02*
X41344048Y-35870295D01*
X41344048Y-35870295D02*
X41391667Y-35775057D01*
X41391667Y-35775057D02*
X41439286Y-35727438D01*
X41439286Y-35727438D02*
X41534524Y-35679819D01*
X14259476Y-35679819D02*
X14259476Y-36394104D01*
X14259476Y-36394104D02*
X14211857Y-36536961D01*
X14211857Y-36536961D02*
X14116619Y-36632200D01*
X14116619Y-36632200D02*
X13973762Y-36679819D01*
X13973762Y-36679819D02*
X13878524Y-36679819D01*
X15259476Y-36679819D02*
X14688048Y-36679819D01*
X14973762Y-36679819D02*
X14973762Y-35679819D01*
X14973762Y-35679819D02*
X14878524Y-35822676D01*
X14878524Y-35822676D02*
X14783286Y-35917914D01*
X14783286Y-35917914D02*
X14688048Y-35965533D01*
X15735667Y-36679819D02*
X15926143Y-36679819D01*
X15926143Y-36679819D02*
X16021381Y-36632200D01*
X16021381Y-36632200D02*
X16069000Y-36584580D01*
X16069000Y-36584580D02*
X16164238Y-36441723D01*
X16164238Y-36441723D02*
X16211857Y-36251247D01*
X16211857Y-36251247D02*
X16211857Y-35870295D01*
X16211857Y-35870295D02*
X16164238Y-35775057D01*
X16164238Y-35775057D02*
X16116619Y-35727438D01*
X16116619Y-35727438D02*
X16021381Y-35679819D01*
X16021381Y-35679819D02*
X15830905Y-35679819D01*
X15830905Y-35679819D02*
X15735667Y-35727438D01*
X15735667Y-35727438D02*
X15688048Y-35775057D01*
X15688048Y-35775057D02*
X15640429Y-35870295D01*
X15640429Y-35870295D02*
X15640429Y-36108390D01*
X15640429Y-36108390D02*
X15688048Y-36203628D01*
X15688048Y-36203628D02*
X15735667Y-36251247D01*
X15735667Y-36251247D02*
X15830905Y-36298866D01*
X15830905Y-36298866D02*
X16021381Y-36298866D01*
X16021381Y-36298866D02*
X16116619Y-36251247D01*
X16116619Y-36251247D02*
X16164238Y-36203628D01*
X16164238Y-36203628D02*
X16211857Y-36108390D01*
D12*
X20333333Y-26524809D02*
X20333333Y-26881952D01*
X20333333Y-26881952D02*
X20309524Y-26953380D01*
X20309524Y-26953380D02*
X20261905Y-27001000D01*
X20261905Y-27001000D02*
X20190476Y-27024809D01*
X20190476Y-27024809D02*
X20142857Y-27024809D01*
X20571428Y-27024809D02*
X20571428Y-26524809D01*
X20571428Y-26524809D02*
X20761904Y-26524809D01*
X20761904Y-26524809D02*
X20809523Y-26548619D01*
X20809523Y-26548619D02*
X20833333Y-26572428D01*
X20833333Y-26572428D02*
X20857142Y-26620047D01*
X20857142Y-26620047D02*
X20857142Y-26691476D01*
X20857142Y-26691476D02*
X20833333Y-26739095D01*
X20833333Y-26739095D02*
X20809523Y-26762904D01*
X20809523Y-26762904D02*
X20761904Y-26786714D01*
X20761904Y-26786714D02*
X20571428Y-26786714D01*
X21285714Y-26691476D02*
X21285714Y-27024809D01*
X21166666Y-26501000D02*
X21047619Y-26858142D01*
X21047619Y-26858142D02*
X21357142Y-26858142D01*
D10*
X22233333Y-33354819D02*
X21900000Y-32878628D01*
X21661905Y-33354819D02*
X21661905Y-32354819D01*
X21661905Y-32354819D02*
X22042857Y-32354819D01*
X22042857Y-32354819D02*
X22138095Y-32402438D01*
X22138095Y-32402438D02*
X22185714Y-32450057D01*
X22185714Y-32450057D02*
X22233333Y-32545295D01*
X22233333Y-32545295D02*
X22233333Y-32688152D01*
X22233333Y-32688152D02*
X22185714Y-32783390D01*
X22185714Y-32783390D02*
X22138095Y-32831009D01*
X22138095Y-32831009D02*
X22042857Y-32878628D01*
X22042857Y-32878628D02*
X21661905Y-32878628D01*
X23090476Y-32354819D02*
X22900000Y-32354819D01*
X22900000Y-32354819D02*
X22804762Y-32402438D01*
X22804762Y-32402438D02*
X22757143Y-32450057D01*
X22757143Y-32450057D02*
X22661905Y-32592914D01*
X22661905Y-32592914D02*
X22614286Y-32783390D01*
X22614286Y-32783390D02*
X22614286Y-33164342D01*
X22614286Y-33164342D02*
X22661905Y-33259580D01*
X22661905Y-33259580D02*
X22709524Y-33307200D01*
X22709524Y-33307200D02*
X22804762Y-33354819D01*
X22804762Y-33354819D02*
X22995238Y-33354819D01*
X22995238Y-33354819D02*
X23090476Y-33307200D01*
X23090476Y-33307200D02*
X23138095Y-33259580D01*
X23138095Y-33259580D02*
X23185714Y-33164342D01*
X23185714Y-33164342D02*
X23185714Y-32926247D01*
X23185714Y-32926247D02*
X23138095Y-32831009D01*
X23138095Y-32831009D02*
X23090476Y-32783390D01*
X23090476Y-32783390D02*
X22995238Y-32735771D01*
X22995238Y-32735771D02*
X22804762Y-32735771D01*
X22804762Y-32735771D02*
X22709524Y-32783390D01*
X22709524Y-32783390D02*
X22661905Y-32831009D01*
X22661905Y-32831009D02*
X22614286Y-32926247D01*
X17790476Y-8104819D02*
X17790476Y-8819104D01*
X17790476Y-8819104D02*
X17742857Y-8961961D01*
X17742857Y-8961961D02*
X17647619Y-9057200D01*
X17647619Y-9057200D02*
X17504762Y-9104819D01*
X17504762Y-9104819D02*
X17409524Y-9104819D01*
X18790476Y-9104819D02*
X18219048Y-9104819D01*
X18504762Y-9104819D02*
X18504762Y-8104819D01*
X18504762Y-8104819D02*
X18409524Y-8247676D01*
X18409524Y-8247676D02*
X18314286Y-8342914D01*
X18314286Y-8342914D02*
X18219048Y-8390533D01*
X19647619Y-8104819D02*
X19457143Y-8104819D01*
X19457143Y-8104819D02*
X19361905Y-8152438D01*
X19361905Y-8152438D02*
X19314286Y-8200057D01*
X19314286Y-8200057D02*
X19219048Y-8342914D01*
X19219048Y-8342914D02*
X19171429Y-8533390D01*
X19171429Y-8533390D02*
X19171429Y-8914342D01*
X19171429Y-8914342D02*
X19219048Y-9009580D01*
X19219048Y-9009580D02*
X19266667Y-9057200D01*
X19266667Y-9057200D02*
X19361905Y-9104819D01*
X19361905Y-9104819D02*
X19552381Y-9104819D01*
X19552381Y-9104819D02*
X19647619Y-9057200D01*
X19647619Y-9057200D02*
X19695238Y-9009580D01*
X19695238Y-9009580D02*
X19742857Y-8914342D01*
X19742857Y-8914342D02*
X19742857Y-8676247D01*
X19742857Y-8676247D02*
X19695238Y-8581009D01*
X19695238Y-8581009D02*
X19647619Y-8533390D01*
X19647619Y-8533390D02*
X19552381Y-8485771D01*
X19552381Y-8485771D02*
X19361905Y-8485771D01*
X19361905Y-8485771D02*
X19266667Y-8533390D01*
X19266667Y-8533390D02*
X19219048Y-8581009D01*
X19219048Y-8581009D02*
X19171429Y-8676247D01*
X26938095Y-70154819D02*
X26938095Y-70964342D01*
X26938095Y-70964342D02*
X26985714Y-71059580D01*
X26985714Y-71059580D02*
X27033333Y-71107200D01*
X27033333Y-71107200D02*
X27128571Y-71154819D01*
X27128571Y-71154819D02*
X27319047Y-71154819D01*
X27319047Y-71154819D02*
X27414285Y-71107200D01*
X27414285Y-71107200D02*
X27461904Y-71059580D01*
X27461904Y-71059580D02*
X27509523Y-70964342D01*
X27509523Y-70964342D02*
X27509523Y-70154819D01*
X28414285Y-70488152D02*
X28414285Y-71154819D01*
X28176190Y-70107200D02*
X27938095Y-70821485D01*
X27938095Y-70821485D02*
X28557142Y-70821485D01*
X26938095Y-90454819D02*
X26938095Y-91264342D01*
X26938095Y-91264342D02*
X26985714Y-91359580D01*
X26985714Y-91359580D02*
X27033333Y-91407200D01*
X27033333Y-91407200D02*
X27128571Y-91454819D01*
X27128571Y-91454819D02*
X27319047Y-91454819D01*
X27319047Y-91454819D02*
X27414285Y-91407200D01*
X27414285Y-91407200D02*
X27461904Y-91359580D01*
X27461904Y-91359580D02*
X27509523Y-91264342D01*
X27509523Y-91264342D02*
X27509523Y-90454819D01*
X28414285Y-90454819D02*
X28223809Y-90454819D01*
X28223809Y-90454819D02*
X28128571Y-90502438D01*
X28128571Y-90502438D02*
X28080952Y-90550057D01*
X28080952Y-90550057D02*
X27985714Y-90692914D01*
X27985714Y-90692914D02*
X27938095Y-90883390D01*
X27938095Y-90883390D02*
X27938095Y-91264342D01*
X27938095Y-91264342D02*
X27985714Y-91359580D01*
X27985714Y-91359580D02*
X28033333Y-91407200D01*
X28033333Y-91407200D02*
X28128571Y-91454819D01*
X28128571Y-91454819D02*
X28319047Y-91454819D01*
X28319047Y-91454819D02*
X28414285Y-91407200D01*
X28414285Y-91407200D02*
X28461904Y-91359580D01*
X28461904Y-91359580D02*
X28509523Y-91264342D01*
X28509523Y-91264342D02*
X28509523Y-91026247D01*
X28509523Y-91026247D02*
X28461904Y-90931009D01*
X28461904Y-90931009D02*
X28414285Y-90883390D01*
X28414285Y-90883390D02*
X28319047Y-90835771D01*
X28319047Y-90835771D02*
X28128571Y-90835771D01*
X28128571Y-90835771D02*
X28033333Y-90883390D01*
X28033333Y-90883390D02*
X27985714Y-90931009D01*
X27985714Y-90931009D02*
X27938095Y-91026247D01*
X46516666Y-63154819D02*
X46516666Y-63869104D01*
X46516666Y-63869104D02*
X46469047Y-64011961D01*
X46469047Y-64011961D02*
X46373809Y-64107200D01*
X46373809Y-64107200D02*
X46230952Y-64154819D01*
X46230952Y-64154819D02*
X46135714Y-64154819D01*
X47421428Y-63488152D02*
X47421428Y-64154819D01*
X47183333Y-63107200D02*
X46945238Y-63821485D01*
X46945238Y-63821485D02*
X47564285Y-63821485D01*
X35940476Y-113854819D02*
X35940476Y-114569104D01*
X35940476Y-114569104D02*
X35892857Y-114711961D01*
X35892857Y-114711961D02*
X35797619Y-114807200D01*
X35797619Y-114807200D02*
X35654762Y-114854819D01*
X35654762Y-114854819D02*
X35559524Y-114854819D01*
X36369048Y-113950057D02*
X36416667Y-113902438D01*
X36416667Y-113902438D02*
X36511905Y-113854819D01*
X36511905Y-113854819D02*
X36750000Y-113854819D01*
X36750000Y-113854819D02*
X36845238Y-113902438D01*
X36845238Y-113902438D02*
X36892857Y-113950057D01*
X36892857Y-113950057D02*
X36940476Y-114045295D01*
X36940476Y-114045295D02*
X36940476Y-114140533D01*
X36940476Y-114140533D02*
X36892857Y-114283390D01*
X36892857Y-114283390D02*
X36321429Y-114854819D01*
X36321429Y-114854819D02*
X36940476Y-114854819D01*
X37797619Y-113854819D02*
X37607143Y-113854819D01*
X37607143Y-113854819D02*
X37511905Y-113902438D01*
X37511905Y-113902438D02*
X37464286Y-113950057D01*
X37464286Y-113950057D02*
X37369048Y-114092914D01*
X37369048Y-114092914D02*
X37321429Y-114283390D01*
X37321429Y-114283390D02*
X37321429Y-114664342D01*
X37321429Y-114664342D02*
X37369048Y-114759580D01*
X37369048Y-114759580D02*
X37416667Y-114807200D01*
X37416667Y-114807200D02*
X37511905Y-114854819D01*
X37511905Y-114854819D02*
X37702381Y-114854819D01*
X37702381Y-114854819D02*
X37797619Y-114807200D01*
X37797619Y-114807200D02*
X37845238Y-114759580D01*
X37845238Y-114759580D02*
X37892857Y-114664342D01*
X37892857Y-114664342D02*
X37892857Y-114426247D01*
X37892857Y-114426247D02*
X37845238Y-114331009D01*
X37845238Y-114331009D02*
X37797619Y-114283390D01*
X37797619Y-114283390D02*
X37702381Y-114235771D01*
X37702381Y-114235771D02*
X37511905Y-114235771D01*
X37511905Y-114235771D02*
X37416667Y-114283390D01*
X37416667Y-114283390D02*
X37369048Y-114331009D01*
X37369048Y-114331009D02*
X37321429Y-114426247D01*
X27138095Y-60104819D02*
X27138095Y-60914342D01*
X27138095Y-60914342D02*
X27185714Y-61009580D01*
X27185714Y-61009580D02*
X27233333Y-61057200D01*
X27233333Y-61057200D02*
X27328571Y-61104819D01*
X27328571Y-61104819D02*
X27519047Y-61104819D01*
X27519047Y-61104819D02*
X27614285Y-61057200D01*
X27614285Y-61057200D02*
X27661904Y-61009580D01*
X27661904Y-61009580D02*
X27709523Y-60914342D01*
X27709523Y-60914342D02*
X27709523Y-60104819D01*
X28090476Y-60104819D02*
X28709523Y-60104819D01*
X28709523Y-60104819D02*
X28376190Y-60485771D01*
X28376190Y-60485771D02*
X28519047Y-60485771D01*
X28519047Y-60485771D02*
X28614285Y-60533390D01*
X28614285Y-60533390D02*
X28661904Y-60581009D01*
X28661904Y-60581009D02*
X28709523Y-60676247D01*
X28709523Y-60676247D02*
X28709523Y-60914342D01*
X28709523Y-60914342D02*
X28661904Y-61009580D01*
X28661904Y-61009580D02*
X28614285Y-61057200D01*
X28614285Y-61057200D02*
X28519047Y-61104819D01*
X28519047Y-61104819D02*
X28233333Y-61104819D01*
X28233333Y-61104819D02*
X28138095Y-61057200D01*
X28138095Y-61057200D02*
X28090476Y-61009580D01*
D12*
X20333333Y-21474809D02*
X20333333Y-21831952D01*
X20333333Y-21831952D02*
X20309524Y-21903380D01*
X20309524Y-21903380D02*
X20261905Y-21951000D01*
X20261905Y-21951000D02*
X20190476Y-21974809D01*
X20190476Y-21974809D02*
X20142857Y-21974809D01*
X20571428Y-21974809D02*
X20571428Y-21474809D01*
X20571428Y-21474809D02*
X20761904Y-21474809D01*
X20761904Y-21474809D02*
X20809523Y-21498619D01*
X20809523Y-21498619D02*
X20833333Y-21522428D01*
X20833333Y-21522428D02*
X20857142Y-21570047D01*
X20857142Y-21570047D02*
X20857142Y-21641476D01*
X20857142Y-21641476D02*
X20833333Y-21689095D01*
X20833333Y-21689095D02*
X20809523Y-21712904D01*
X20809523Y-21712904D02*
X20761904Y-21736714D01*
X20761904Y-21736714D02*
X20571428Y-21736714D01*
X21023809Y-21474809D02*
X21333333Y-21474809D01*
X21333333Y-21474809D02*
X21166666Y-21665285D01*
X21166666Y-21665285D02*
X21238095Y-21665285D01*
X21238095Y-21665285D02*
X21285714Y-21689095D01*
X21285714Y-21689095D02*
X21309523Y-21712904D01*
X21309523Y-21712904D02*
X21333333Y-21760523D01*
X21333333Y-21760523D02*
X21333333Y-21879571D01*
X21333333Y-21879571D02*
X21309523Y-21927190D01*
X21309523Y-21927190D02*
X21285714Y-21951000D01*
X21285714Y-21951000D02*
X21238095Y-21974809D01*
X21238095Y-21974809D02*
X21095238Y-21974809D01*
X21095238Y-21974809D02*
X21047619Y-21951000D01*
X21047619Y-21951000D02*
X21023809Y-21927190D01*
D10*
X27088095Y-80128819D02*
X27088095Y-80938342D01*
X27088095Y-80938342D02*
X27135714Y-81033580D01*
X27135714Y-81033580D02*
X27183333Y-81081200D01*
X27183333Y-81081200D02*
X27278571Y-81128819D01*
X27278571Y-81128819D02*
X27469047Y-81128819D01*
X27469047Y-81128819D02*
X27564285Y-81081200D01*
X27564285Y-81081200D02*
X27611904Y-81033580D01*
X27611904Y-81033580D02*
X27659523Y-80938342D01*
X27659523Y-80938342D02*
X27659523Y-80128819D01*
X28611904Y-80128819D02*
X28135714Y-80128819D01*
X28135714Y-80128819D02*
X28088095Y-80605009D01*
X28088095Y-80605009D02*
X28135714Y-80557390D01*
X28135714Y-80557390D02*
X28230952Y-80509771D01*
X28230952Y-80509771D02*
X28469047Y-80509771D01*
X28469047Y-80509771D02*
X28564285Y-80557390D01*
X28564285Y-80557390D02*
X28611904Y-80605009D01*
X28611904Y-80605009D02*
X28659523Y-80700247D01*
X28659523Y-80700247D02*
X28659523Y-80938342D01*
X28659523Y-80938342D02*
X28611904Y-81033580D01*
X28611904Y-81033580D02*
X28564285Y-81081200D01*
X28564285Y-81081200D02*
X28469047Y-81128819D01*
X28469047Y-81128819D02*
X28230952Y-81128819D01*
X28230952Y-81128819D02*
X28135714Y-81081200D01*
X28135714Y-81081200D02*
X28088095Y-81033580D01*
X46566666Y-93554819D02*
X46566666Y-94269104D01*
X46566666Y-94269104D02*
X46519047Y-94411961D01*
X46519047Y-94411961D02*
X46423809Y-94507200D01*
X46423809Y-94507200D02*
X46280952Y-94554819D01*
X46280952Y-94554819D02*
X46185714Y-94554819D01*
X46995238Y-93650057D02*
X47042857Y-93602438D01*
X47042857Y-93602438D02*
X47138095Y-93554819D01*
X47138095Y-93554819D02*
X47376190Y-93554819D01*
X47376190Y-93554819D02*
X47471428Y-93602438D01*
X47471428Y-93602438D02*
X47519047Y-93650057D01*
X47519047Y-93650057D02*
X47566666Y-93745295D01*
X47566666Y-93745295D02*
X47566666Y-93840533D01*
X47566666Y-93840533D02*
X47519047Y-93983390D01*
X47519047Y-93983390D02*
X46947619Y-94554819D01*
X46947619Y-94554819D02*
X47566666Y-94554819D01*
X39033333Y-15309580D02*
X38985714Y-15357200D01*
X38985714Y-15357200D02*
X38842857Y-15404819D01*
X38842857Y-15404819D02*
X38747619Y-15404819D01*
X38747619Y-15404819D02*
X38604762Y-15357200D01*
X38604762Y-15357200D02*
X38509524Y-15261961D01*
X38509524Y-15261961D02*
X38461905Y-15166723D01*
X38461905Y-15166723D02*
X38414286Y-14976247D01*
X38414286Y-14976247D02*
X38414286Y-14833390D01*
X38414286Y-14833390D02*
X38461905Y-14642914D01*
X38461905Y-14642914D02*
X38509524Y-14547676D01*
X38509524Y-14547676D02*
X38604762Y-14452438D01*
X38604762Y-14452438D02*
X38747619Y-14404819D01*
X38747619Y-14404819D02*
X38842857Y-14404819D01*
X38842857Y-14404819D02*
X38985714Y-14452438D01*
X38985714Y-14452438D02*
X39033333Y-14500057D01*
X39985714Y-15404819D02*
X39414286Y-15404819D01*
X39700000Y-15404819D02*
X39700000Y-14404819D01*
X39700000Y-14404819D02*
X39604762Y-14547676D01*
X39604762Y-14547676D02*
X39509524Y-14642914D01*
X39509524Y-14642914D02*
X39414286Y-14690533D01*
X46766666Y-78554819D02*
X46766666Y-79269104D01*
X46766666Y-79269104D02*
X46719047Y-79411961D01*
X46719047Y-79411961D02*
X46623809Y-79507200D01*
X46623809Y-79507200D02*
X46480952Y-79554819D01*
X46480952Y-79554819D02*
X46385714Y-79554819D01*
X47147619Y-78554819D02*
X47766666Y-78554819D01*
X47766666Y-78554819D02*
X47433333Y-78935771D01*
X47433333Y-78935771D02*
X47576190Y-78935771D01*
X47576190Y-78935771D02*
X47671428Y-78983390D01*
X47671428Y-78983390D02*
X47719047Y-79031009D01*
X47719047Y-79031009D02*
X47766666Y-79126247D01*
X47766666Y-79126247D02*
X47766666Y-79364342D01*
X47766666Y-79364342D02*
X47719047Y-79459580D01*
X47719047Y-79459580D02*
X47671428Y-79507200D01*
X47671428Y-79507200D02*
X47576190Y-79554819D01*
X47576190Y-79554819D02*
X47290476Y-79554819D01*
X47290476Y-79554819D02*
X47195238Y-79507200D01*
X47195238Y-79507200D02*
X47147619Y-79459580D01*
X41433333Y-107709580D02*
X41385714Y-107757200D01*
X41385714Y-107757200D02*
X41242857Y-107804819D01*
X41242857Y-107804819D02*
X41147619Y-107804819D01*
X41147619Y-107804819D02*
X41004762Y-107757200D01*
X41004762Y-107757200D02*
X40909524Y-107661961D01*
X40909524Y-107661961D02*
X40861905Y-107566723D01*
X40861905Y-107566723D02*
X40814286Y-107376247D01*
X40814286Y-107376247D02*
X40814286Y-107233390D01*
X40814286Y-107233390D02*
X40861905Y-107042914D01*
X40861905Y-107042914D02*
X40909524Y-106947676D01*
X40909524Y-106947676D02*
X41004762Y-106852438D01*
X41004762Y-106852438D02*
X41147619Y-106804819D01*
X41147619Y-106804819D02*
X41242857Y-106804819D01*
X41242857Y-106804819D02*
X41385714Y-106852438D01*
X41385714Y-106852438D02*
X41433333Y-106900057D01*
X42290476Y-107138152D02*
X42290476Y-107804819D01*
X42052381Y-106757200D02*
X41814286Y-107471485D01*
X41814286Y-107471485D02*
X42433333Y-107471485D01*
X26938095Y-100604819D02*
X26938095Y-101414342D01*
X26938095Y-101414342D02*
X26985714Y-101509580D01*
X26985714Y-101509580D02*
X27033333Y-101557200D01*
X27033333Y-101557200D02*
X27128571Y-101604819D01*
X27128571Y-101604819D02*
X27319047Y-101604819D01*
X27319047Y-101604819D02*
X27414285Y-101557200D01*
X27414285Y-101557200D02*
X27461904Y-101509580D01*
X27461904Y-101509580D02*
X27509523Y-101414342D01*
X27509523Y-101414342D02*
X27509523Y-100604819D01*
X27890476Y-100604819D02*
X28557142Y-100604819D01*
X28557142Y-100604819D02*
X28128571Y-101604819D01*
X26938095Y-49654819D02*
X26938095Y-50464342D01*
X26938095Y-50464342D02*
X26985714Y-50559580D01*
X26985714Y-50559580D02*
X27033333Y-50607200D01*
X27033333Y-50607200D02*
X27128571Y-50654819D01*
X27128571Y-50654819D02*
X27319047Y-50654819D01*
X27319047Y-50654819D02*
X27414285Y-50607200D01*
X27414285Y-50607200D02*
X27461904Y-50559580D01*
X27461904Y-50559580D02*
X27509523Y-50464342D01*
X27509523Y-50464342D02*
X27509523Y-49654819D01*
X27938095Y-49750057D02*
X27985714Y-49702438D01*
X27985714Y-49702438D02*
X28080952Y-49654819D01*
X28080952Y-49654819D02*
X28319047Y-49654819D01*
X28319047Y-49654819D02*
X28414285Y-49702438D01*
X28414285Y-49702438D02*
X28461904Y-49750057D01*
X28461904Y-49750057D02*
X28509523Y-49845295D01*
X28509523Y-49845295D02*
X28509523Y-49940533D01*
X28509523Y-49940533D02*
X28461904Y-50083390D01*
X28461904Y-50083390D02*
X27890476Y-50654819D01*
X27890476Y-50654819D02*
X28509523Y-50654819D01*
X41583333Y-26709580D02*
X41535714Y-26757200D01*
X41535714Y-26757200D02*
X41392857Y-26804819D01*
X41392857Y-26804819D02*
X41297619Y-26804819D01*
X41297619Y-26804819D02*
X41154762Y-26757200D01*
X41154762Y-26757200D02*
X41059524Y-26661961D01*
X41059524Y-26661961D02*
X41011905Y-26566723D01*
X41011905Y-26566723D02*
X40964286Y-26376247D01*
X40964286Y-26376247D02*
X40964286Y-26233390D01*
X40964286Y-26233390D02*
X41011905Y-26042914D01*
X41011905Y-26042914D02*
X41059524Y-25947676D01*
X41059524Y-25947676D02*
X41154762Y-25852438D01*
X41154762Y-25852438D02*
X41297619Y-25804819D01*
X41297619Y-25804819D02*
X41392857Y-25804819D01*
X41392857Y-25804819D02*
X41535714Y-25852438D01*
X41535714Y-25852438D02*
X41583333Y-25900057D01*
X41964286Y-25900057D02*
X42011905Y-25852438D01*
X42011905Y-25852438D02*
X42107143Y-25804819D01*
X42107143Y-25804819D02*
X42345238Y-25804819D01*
X42345238Y-25804819D02*
X42440476Y-25852438D01*
X42440476Y-25852438D02*
X42488095Y-25900057D01*
X42488095Y-25900057D02*
X42535714Y-25995295D01*
X42535714Y-25995295D02*
X42535714Y-26090533D01*
X42535714Y-26090533D02*
X42488095Y-26233390D01*
X42488095Y-26233390D02*
X41916667Y-26804819D01*
X41916667Y-26804819D02*
X42535714Y-26804819D01*
X7890476Y-93554819D02*
X7890476Y-94269104D01*
X7890476Y-94269104D02*
X7842857Y-94411961D01*
X7842857Y-94411961D02*
X7747619Y-94507200D01*
X7747619Y-94507200D02*
X7604762Y-94554819D01*
X7604762Y-94554819D02*
X7509524Y-94554819D01*
X8890476Y-94554819D02*
X8319048Y-94554819D01*
X8604762Y-94554819D02*
X8604762Y-93554819D01*
X8604762Y-93554819D02*
X8509524Y-93697676D01*
X8509524Y-93697676D02*
X8414286Y-93792914D01*
X8414286Y-93792914D02*
X8319048Y-93840533D01*
X9223810Y-93554819D02*
X9842857Y-93554819D01*
X9842857Y-93554819D02*
X9509524Y-93935771D01*
X9509524Y-93935771D02*
X9652381Y-93935771D01*
X9652381Y-93935771D02*
X9747619Y-93983390D01*
X9747619Y-93983390D02*
X9795238Y-94031009D01*
X9795238Y-94031009D02*
X9842857Y-94126247D01*
X9842857Y-94126247D02*
X9842857Y-94364342D01*
X9842857Y-94364342D02*
X9795238Y-94459580D01*
X9795238Y-94459580D02*
X9747619Y-94507200D01*
X9747619Y-94507200D02*
X9652381Y-94554819D01*
X9652381Y-94554819D02*
X9366667Y-94554819D01*
X9366667Y-94554819D02*
X9271429Y-94507200D01*
X9271429Y-94507200D02*
X9223810Y-94459580D01*
X14304476Y-89703819D02*
X14304476Y-90418104D01*
X14304476Y-90418104D02*
X14256857Y-90560961D01*
X14256857Y-90560961D02*
X14161619Y-90656200D01*
X14161619Y-90656200D02*
X14018762Y-90703819D01*
X14018762Y-90703819D02*
X13923524Y-90703819D01*
X14733048Y-89799057D02*
X14780667Y-89751438D01*
X14780667Y-89751438D02*
X14875905Y-89703819D01*
X14875905Y-89703819D02*
X15114000Y-89703819D01*
X15114000Y-89703819D02*
X15209238Y-89751438D01*
X15209238Y-89751438D02*
X15256857Y-89799057D01*
X15256857Y-89799057D02*
X15304476Y-89894295D01*
X15304476Y-89894295D02*
X15304476Y-89989533D01*
X15304476Y-89989533D02*
X15256857Y-90132390D01*
X15256857Y-90132390D02*
X14685429Y-90703819D01*
X14685429Y-90703819D02*
X15304476Y-90703819D01*
X16256857Y-90703819D02*
X15685429Y-90703819D01*
X15971143Y-90703819D02*
X15971143Y-89703819D01*
X15971143Y-89703819D02*
X15875905Y-89846676D01*
X15875905Y-89846676D02*
X15780667Y-89941914D01*
X15780667Y-89941914D02*
X15685429Y-89989533D01*
X39654476Y-100363819D02*
X39654476Y-101078104D01*
X39654476Y-101078104D02*
X39606857Y-101220961D01*
X39606857Y-101220961D02*
X39511619Y-101316200D01*
X39511619Y-101316200D02*
X39368762Y-101363819D01*
X39368762Y-101363819D02*
X39273524Y-101363819D01*
X40083048Y-100459057D02*
X40130667Y-100411438D01*
X40130667Y-100411438D02*
X40225905Y-100363819D01*
X40225905Y-100363819D02*
X40464000Y-100363819D01*
X40464000Y-100363819D02*
X40559238Y-100411438D01*
X40559238Y-100411438D02*
X40606857Y-100459057D01*
X40606857Y-100459057D02*
X40654476Y-100554295D01*
X40654476Y-100554295D02*
X40654476Y-100649533D01*
X40654476Y-100649533D02*
X40606857Y-100792390D01*
X40606857Y-100792390D02*
X40035429Y-101363819D01*
X40035429Y-101363819D02*
X40654476Y-101363819D01*
X41035429Y-100459057D02*
X41083048Y-100411438D01*
X41083048Y-100411438D02*
X41178286Y-100363819D01*
X41178286Y-100363819D02*
X41416381Y-100363819D01*
X41416381Y-100363819D02*
X41511619Y-100411438D01*
X41511619Y-100411438D02*
X41559238Y-100459057D01*
X41559238Y-100459057D02*
X41606857Y-100554295D01*
X41606857Y-100554295D02*
X41606857Y-100649533D01*
X41606857Y-100649533D02*
X41559238Y-100792390D01*
X41559238Y-100792390D02*
X40987810Y-101363819D01*
X40987810Y-101363819D02*
X41606857Y-101363819D01*
X42466666Y-6454819D02*
X42466666Y-7169104D01*
X42466666Y-7169104D02*
X42419047Y-7311961D01*
X42419047Y-7311961D02*
X42323809Y-7407200D01*
X42323809Y-7407200D02*
X42180952Y-7454819D01*
X42180952Y-7454819D02*
X42085714Y-7454819D01*
X42847619Y-6454819D02*
X43514285Y-6454819D01*
X43514285Y-6454819D02*
X43085714Y-7454819D01*
X12890476Y-114104819D02*
X12890476Y-114819104D01*
X12890476Y-114819104D02*
X12842857Y-114961961D01*
X12842857Y-114961961D02*
X12747619Y-115057200D01*
X12747619Y-115057200D02*
X12604762Y-115104819D01*
X12604762Y-115104819D02*
X12509524Y-115104819D01*
X13890476Y-115104819D02*
X13319048Y-115104819D01*
X13604762Y-115104819D02*
X13604762Y-114104819D01*
X13604762Y-114104819D02*
X13509524Y-114247676D01*
X13509524Y-114247676D02*
X13414286Y-114342914D01*
X13414286Y-114342914D02*
X13319048Y-114390533D01*
X14747619Y-114438152D02*
X14747619Y-115104819D01*
X14509524Y-114057200D02*
X14271429Y-114771485D01*
X14271429Y-114771485D02*
X14890476Y-114771485D01*
X12016666Y-6254819D02*
X12016666Y-6969104D01*
X12016666Y-6969104D02*
X11969047Y-7111961D01*
X11969047Y-7111961D02*
X11873809Y-7207200D01*
X11873809Y-7207200D02*
X11730952Y-7254819D01*
X11730952Y-7254819D02*
X11635714Y-7254819D01*
X12635714Y-6683390D02*
X12540476Y-6635771D01*
X12540476Y-6635771D02*
X12492857Y-6588152D01*
X12492857Y-6588152D02*
X12445238Y-6492914D01*
X12445238Y-6492914D02*
X12445238Y-6445295D01*
X12445238Y-6445295D02*
X12492857Y-6350057D01*
X12492857Y-6350057D02*
X12540476Y-6302438D01*
X12540476Y-6302438D02*
X12635714Y-6254819D01*
X12635714Y-6254819D02*
X12826190Y-6254819D01*
X12826190Y-6254819D02*
X12921428Y-6302438D01*
X12921428Y-6302438D02*
X12969047Y-6350057D01*
X12969047Y-6350057D02*
X13016666Y-6445295D01*
X13016666Y-6445295D02*
X13016666Y-6492914D01*
X13016666Y-6492914D02*
X12969047Y-6588152D01*
X12969047Y-6588152D02*
X12921428Y-6635771D01*
X12921428Y-6635771D02*
X12826190Y-6683390D01*
X12826190Y-6683390D02*
X12635714Y-6683390D01*
X12635714Y-6683390D02*
X12540476Y-6731009D01*
X12540476Y-6731009D02*
X12492857Y-6778628D01*
X12492857Y-6778628D02*
X12445238Y-6873866D01*
X12445238Y-6873866D02*
X12445238Y-7064342D01*
X12445238Y-7064342D02*
X12492857Y-7159580D01*
X12492857Y-7159580D02*
X12540476Y-7207200D01*
X12540476Y-7207200D02*
X12635714Y-7254819D01*
X12635714Y-7254819D02*
X12826190Y-7254819D01*
X12826190Y-7254819D02*
X12921428Y-7207200D01*
X12921428Y-7207200D02*
X12969047Y-7159580D01*
X12969047Y-7159580D02*
X13016666Y-7064342D01*
X13016666Y-7064342D02*
X13016666Y-6873866D01*
X13016666Y-6873866D02*
X12969047Y-6778628D01*
X12969047Y-6778628D02*
X12921428Y-6731009D01*
X12921428Y-6731009D02*
X12826190Y-6683390D01*
X35290476Y-7854819D02*
X35290476Y-8569104D01*
X35290476Y-8569104D02*
X35242857Y-8711961D01*
X35242857Y-8711961D02*
X35147619Y-8807200D01*
X35147619Y-8807200D02*
X35004762Y-8854819D01*
X35004762Y-8854819D02*
X34909524Y-8854819D01*
X36290476Y-8854819D02*
X35719048Y-8854819D01*
X36004762Y-8854819D02*
X36004762Y-7854819D01*
X36004762Y-7854819D02*
X35909524Y-7997676D01*
X35909524Y-7997676D02*
X35814286Y-8092914D01*
X35814286Y-8092914D02*
X35719048Y-8140533D01*
X37195238Y-7854819D02*
X36719048Y-7854819D01*
X36719048Y-7854819D02*
X36671429Y-8331009D01*
X36671429Y-8331009D02*
X36719048Y-8283390D01*
X36719048Y-8283390D02*
X36814286Y-8235771D01*
X36814286Y-8235771D02*
X37052381Y-8235771D01*
X37052381Y-8235771D02*
X37147619Y-8283390D01*
X37147619Y-8283390D02*
X37195238Y-8331009D01*
X37195238Y-8331009D02*
X37242857Y-8426247D01*
X37242857Y-8426247D02*
X37242857Y-8664342D01*
X37242857Y-8664342D02*
X37195238Y-8759580D01*
X37195238Y-8759580D02*
X37147619Y-8807200D01*
X37147619Y-8807200D02*
X37052381Y-8854819D01*
X37052381Y-8854819D02*
X36814286Y-8854819D01*
X36814286Y-8854819D02*
X36719048Y-8807200D01*
X36719048Y-8807200D02*
X36671429Y-8759580D01*
X14340476Y-14304819D02*
X14340476Y-15019104D01*
X14340476Y-15019104D02*
X14292857Y-15161961D01*
X14292857Y-15161961D02*
X14197619Y-15257200D01*
X14197619Y-15257200D02*
X14054762Y-15304819D01*
X14054762Y-15304819D02*
X13959524Y-15304819D01*
X15340476Y-15304819D02*
X14769048Y-15304819D01*
X15054762Y-15304819D02*
X15054762Y-14304819D01*
X15054762Y-14304819D02*
X14959524Y-14447676D01*
X14959524Y-14447676D02*
X14864286Y-14542914D01*
X14864286Y-14542914D02*
X14769048Y-14590533D01*
X15673810Y-14304819D02*
X16340476Y-14304819D01*
X16340476Y-14304819D02*
X15911905Y-15304819D01*
X41716666Y-114004819D02*
X41716666Y-114719104D01*
X41716666Y-114719104D02*
X41669047Y-114861961D01*
X41669047Y-114861961D02*
X41573809Y-114957200D01*
X41573809Y-114957200D02*
X41430952Y-115004819D01*
X41430952Y-115004819D02*
X41335714Y-115004819D01*
X42716666Y-115004819D02*
X42145238Y-115004819D01*
X42430952Y-115004819D02*
X42430952Y-114004819D01*
X42430952Y-114004819D02*
X42335714Y-114147676D01*
X42335714Y-114147676D02*
X42240476Y-114242914D01*
X42240476Y-114242914D02*
X42145238Y-114290533D01*
D12*
X20383333Y-28924809D02*
X20383333Y-29281952D01*
X20383333Y-29281952D02*
X20359524Y-29353380D01*
X20359524Y-29353380D02*
X20311905Y-29401000D01*
X20311905Y-29401000D02*
X20240476Y-29424809D01*
X20240476Y-29424809D02*
X20192857Y-29424809D01*
X20621428Y-29424809D02*
X20621428Y-28924809D01*
X20621428Y-28924809D02*
X20811904Y-28924809D01*
X20811904Y-28924809D02*
X20859523Y-28948619D01*
X20859523Y-28948619D02*
X20883333Y-28972428D01*
X20883333Y-28972428D02*
X20907142Y-29020047D01*
X20907142Y-29020047D02*
X20907142Y-29091476D01*
X20907142Y-29091476D02*
X20883333Y-29139095D01*
X20883333Y-29139095D02*
X20859523Y-29162904D01*
X20859523Y-29162904D02*
X20811904Y-29186714D01*
X20811904Y-29186714D02*
X20621428Y-29186714D01*
X21383333Y-29424809D02*
X21097619Y-29424809D01*
X21240476Y-29424809D02*
X21240476Y-28924809D01*
X21240476Y-28924809D02*
X21192857Y-28996238D01*
X21192857Y-28996238D02*
X21145238Y-29043857D01*
X21145238Y-29043857D02*
X21097619Y-29067666D01*
D10*
X7290476Y-47804819D02*
X7290476Y-48519104D01*
X7290476Y-48519104D02*
X7242857Y-48661961D01*
X7242857Y-48661961D02*
X7147619Y-48757200D01*
X7147619Y-48757200D02*
X7004762Y-48804819D01*
X7004762Y-48804819D02*
X6909524Y-48804819D01*
X8290476Y-48804819D02*
X7719048Y-48804819D01*
X8004762Y-48804819D02*
X8004762Y-47804819D01*
X8004762Y-47804819D02*
X7909524Y-47947676D01*
X7909524Y-47947676D02*
X7814286Y-48042914D01*
X7814286Y-48042914D02*
X7719048Y-48090533D01*
X8909524Y-47804819D02*
X9004762Y-47804819D01*
X9004762Y-47804819D02*
X9100000Y-47852438D01*
X9100000Y-47852438D02*
X9147619Y-47900057D01*
X9147619Y-47900057D02*
X9195238Y-47995295D01*
X9195238Y-47995295D02*
X9242857Y-48185771D01*
X9242857Y-48185771D02*
X9242857Y-48423866D01*
X9242857Y-48423866D02*
X9195238Y-48614342D01*
X9195238Y-48614342D02*
X9147619Y-48709580D01*
X9147619Y-48709580D02*
X9100000Y-48757200D01*
X9100000Y-48757200D02*
X9004762Y-48804819D01*
X9004762Y-48804819D02*
X8909524Y-48804819D01*
X8909524Y-48804819D02*
X8814286Y-48757200D01*
X8814286Y-48757200D02*
X8766667Y-48709580D01*
X8766667Y-48709580D02*
X8719048Y-48614342D01*
X8719048Y-48614342D02*
X8671429Y-48423866D01*
X8671429Y-48423866D02*
X8671429Y-48185771D01*
X8671429Y-48185771D02*
X8719048Y-47995295D01*
X8719048Y-47995295D02*
X8766667Y-47900057D01*
X8766667Y-47900057D02*
X8814286Y-47852438D01*
X8814286Y-47852438D02*
X8909524Y-47804819D01*
X14290476Y-21754819D02*
X14290476Y-22469104D01*
X14290476Y-22469104D02*
X14242857Y-22611961D01*
X14242857Y-22611961D02*
X14147619Y-22707200D01*
X14147619Y-22707200D02*
X14004762Y-22754819D01*
X14004762Y-22754819D02*
X13909524Y-22754819D01*
X15290476Y-22754819D02*
X14719048Y-22754819D01*
X15004762Y-22754819D02*
X15004762Y-21754819D01*
X15004762Y-21754819D02*
X14909524Y-21897676D01*
X14909524Y-21897676D02*
X14814286Y-21992914D01*
X14814286Y-21992914D02*
X14719048Y-22040533D01*
X15861905Y-22183390D02*
X15766667Y-22135771D01*
X15766667Y-22135771D02*
X15719048Y-22088152D01*
X15719048Y-22088152D02*
X15671429Y-21992914D01*
X15671429Y-21992914D02*
X15671429Y-21945295D01*
X15671429Y-21945295D02*
X15719048Y-21850057D01*
X15719048Y-21850057D02*
X15766667Y-21802438D01*
X15766667Y-21802438D02*
X15861905Y-21754819D01*
X15861905Y-21754819D02*
X16052381Y-21754819D01*
X16052381Y-21754819D02*
X16147619Y-21802438D01*
X16147619Y-21802438D02*
X16195238Y-21850057D01*
X16195238Y-21850057D02*
X16242857Y-21945295D01*
X16242857Y-21945295D02*
X16242857Y-21992914D01*
X16242857Y-21992914D02*
X16195238Y-22088152D01*
X16195238Y-22088152D02*
X16147619Y-22135771D01*
X16147619Y-22135771D02*
X16052381Y-22183390D01*
X16052381Y-22183390D02*
X15861905Y-22183390D01*
X15861905Y-22183390D02*
X15766667Y-22231009D01*
X15766667Y-22231009D02*
X15719048Y-22278628D01*
X15719048Y-22278628D02*
X15671429Y-22373866D01*
X15671429Y-22373866D02*
X15671429Y-22564342D01*
X15671429Y-22564342D02*
X15719048Y-22659580D01*
X15719048Y-22659580D02*
X15766667Y-22707200D01*
X15766667Y-22707200D02*
X15861905Y-22754819D01*
X15861905Y-22754819D02*
X16052381Y-22754819D01*
X16052381Y-22754819D02*
X16147619Y-22707200D01*
X16147619Y-22707200D02*
X16195238Y-22659580D01*
X16195238Y-22659580D02*
X16242857Y-22564342D01*
X16242857Y-22564342D02*
X16242857Y-22373866D01*
X16242857Y-22373866D02*
X16195238Y-22278628D01*
X16195238Y-22278628D02*
X16147619Y-22231009D01*
X16147619Y-22231009D02*
X16052381Y-22183390D01*
D12*
X20383333Y-24024809D02*
X20383333Y-24381952D01*
X20383333Y-24381952D02*
X20359524Y-24453380D01*
X20359524Y-24453380D02*
X20311905Y-24501000D01*
X20311905Y-24501000D02*
X20240476Y-24524809D01*
X20240476Y-24524809D02*
X20192857Y-24524809D01*
X20621428Y-24524809D02*
X20621428Y-24024809D01*
X20621428Y-24024809D02*
X20811904Y-24024809D01*
X20811904Y-24024809D02*
X20859523Y-24048619D01*
X20859523Y-24048619D02*
X20883333Y-24072428D01*
X20883333Y-24072428D02*
X20907142Y-24120047D01*
X20907142Y-24120047D02*
X20907142Y-24191476D01*
X20907142Y-24191476D02*
X20883333Y-24239095D01*
X20883333Y-24239095D02*
X20859523Y-24262904D01*
X20859523Y-24262904D02*
X20811904Y-24286714D01*
X20811904Y-24286714D02*
X20621428Y-24286714D01*
X21097619Y-24072428D02*
X21121428Y-24048619D01*
X21121428Y-24048619D02*
X21169047Y-24024809D01*
X21169047Y-24024809D02*
X21288095Y-24024809D01*
X21288095Y-24024809D02*
X21335714Y-24048619D01*
X21335714Y-24048619D02*
X21359523Y-24072428D01*
X21359523Y-24072428D02*
X21383333Y-24120047D01*
X21383333Y-24120047D02*
X21383333Y-24167666D01*
X21383333Y-24167666D02*
X21359523Y-24239095D01*
X21359523Y-24239095D02*
X21073809Y-24524809D01*
X21073809Y-24524809D02*
X21383333Y-24524809D01*
D10*
X29883333Y-22454819D02*
X29550000Y-21978628D01*
X29311905Y-22454819D02*
X29311905Y-21454819D01*
X29311905Y-21454819D02*
X29692857Y-21454819D01*
X29692857Y-21454819D02*
X29788095Y-21502438D01*
X29788095Y-21502438D02*
X29835714Y-21550057D01*
X29835714Y-21550057D02*
X29883333Y-21645295D01*
X29883333Y-21645295D02*
X29883333Y-21788152D01*
X29883333Y-21788152D02*
X29835714Y-21883390D01*
X29835714Y-21883390D02*
X29788095Y-21931009D01*
X29788095Y-21931009D02*
X29692857Y-21978628D01*
X29692857Y-21978628D02*
X29311905Y-21978628D01*
X30264286Y-21550057D02*
X30311905Y-21502438D01*
X30311905Y-21502438D02*
X30407143Y-21454819D01*
X30407143Y-21454819D02*
X30645238Y-21454819D01*
X30645238Y-21454819D02*
X30740476Y-21502438D01*
X30740476Y-21502438D02*
X30788095Y-21550057D01*
X30788095Y-21550057D02*
X30835714Y-21645295D01*
X30835714Y-21645295D02*
X30835714Y-21740533D01*
X30835714Y-21740533D02*
X30788095Y-21883390D01*
X30788095Y-21883390D02*
X30216667Y-22454819D01*
X30216667Y-22454819D02*
X30835714Y-22454819D01*
X26938095Y-39304819D02*
X26938095Y-40114342D01*
X26938095Y-40114342D02*
X26985714Y-40209580D01*
X26985714Y-40209580D02*
X27033333Y-40257200D01*
X27033333Y-40257200D02*
X27128571Y-40304819D01*
X27128571Y-40304819D02*
X27319047Y-40304819D01*
X27319047Y-40304819D02*
X27414285Y-40257200D01*
X27414285Y-40257200D02*
X27461904Y-40209580D01*
X27461904Y-40209580D02*
X27509523Y-40114342D01*
X27509523Y-40114342D02*
X27509523Y-39304819D01*
X28509523Y-40304819D02*
X27938095Y-40304819D01*
X28223809Y-40304819D02*
X28223809Y-39304819D01*
X28223809Y-39304819D02*
X28128571Y-39447676D01*
X28128571Y-39447676D02*
X28033333Y-39542914D01*
X28033333Y-39542914D02*
X27938095Y-39590533D01*
X39416667Y-9257200D02*
X39559524Y-9304819D01*
X39559524Y-9304819D02*
X39797619Y-9304819D01*
X39797619Y-9304819D02*
X39892857Y-9257200D01*
X39892857Y-9257200D02*
X39940476Y-9209580D01*
X39940476Y-9209580D02*
X39988095Y-9114342D01*
X39988095Y-9114342D02*
X39988095Y-9019104D01*
X39988095Y-9019104D02*
X39940476Y-8923866D01*
X39940476Y-8923866D02*
X39892857Y-8876247D01*
X39892857Y-8876247D02*
X39797619Y-8828628D01*
X39797619Y-8828628D02*
X39607143Y-8781009D01*
X39607143Y-8781009D02*
X39511905Y-8733390D01*
X39511905Y-8733390D02*
X39464286Y-8685771D01*
X39464286Y-8685771D02*
X39416667Y-8590533D01*
X39416667Y-8590533D02*
X39416667Y-8495295D01*
X39416667Y-8495295D02*
X39464286Y-8400057D01*
X39464286Y-8400057D02*
X39511905Y-8352438D01*
X39511905Y-8352438D02*
X39607143Y-8304819D01*
X39607143Y-8304819D02*
X39845238Y-8304819D01*
X39845238Y-8304819D02*
X39988095Y-8352438D01*
X40321429Y-8304819D02*
X40559524Y-9304819D01*
X40559524Y-9304819D02*
X40750000Y-8590533D01*
X40750000Y-8590533D02*
X40940476Y-9304819D01*
X40940476Y-9304819D02*
X41178572Y-8304819D01*
X41511905Y-8400057D02*
X41559524Y-8352438D01*
X41559524Y-8352438D02*
X41654762Y-8304819D01*
X41654762Y-8304819D02*
X41892857Y-8304819D01*
X41892857Y-8304819D02*
X41988095Y-8352438D01*
X41988095Y-8352438D02*
X42035714Y-8400057D01*
X42035714Y-8400057D02*
X42083333Y-8495295D01*
X42083333Y-8495295D02*
X42083333Y-8590533D01*
X42083333Y-8590533D02*
X42035714Y-8733390D01*
X42035714Y-8733390D02*
X41464286Y-9304819D01*
X41464286Y-9304819D02*
X42083333Y-9304819D01*
X46416666Y-32604819D02*
X46416666Y-33319104D01*
X46416666Y-33319104D02*
X46369047Y-33461961D01*
X46369047Y-33461961D02*
X46273809Y-33557200D01*
X46273809Y-33557200D02*
X46130952Y-33604819D01*
X46130952Y-33604819D02*
X46035714Y-33604819D01*
X47321428Y-32604819D02*
X47130952Y-32604819D01*
X47130952Y-32604819D02*
X47035714Y-32652438D01*
X47035714Y-32652438D02*
X46988095Y-32700057D01*
X46988095Y-32700057D02*
X46892857Y-32842914D01*
X46892857Y-32842914D02*
X46845238Y-33033390D01*
X46845238Y-33033390D02*
X46845238Y-33414342D01*
X46845238Y-33414342D02*
X46892857Y-33509580D01*
X46892857Y-33509580D02*
X46940476Y-33557200D01*
X46940476Y-33557200D02*
X47035714Y-33604819D01*
X47035714Y-33604819D02*
X47226190Y-33604819D01*
X47226190Y-33604819D02*
X47321428Y-33557200D01*
X47321428Y-33557200D02*
X47369047Y-33509580D01*
X47369047Y-33509580D02*
X47416666Y-33414342D01*
X47416666Y-33414342D02*
X47416666Y-33176247D01*
X47416666Y-33176247D02*
X47369047Y-33081009D01*
X47369047Y-33081009D02*
X47321428Y-33033390D01*
X47321428Y-33033390D02*
X47226190Y-32985771D01*
X47226190Y-32985771D02*
X47035714Y-32985771D01*
X47035714Y-32985771D02*
X46940476Y-33033390D01*
X46940476Y-33033390D02*
X46892857Y-33081009D01*
X46892857Y-33081009D02*
X46845238Y-33176247D01*
X7790476Y-63154819D02*
X7790476Y-63869104D01*
X7790476Y-63869104D02*
X7742857Y-64011961D01*
X7742857Y-64011961D02*
X7647619Y-64107200D01*
X7647619Y-64107200D02*
X7504762Y-64154819D01*
X7504762Y-64154819D02*
X7409524Y-64154819D01*
X8790476Y-64154819D02*
X8219048Y-64154819D01*
X8504762Y-64154819D02*
X8504762Y-63154819D01*
X8504762Y-63154819D02*
X8409524Y-63297676D01*
X8409524Y-63297676D02*
X8314286Y-63392914D01*
X8314286Y-63392914D02*
X8219048Y-63440533D01*
X9742857Y-64154819D02*
X9171429Y-64154819D01*
X9457143Y-64154819D02*
X9457143Y-63154819D01*
X9457143Y-63154819D02*
X9361905Y-63297676D01*
X9361905Y-63297676D02*
X9266667Y-63392914D01*
X9266667Y-63392914D02*
X9171429Y-63440533D01*
X14033333Y-9059580D02*
X13985714Y-9107200D01*
X13985714Y-9107200D02*
X13842857Y-9154819D01*
X13842857Y-9154819D02*
X13747619Y-9154819D01*
X13747619Y-9154819D02*
X13604762Y-9107200D01*
X13604762Y-9107200D02*
X13509524Y-9011961D01*
X13509524Y-9011961D02*
X13461905Y-8916723D01*
X13461905Y-8916723D02*
X13414286Y-8726247D01*
X13414286Y-8726247D02*
X13414286Y-8583390D01*
X13414286Y-8583390D02*
X13461905Y-8392914D01*
X13461905Y-8392914D02*
X13509524Y-8297676D01*
X13509524Y-8297676D02*
X13604762Y-8202438D01*
X13604762Y-8202438D02*
X13747619Y-8154819D01*
X13747619Y-8154819D02*
X13842857Y-8154819D01*
X13842857Y-8154819D02*
X13985714Y-8202438D01*
X13985714Y-8202438D02*
X14033333Y-8250057D01*
X14366667Y-8154819D02*
X14985714Y-8154819D01*
X14985714Y-8154819D02*
X14652381Y-8535771D01*
X14652381Y-8535771D02*
X14795238Y-8535771D01*
X14795238Y-8535771D02*
X14890476Y-8583390D01*
X14890476Y-8583390D02*
X14938095Y-8631009D01*
X14938095Y-8631009D02*
X14985714Y-8726247D01*
X14985714Y-8726247D02*
X14985714Y-8964342D01*
X14985714Y-8964342D02*
X14938095Y-9059580D01*
X14938095Y-9059580D02*
X14890476Y-9107200D01*
X14890476Y-9107200D02*
X14795238Y-9154819D01*
X14795238Y-9154819D02*
X14509524Y-9154819D01*
X14509524Y-9154819D02*
X14414286Y-9107200D01*
X14414286Y-9107200D02*
X14366667Y-9059580D01*
X46566666Y-47904819D02*
X46566666Y-48619104D01*
X46566666Y-48619104D02*
X46519047Y-48761961D01*
X46519047Y-48761961D02*
X46423809Y-48857200D01*
X46423809Y-48857200D02*
X46280952Y-48904819D01*
X46280952Y-48904819D02*
X46185714Y-48904819D01*
X47519047Y-47904819D02*
X47042857Y-47904819D01*
X47042857Y-47904819D02*
X46995238Y-48381009D01*
X46995238Y-48381009D02*
X47042857Y-48333390D01*
X47042857Y-48333390D02*
X47138095Y-48285771D01*
X47138095Y-48285771D02*
X47376190Y-48285771D01*
X47376190Y-48285771D02*
X47471428Y-48333390D01*
X47471428Y-48333390D02*
X47519047Y-48381009D01*
X47519047Y-48381009D02*
X47566666Y-48476247D01*
X47566666Y-48476247D02*
X47566666Y-48714342D01*
X47566666Y-48714342D02*
X47519047Y-48809580D01*
X47519047Y-48809580D02*
X47471428Y-48857200D01*
X47471428Y-48857200D02*
X47376190Y-48904819D01*
X47376190Y-48904819D02*
X47138095Y-48904819D01*
X47138095Y-48904819D02*
X47042857Y-48857200D01*
X47042857Y-48857200D02*
X46995238Y-48809580D01*
X13730667Y-104766200D02*
X13873524Y-104813819D01*
X13873524Y-104813819D02*
X14111619Y-104813819D01*
X14111619Y-104813819D02*
X14206857Y-104766200D01*
X14206857Y-104766200D02*
X14254476Y-104718580D01*
X14254476Y-104718580D02*
X14302095Y-104623342D01*
X14302095Y-104623342D02*
X14302095Y-104528104D01*
X14302095Y-104528104D02*
X14254476Y-104432866D01*
X14254476Y-104432866D02*
X14206857Y-104385247D01*
X14206857Y-104385247D02*
X14111619Y-104337628D01*
X14111619Y-104337628D02*
X13921143Y-104290009D01*
X13921143Y-104290009D02*
X13825905Y-104242390D01*
X13825905Y-104242390D02*
X13778286Y-104194771D01*
X13778286Y-104194771D02*
X13730667Y-104099533D01*
X13730667Y-104099533D02*
X13730667Y-104004295D01*
X13730667Y-104004295D02*
X13778286Y-103909057D01*
X13778286Y-103909057D02*
X13825905Y-103861438D01*
X13825905Y-103861438D02*
X13921143Y-103813819D01*
X13921143Y-103813819D02*
X14159238Y-103813819D01*
X14159238Y-103813819D02*
X14302095Y-103861438D01*
X14635429Y-103813819D02*
X14873524Y-104813819D01*
X14873524Y-104813819D02*
X15064000Y-104099533D01*
X15064000Y-104099533D02*
X15254476Y-104813819D01*
X15254476Y-104813819D02*
X15492572Y-103813819D01*
X15778286Y-103813819D02*
X16397333Y-103813819D01*
X16397333Y-103813819D02*
X16064000Y-104194771D01*
X16064000Y-104194771D02*
X16206857Y-104194771D01*
X16206857Y-104194771D02*
X16302095Y-104242390D01*
X16302095Y-104242390D02*
X16349714Y-104290009D01*
X16349714Y-104290009D02*
X16397333Y-104385247D01*
X16397333Y-104385247D02*
X16397333Y-104623342D01*
X16397333Y-104623342D02*
X16349714Y-104718580D01*
X16349714Y-104718580D02*
X16302095Y-104766200D01*
X16302095Y-104766200D02*
X16206857Y-104813819D01*
X16206857Y-104813819D02*
X15921143Y-104813819D01*
X15921143Y-104813819D02*
X15825905Y-104766200D01*
X15825905Y-104766200D02*
X15778286Y-104718580D01*
D13*
X25990476Y-13407419D02*
X25990476Y-14121704D01*
X25990476Y-14121704D02*
X25942857Y-14264561D01*
X25942857Y-14264561D02*
X25847619Y-14359800D01*
X25847619Y-14359800D02*
X25704762Y-14407419D01*
X25704762Y-14407419D02*
X25609524Y-14407419D01*
X26419048Y-13502657D02*
X26466667Y-13455038D01*
X26466667Y-13455038D02*
X26561905Y-13407419D01*
X26561905Y-13407419D02*
X26800000Y-13407419D01*
X26800000Y-13407419D02*
X26895238Y-13455038D01*
X26895238Y-13455038D02*
X26942857Y-13502657D01*
X26942857Y-13502657D02*
X26990476Y-13597895D01*
X26990476Y-13597895D02*
X26990476Y-13693133D01*
X26990476Y-13693133D02*
X26942857Y-13835990D01*
X26942857Y-13835990D02*
X26371429Y-14407419D01*
X26371429Y-14407419D02*
X26990476Y-14407419D01*
X27323810Y-13407419D02*
X27942857Y-13407419D01*
X27942857Y-13407419D02*
X27609524Y-13788371D01*
X27609524Y-13788371D02*
X27752381Y-13788371D01*
X27752381Y-13788371D02*
X27847619Y-13835990D01*
X27847619Y-13835990D02*
X27895238Y-13883609D01*
X27895238Y-13883609D02*
X27942857Y-13978847D01*
X27942857Y-13978847D02*
X27942857Y-14216942D01*
X27942857Y-14216942D02*
X27895238Y-14312180D01*
X27895238Y-14312180D02*
X27847619Y-14359800D01*
X27847619Y-14359800D02*
X27752381Y-14407419D01*
X27752381Y-14407419D02*
X27466667Y-14407419D01*
X27466667Y-14407419D02*
X27371429Y-14359800D01*
X27371429Y-14359800D02*
X27323810Y-14312180D01*
D10*
X7740476Y-78354819D02*
X7740476Y-79069104D01*
X7740476Y-79069104D02*
X7692857Y-79211961D01*
X7692857Y-79211961D02*
X7597619Y-79307200D01*
X7597619Y-79307200D02*
X7454762Y-79354819D01*
X7454762Y-79354819D02*
X7359524Y-79354819D01*
X8740476Y-79354819D02*
X8169048Y-79354819D01*
X8454762Y-79354819D02*
X8454762Y-78354819D01*
X8454762Y-78354819D02*
X8359524Y-78497676D01*
X8359524Y-78497676D02*
X8264286Y-78592914D01*
X8264286Y-78592914D02*
X8169048Y-78640533D01*
X9121429Y-78450057D02*
X9169048Y-78402438D01*
X9169048Y-78402438D02*
X9264286Y-78354819D01*
X9264286Y-78354819D02*
X9502381Y-78354819D01*
X9502381Y-78354819D02*
X9597619Y-78402438D01*
X9597619Y-78402438D02*
X9645238Y-78450057D01*
X9645238Y-78450057D02*
X9692857Y-78545295D01*
X9692857Y-78545295D02*
X9692857Y-78640533D01*
X9692857Y-78640533D02*
X9645238Y-78783390D01*
X9645238Y-78783390D02*
X9073810Y-79354819D01*
X9073810Y-79354819D02*
X9692857Y-79354819D01*
D14*
%TO.C,SW1*%
X42028000Y-25594000D02*
X40698000Y-25594000D01*
X42028000Y-24264000D02*
X42028000Y-25594000D01*
X42028000Y-22994000D02*
X42028000Y-20394000D01*
X42028000Y-22994000D02*
X39368000Y-22994000D01*
X42028000Y-20394000D02*
X39368000Y-20394000D01*
X39368000Y-22994000D02*
X39368000Y-20394000D01*
%TO.C,R5*%
X29554000Y-31530000D02*
X36094000Y-31530000D01*
X29554000Y-31860000D02*
X29554000Y-31530000D01*
X29554000Y-33940000D02*
X29554000Y-34270000D01*
X29554000Y-34270000D02*
X36094000Y-34270000D01*
X36094000Y-31530000D02*
X36094000Y-31860000D01*
X36094000Y-34270000D02*
X36094000Y-33940000D01*
%TO.C,J9*%
X12504000Y-22994000D02*
X12504000Y-38234000D01*
X6154000Y-22994000D02*
X6154000Y-38234000D01*
X4884000Y-22994000D02*
X12504000Y-22994000D01*
X4884000Y-22994000D02*
X4884000Y-38234000D01*
X4884000Y-38234000D02*
X12504000Y-38234000D01*
%TO.C,J20*%
X39139000Y-39937000D02*
X39139000Y-83177000D01*
X39139000Y-39937000D02*
X41799000Y-39937000D01*
X39139000Y-83177000D02*
X41799000Y-83177000D01*
X40469000Y-37337000D02*
X41799000Y-37337000D01*
X41799000Y-37337000D02*
X41799000Y-38667000D01*
X41799000Y-39937000D02*
X41799000Y-83177000D01*
%TO.C,J19*%
X13739000Y-39937000D02*
X13739000Y-83177000D01*
X13739000Y-39937000D02*
X16399000Y-39937000D01*
X13739000Y-83177000D02*
X16399000Y-83177000D01*
X15069000Y-37337000D02*
X16399000Y-37337000D01*
X16399000Y-37337000D02*
X16399000Y-38667000D01*
X16399000Y-39937000D02*
X16399000Y-83177000D01*
%TO.C,JP4*%
X21481000Y-25804000D02*
X24281000Y-25804000D01*
X21481000Y-27804000D02*
X21481000Y-25804000D01*
X24281000Y-25804000D02*
X24281000Y-27804000D01*
X24281000Y-27804000D02*
X21481000Y-27804000D01*
%TO.C,R6*%
X25680000Y-34270000D02*
X19140000Y-34270000D01*
X25680000Y-33940000D02*
X25680000Y-34270000D01*
X25680000Y-31860000D02*
X25680000Y-31530000D01*
X25680000Y-31530000D02*
X19140000Y-31530000D01*
X19140000Y-34270000D02*
X19140000Y-33940000D01*
X19140000Y-31530000D02*
X19140000Y-31860000D01*
%TO.C,J16*%
X20060000Y-27297000D02*
X20060000Y-9457000D01*
X20060000Y-27297000D02*
X17400000Y-27297000D01*
X20060000Y-9457000D02*
X17400000Y-9457000D01*
X18730000Y-29897000D02*
X17400000Y-29897000D01*
X17400000Y-29897000D02*
X17400000Y-28567000D01*
X17400000Y-27297000D02*
X17400000Y-9457000D01*
%TO.C,U4*%
X17509000Y-73164000D02*
X37949000Y-73164000D01*
X37949000Y-73164000D02*
X37949000Y-67864000D01*
X17509000Y-71514000D02*
X17509000Y-73164000D01*
X17509000Y-67864000D02*
X17509000Y-69514000D01*
X37949000Y-67864000D02*
X17509000Y-67864000D01*
X17509000Y-71514000D02*
G75*
G03*
X17509000Y-69514000I0J1000000D01*
G01*
%TO.C,U6*%
X17509000Y-93484000D02*
X37949000Y-93484000D01*
X37949000Y-93484000D02*
X37949000Y-88184000D01*
X17509000Y-91834000D02*
X17509000Y-93484000D01*
X17509000Y-88184000D02*
X17509000Y-89834000D01*
X37949000Y-88184000D02*
X17509000Y-88184000D01*
X17509000Y-91834000D02*
G75*
G03*
X17509000Y-89834000I0J1000000D01*
G01*
%TO.C,J4*%
X42984000Y-68713999D02*
X42984000Y-53473999D01*
X49334000Y-68713999D02*
X49334000Y-53473999D01*
X50604000Y-68713999D02*
X42984000Y-68713999D01*
X50604000Y-68713999D02*
X50604000Y-53473999D01*
X50604000Y-53473999D02*
X42984000Y-53473999D01*
%TO.C,J26*%
X20115003Y-106721453D02*
X35355003Y-106721453D01*
X20115003Y-113071453D02*
X35355003Y-113071453D01*
X20115003Y-114341453D02*
X20115003Y-106721453D01*
X20115003Y-114341453D02*
X35355003Y-114341453D01*
X35355003Y-114341453D02*
X35355003Y-106721453D01*
%TO.C,U3*%
X17509000Y-63004000D02*
X37949000Y-63004000D01*
X37949000Y-63004000D02*
X37949000Y-57704000D01*
X17509000Y-61354000D02*
X17509000Y-63004000D01*
X17509000Y-57704000D02*
X17509000Y-59354000D01*
X37949000Y-57704000D02*
X17509000Y-57704000D01*
X17509000Y-61354000D02*
G75*
G03*
X17509000Y-59354000I0J1000000D01*
G01*
%TO.C,JP3*%
X24355001Y-22724000D02*
X21555001Y-22724000D01*
X24355001Y-20724000D02*
X24355001Y-22724000D01*
X21555001Y-22724000D02*
X21555001Y-20724000D01*
X21555001Y-20724000D02*
X24355001Y-20724000D01*
%TO.C,U5*%
X17509000Y-83324000D02*
X37949000Y-83324000D01*
X37949000Y-83324000D02*
X37949000Y-78024000D01*
X17509000Y-81674000D02*
X17509000Y-83324000D01*
X17509000Y-78024000D02*
X17509000Y-79674000D01*
X37949000Y-78024000D02*
X17509000Y-78024000D01*
X17509000Y-81674000D02*
G75*
G03*
X17509000Y-79674000I0J1000000D01*
G01*
%TO.C,J2*%
X42984000Y-99194000D02*
X42984000Y-83954000D01*
X49334000Y-99194000D02*
X49334000Y-83954000D01*
X50604000Y-99194000D02*
X42984000Y-99194000D01*
X50604000Y-99194000D02*
X50604000Y-83954000D01*
X50604000Y-83954000D02*
X42984000Y-83954000D01*
%TO.C,C1*%
X39528000Y-19246000D02*
X39773000Y-19246000D01*
X39528000Y-19246000D02*
X39528000Y-15606000D01*
X41623000Y-19246000D02*
X41868000Y-19246000D01*
X41868000Y-19246000D02*
X41868000Y-15606000D01*
X39528000Y-15606000D02*
X39773000Y-15606000D01*
X41623000Y-15606000D02*
X41868000Y-15606000D01*
%TO.C,J3*%
X42984000Y-83954000D02*
X42984000Y-68714000D01*
X49334000Y-83954000D02*
X49334000Y-68714000D01*
X50604000Y-83954000D02*
X42984000Y-83954000D01*
X50604000Y-83954000D02*
X50604000Y-68714000D01*
X50604000Y-68714000D02*
X42984000Y-68714000D01*
%TO.C,C4*%
X37675000Y-112804775D02*
X37675000Y-112304775D01*
X37425000Y-112554775D02*
X37925000Y-112554775D01*
X36570000Y-110000000D02*
X41730000Y-110000000D01*
X36570000Y-109960000D02*
X41730000Y-109960000D01*
X36571000Y-109920000D02*
X41729000Y-109920000D01*
X36572000Y-109880000D02*
X41728000Y-109880000D01*
X36574000Y-109840000D02*
X41726000Y-109840000D01*
X36577000Y-109800000D02*
X41723000Y-109800000D01*
X36581000Y-109760000D02*
X38110000Y-109760000D01*
X40190000Y-109760000D02*
X41719000Y-109760000D01*
X36585000Y-109720000D02*
X38110000Y-109720000D01*
X40190000Y-109720000D02*
X41715000Y-109720000D01*
X36589000Y-109680000D02*
X38110000Y-109680000D01*
X40190000Y-109680000D02*
X41711000Y-109680000D01*
X36594000Y-109640000D02*
X38110000Y-109640000D01*
X40190000Y-109640000D02*
X41706000Y-109640000D01*
X36600000Y-109600000D02*
X38110000Y-109600000D01*
X40190000Y-109600000D02*
X41700000Y-109600000D01*
X36607000Y-109560000D02*
X38110000Y-109560000D01*
X40190000Y-109560000D02*
X41693000Y-109560000D01*
X36614000Y-109520000D02*
X38110000Y-109520000D01*
X40190000Y-109520000D02*
X41686000Y-109520000D01*
X36622000Y-109480000D02*
X38110000Y-109480000D01*
X40190000Y-109480000D02*
X41678000Y-109480000D01*
X36630000Y-109440000D02*
X38110000Y-109440000D01*
X40190000Y-109440000D02*
X41670000Y-109440000D01*
X36639000Y-109400000D02*
X38110000Y-109400000D01*
X40190000Y-109400000D02*
X41661000Y-109400000D01*
X36649000Y-109360000D02*
X38110000Y-109360000D01*
X40190000Y-109360000D02*
X41651000Y-109360000D01*
X36659000Y-109320000D02*
X38110000Y-109320000D01*
X40190000Y-109320000D02*
X41641000Y-109320000D01*
X36670000Y-109279000D02*
X38110000Y-109279000D01*
X40190000Y-109279000D02*
X41630000Y-109279000D01*
X36682000Y-109239000D02*
X38110000Y-109239000D01*
X40190000Y-109239000D02*
X41618000Y-109239000D01*
X36695000Y-109199000D02*
X38110000Y-109199000D01*
X40190000Y-109199000D02*
X41605000Y-109199000D01*
X36708000Y-109159000D02*
X38110000Y-109159000D01*
X40190000Y-109159000D02*
X41592000Y-109159000D01*
X36722000Y-109119000D02*
X38110000Y-109119000D01*
X40190000Y-109119000D02*
X41578000Y-109119000D01*
X36736000Y-109079000D02*
X38110000Y-109079000D01*
X40190000Y-109079000D02*
X41564000Y-109079000D01*
X36752000Y-109039000D02*
X38110000Y-109039000D01*
X40190000Y-109039000D02*
X41548000Y-109039000D01*
X36768000Y-108999000D02*
X38110000Y-108999000D01*
X40190000Y-108999000D02*
X41532000Y-108999000D01*
X36785000Y-108959000D02*
X38110000Y-108959000D01*
X40190000Y-108959000D02*
X41515000Y-108959000D01*
X36802000Y-108919000D02*
X38110000Y-108919000D01*
X40190000Y-108919000D02*
X41498000Y-108919000D01*
X36821000Y-108879000D02*
X38110000Y-108879000D01*
X40190000Y-108879000D02*
X41479000Y-108879000D01*
X36840000Y-108839000D02*
X38110000Y-108839000D01*
X40190000Y-108839000D02*
X41460000Y-108839000D01*
X36860000Y-108799000D02*
X38110000Y-108799000D01*
X40190000Y-108799000D02*
X41440000Y-108799000D01*
X36882000Y-108759000D02*
X38110000Y-108759000D01*
X40190000Y-108759000D02*
X41418000Y-108759000D01*
X36903000Y-108719000D02*
X38110000Y-108719000D01*
X40190000Y-108719000D02*
X41397000Y-108719000D01*
X36926000Y-108679000D02*
X38110000Y-108679000D01*
X40190000Y-108679000D02*
X41374000Y-108679000D01*
X36950000Y-108639000D02*
X38110000Y-108639000D01*
X40190000Y-108639000D02*
X41350000Y-108639000D01*
X36975000Y-108599000D02*
X38110000Y-108599000D01*
X40190000Y-108599000D02*
X41325000Y-108599000D01*
X37001000Y-108559000D02*
X38110000Y-108559000D01*
X40190000Y-108559000D02*
X41299000Y-108559000D01*
X37028000Y-108519000D02*
X38110000Y-108519000D01*
X40190000Y-108519000D02*
X41272000Y-108519000D01*
X37055000Y-108479000D02*
X38110000Y-108479000D01*
X40190000Y-108479000D02*
X41245000Y-108479000D01*
X37085000Y-108439000D02*
X38110000Y-108439000D01*
X40190000Y-108439000D02*
X41215000Y-108439000D01*
X37115000Y-108399000D02*
X38110000Y-108399000D01*
X40190000Y-108399000D02*
X41185000Y-108399000D01*
X37146000Y-108359000D02*
X38110000Y-108359000D01*
X40190000Y-108359000D02*
X41154000Y-108359000D01*
X37179000Y-108319000D02*
X38110000Y-108319000D01*
X40190000Y-108319000D02*
X41121000Y-108319000D01*
X37213000Y-108279000D02*
X38110000Y-108279000D01*
X40190000Y-108279000D02*
X41087000Y-108279000D01*
X37249000Y-108239000D02*
X38110000Y-108239000D01*
X40190000Y-108239000D02*
X41051000Y-108239000D01*
X37286000Y-108199000D02*
X38110000Y-108199000D01*
X40190000Y-108199000D02*
X41014000Y-108199000D01*
X37324000Y-108159000D02*
X38110000Y-108159000D01*
X40190000Y-108159000D02*
X40976000Y-108159000D01*
X37365000Y-108119000D02*
X38110000Y-108119000D01*
X40190000Y-108119000D02*
X40935000Y-108119000D01*
X37407000Y-108079000D02*
X38110000Y-108079000D01*
X40190000Y-108079000D02*
X40893000Y-108079000D01*
X37451000Y-108039000D02*
X38110000Y-108039000D01*
X40190000Y-108039000D02*
X40849000Y-108039000D01*
X37497000Y-107999000D02*
X38110000Y-107999000D01*
X40190000Y-107999000D02*
X40803000Y-107999000D01*
X37545000Y-107959000D02*
X38110000Y-107959000D01*
X40190000Y-107959000D02*
X40755000Y-107959000D01*
X37596000Y-107919000D02*
X38110000Y-107919000D01*
X40190000Y-107919000D02*
X40704000Y-107919000D01*
X37650000Y-107879000D02*
X38110000Y-107879000D01*
X40190000Y-107879000D02*
X40650000Y-107879000D01*
X37707000Y-107839000D02*
X38110000Y-107839000D01*
X40190000Y-107839000D02*
X40593000Y-107839000D01*
X37767000Y-107799000D02*
X38110000Y-107799000D01*
X40190000Y-107799000D02*
X40533000Y-107799000D01*
X37831000Y-107759000D02*
X38110000Y-107759000D01*
X40190000Y-107759000D02*
X40469000Y-107759000D01*
X37899000Y-107719000D02*
X38110000Y-107719000D01*
X40190000Y-107719000D02*
X40401000Y-107719000D01*
X37972000Y-107679000D02*
X40328000Y-107679000D01*
X38052000Y-107639000D02*
X40248000Y-107639000D01*
X38139000Y-107599000D02*
X40161000Y-107599000D01*
X38235000Y-107559000D02*
X40065000Y-107559000D01*
X38345000Y-107519000D02*
X39955000Y-107519000D01*
X38473000Y-107479000D02*
X39827000Y-107479000D01*
X38632000Y-107439000D02*
X39668000Y-107439000D01*
X38866000Y-107399000D02*
X39434000Y-107399000D01*
X41770000Y-110000000D02*
G75*
G03*
X41770000Y-110000000I-2620000J0D01*
G01*
%TO.C,U7*%
X17509000Y-103644000D02*
X37949000Y-103644000D01*
X37949000Y-103644000D02*
X37949000Y-98344000D01*
X17509000Y-101994000D02*
X17509000Y-103644000D01*
X17509000Y-98344000D02*
X17509000Y-99994000D01*
X37949000Y-98344000D02*
X17509000Y-98344000D01*
X17509000Y-101994000D02*
G75*
G03*
X17509000Y-99994000I0J1000000D01*
G01*
%TO.C,U2*%
X17509000Y-52844000D02*
X37949000Y-52844000D01*
X37949000Y-52844000D02*
X37949000Y-47544000D01*
X17509000Y-51194000D02*
X17509000Y-52844000D01*
X17509000Y-47544000D02*
X17509000Y-49194000D01*
X37949000Y-47544000D02*
X17509000Y-47544000D01*
X17509000Y-51194000D02*
G75*
G03*
X17509000Y-49194000I0J1000000D01*
G01*
%TO.C,C2*%
X39274000Y-30422000D02*
X39519000Y-30422000D01*
X39274000Y-30422000D02*
X39274000Y-26782000D01*
X41369000Y-30422000D02*
X41614000Y-30422000D01*
X41614000Y-30422000D02*
X41614000Y-26782000D01*
X39274000Y-26782000D02*
X39519000Y-26782000D01*
X41369000Y-26782000D02*
X41614000Y-26782000D01*
%TO.C,J13*%
X12504000Y-83954001D02*
X12504000Y-99194001D01*
X6154000Y-83954001D02*
X6154000Y-99194001D01*
X4884000Y-83954001D02*
X12504000Y-83954001D01*
X4884000Y-83954001D02*
X4884000Y-99194001D01*
X4884000Y-99194001D02*
X12504000Y-99194001D01*
%TO.C,J21*%
X13784000Y-91249000D02*
X15114000Y-91249000D01*
X13784000Y-92579000D02*
X13784000Y-91249000D01*
X13784000Y-93849000D02*
X13784000Y-96449000D01*
X13784000Y-93849000D02*
X16444000Y-93849000D01*
X13784000Y-96449000D02*
X16444000Y-96449000D01*
X16444000Y-93849000D02*
X16444000Y-96449000D01*
%TO.C,R1*%
X33300000Y-26910000D02*
X26760000Y-26910000D01*
X33300000Y-26580000D02*
X33300000Y-26910000D01*
X33300000Y-24500000D02*
X33300000Y-24170000D01*
X33300000Y-24170000D02*
X26760000Y-24170000D01*
X26760000Y-26910000D02*
X26760000Y-26580000D01*
X26760000Y-24170000D02*
X26760000Y-24500000D01*
%TO.C,J22*%
X41794000Y-99909000D02*
X40464000Y-99909000D01*
X41794000Y-98579000D02*
X41794000Y-99909000D01*
X41794000Y-97309000D02*
X41794000Y-94709000D01*
X41794000Y-97309000D02*
X39134000Y-97309000D01*
X41794000Y-94709000D02*
X39134000Y-94709000D01*
X39134000Y-97309000D02*
X39134000Y-94709000D01*
%TO.C,J7*%
X42984000Y-22993999D02*
X42984000Y-7753999D01*
X49334000Y-22993999D02*
X49334000Y-7753999D01*
X50604000Y-22993999D02*
X42984000Y-22993999D01*
X50604000Y-22993999D02*
X50604000Y-7753999D01*
X50604000Y-7753999D02*
X42984000Y-7753999D01*
%TO.C,J14*%
X12504000Y-99194000D02*
X12504000Y-114434000D01*
X6154000Y-99194000D02*
X6154000Y-114434000D01*
X4884000Y-99194000D02*
X12504000Y-99194000D01*
X4884000Y-99194000D02*
X4884000Y-114434000D01*
X4884000Y-114434000D02*
X12504000Y-114434000D01*
%TO.C,J8*%
X12504000Y-7754000D02*
X12504000Y-22994000D01*
X6154000Y-7754000D02*
X6154000Y-22994000D01*
X4884000Y-7754000D02*
X12504000Y-7754000D01*
X4884000Y-7754000D02*
X4884000Y-22994000D01*
X4884000Y-22994000D02*
X12504000Y-22994000D01*
%TO.C,J15*%
X38060000Y-27297000D02*
X38060000Y-9457000D01*
X38060000Y-27297000D02*
X35400000Y-27297000D01*
X38060000Y-9457000D02*
X35400000Y-9457000D01*
X36730000Y-29897000D02*
X35400000Y-29897000D01*
X35400000Y-29897000D02*
X35400000Y-28567000D01*
X35400000Y-27297000D02*
X35400000Y-9457000D01*
%TO.C,J17*%
X16374000Y-20768000D02*
X15044000Y-20768000D01*
X16374000Y-19438000D02*
X16374000Y-20768000D01*
X16374000Y-18168000D02*
X16374000Y-15568000D01*
X16374000Y-18168000D02*
X13714000Y-18168000D01*
X16374000Y-15568000D02*
X13714000Y-15568000D01*
X13714000Y-18168000D02*
X13714000Y-15568000D01*
%TO.C,J1*%
X42984000Y-114434001D02*
X42984000Y-99194001D01*
X49334000Y-114434001D02*
X49334000Y-99194001D01*
X50604000Y-114434001D02*
X42984000Y-114434001D01*
X50604000Y-114434001D02*
X50604000Y-99194001D01*
X50604000Y-99194001D02*
X42984000Y-99194001D01*
%TO.C,JP1*%
X21480999Y-28344000D02*
X24280999Y-28344000D01*
X21480999Y-30344000D02*
X21480999Y-28344000D01*
X24280999Y-28344000D02*
X24280999Y-30344000D01*
X24280999Y-30344000D02*
X21480999Y-30344000D01*
%TO.C,J10*%
X12504000Y-38234001D02*
X12504000Y-53474001D01*
X6154000Y-38234001D02*
X6154000Y-53474001D01*
X4884000Y-38234001D02*
X12504000Y-38234001D01*
X4884000Y-38234001D02*
X4884000Y-53474001D01*
X4884000Y-53474001D02*
X12504000Y-53474001D01*
%TO.C,J18*%
X13714000Y-23188000D02*
X15044000Y-23188000D01*
X13714000Y-24518000D02*
X13714000Y-23188000D01*
X13714000Y-25788000D02*
X13714000Y-28388000D01*
X13714000Y-25788000D02*
X16374000Y-25788000D01*
X13714000Y-28388000D02*
X16374000Y-28388000D01*
X16374000Y-25788000D02*
X16374000Y-28388000D01*
%TO.C,JP2*%
X24318000Y-25264000D02*
X21518000Y-25264000D01*
X24318000Y-23264000D02*
X24318000Y-25264000D01*
X21518000Y-25264000D02*
X21518000Y-23264000D01*
X21518000Y-23264000D02*
X24318000Y-23264000D01*
%TO.C,R3*%
X33294000Y-30374000D02*
X26754000Y-30374000D01*
X33294000Y-30044000D02*
X33294000Y-30374000D01*
X33294000Y-27964000D02*
X33294000Y-27634000D01*
X33294000Y-27634000D02*
X26754000Y-27634000D01*
X26754000Y-30374000D02*
X26754000Y-30044000D01*
X26754000Y-27634000D02*
X26754000Y-27964000D01*
%TO.C,R2*%
X33300000Y-23354000D02*
X26760000Y-23354000D01*
X33300000Y-23024000D02*
X33300000Y-23354000D01*
X33300000Y-20944000D02*
X33300000Y-20614000D01*
X33300000Y-20614000D02*
X26760000Y-20614000D01*
X26760000Y-23354000D02*
X26760000Y-23024000D01*
X26760000Y-20614000D02*
X26760000Y-20944000D01*
%TO.C,U1*%
X17509000Y-42430000D02*
X37949000Y-42430000D01*
X37949000Y-42430000D02*
X37949000Y-37130000D01*
X17509000Y-40780000D02*
X17509000Y-42430000D01*
X17509000Y-37130000D02*
X17509000Y-38780000D01*
X37949000Y-37130000D02*
X17509000Y-37130000D01*
X17509000Y-40780000D02*
G75*
G03*
X17509000Y-38780000I0J1000000D01*
G01*
%TO.C,SW2*%
X42028000Y-14672000D02*
X40698000Y-14672000D01*
X42028000Y-13342000D02*
X42028000Y-14672000D01*
X42028000Y-12072000D02*
X42028000Y-9472000D01*
X42028000Y-12072000D02*
X39368000Y-12072000D01*
X42028000Y-9472000D02*
X39368000Y-9472000D01*
X39368000Y-12072000D02*
X39368000Y-9472000D01*
%TO.C,J6*%
X42984000Y-38234000D02*
X42984000Y-22994000D01*
X49334000Y-38234000D02*
X49334000Y-22994000D01*
X50604000Y-38234000D02*
X42984000Y-38234000D01*
X50604000Y-38234000D02*
X50604000Y-22994000D01*
X50604000Y-22994000D02*
X42984000Y-22994000D01*
%TO.C,J11*%
X12504000Y-53474000D02*
X12504000Y-68714000D01*
X6154000Y-53474000D02*
X6154000Y-68714000D01*
X4884000Y-53474000D02*
X12504000Y-53474000D01*
X4884000Y-53474000D02*
X4884000Y-68714000D01*
X4884000Y-68714000D02*
X12504000Y-68714000D01*
%TO.C,C3*%
X16214000Y-9490001D02*
X15969000Y-9490001D01*
X16214000Y-9490001D02*
X16214000Y-13130001D01*
X14119000Y-9490001D02*
X13874000Y-9490001D01*
X13874000Y-9490001D02*
X13874000Y-13130001D01*
X16214000Y-13130001D02*
X15969000Y-13130001D01*
X14119000Y-13130001D02*
X13874000Y-13130001D01*
%TO.C,J5*%
X42984000Y-53474000D02*
X42984000Y-38234000D01*
X49334000Y-53474000D02*
X49334000Y-38234000D01*
X50604000Y-53474000D02*
X42984000Y-53474000D01*
X50604000Y-53474000D02*
X50604000Y-38234000D01*
X50604000Y-38234000D02*
X42984000Y-38234000D01*
%TO.C,SW3*%
X16394000Y-103359000D02*
X15064000Y-103359000D01*
X16394000Y-102029000D02*
X16394000Y-103359000D01*
X16394000Y-100759000D02*
X16394000Y-98159000D01*
X16394000Y-100759000D02*
X13734000Y-100759000D01*
X16394000Y-98159000D02*
X13734000Y-98159000D01*
X13734000Y-100759000D02*
X13734000Y-98159000D01*
D10*
%TO.C,J23*%
X30696753Y-1600114D02*
X24496753Y-1600114D01*
X24496753Y-1600114D02*
X24496753Y-5200114D01*
X33796753Y-5200114D02*
X33796753Y-12950114D01*
X30696753Y-5200114D02*
X30696753Y-1600114D01*
X21996753Y-5200114D02*
X33796753Y-5200114D01*
X21996753Y-8750114D02*
X21996753Y-5200114D01*
D14*
X20946753Y-10500114D02*
X20946753Y-11500114D01*
X21496753Y-11000114D02*
X20946753Y-10500114D01*
X20946753Y-11500114D02*
X21496753Y-11000114D01*
D10*
X21996753Y-17000114D02*
X21996753Y-13250114D01*
X33796753Y-17300114D02*
X33796753Y-19700114D01*
X33796753Y-19700114D02*
X21996753Y-19700114D01*
X21996753Y-19700114D02*
X21996753Y-19600114D01*
D14*
%TO.C,J12*%
X12504000Y-68714000D02*
X12504000Y-83954000D01*
X6154000Y-68714000D02*
X6154000Y-83954000D01*
X4884000Y-68714000D02*
X12504000Y-68714000D01*
X4884000Y-68714000D02*
X4884000Y-83954000D01*
X4884000Y-83954000D02*
X12504000Y-83954000D01*
%TD*%
M02*
