%TF.GenerationSoftware,KiCad,Pcbnew,7.0.6*%
%TF.CreationDate,2024-08-21T19:33:41+02:00*%
%TF.ProjectId,Koracni ksilofon,4b6f7261-636e-4692-906b-73696c6f666f,rev?*%
%TF.SameCoordinates,PXca73a30PY16e2660*%
%TF.FileFunction,Other,User*%
%FSLAX46Y46*%
G04 Gerber Fmt 4.6, Leading zero omitted, Abs format (unit mm)*
G04 Created by KiCad (PCBNEW 7.0.6) date 2024-08-21 19:33:41*
%MOMM*%
%LPD*%
G01*
G04 APERTURE LIST*
%ADD10C,0.050000*%
G04 APERTURE END LIST*
D10*
%TO.C,SW1*%
X42498000Y-26064000D02*
X42498000Y-19914000D01*
X42498000Y-19914000D02*
X38898000Y-19914000D01*
X38898000Y-26064000D02*
X42498000Y-26064000D01*
X38898000Y-19914000D02*
X38898000Y-26064000D01*
%TO.C,R5*%
X27964000Y-31400000D02*
X27964000Y-34400000D01*
X27964000Y-34400000D02*
X37684000Y-34400000D01*
X37684000Y-31400000D02*
X27964000Y-31400000D01*
X37684000Y-34400000D02*
X37684000Y-31400000D01*
%TO.C,J9*%
X12694000Y-22814000D02*
X4694000Y-22814000D01*
X12694000Y-22814000D02*
X12694000Y-38414000D01*
X4694000Y-38414000D02*
X4694000Y-22814000D01*
X4694000Y-38414000D02*
X12694000Y-38414000D01*
%TO.C,J20*%
X38669000Y-36867000D02*
X42219000Y-36867000D01*
X38669000Y-83617000D02*
X38669000Y-36867000D01*
X42219000Y-36867000D02*
X42219000Y-83617000D01*
X42219000Y-83617000D02*
X38669000Y-83617000D01*
%TO.C,J19*%
X13269000Y-36867000D02*
X16819000Y-36867000D01*
X13269000Y-83617000D02*
X13269000Y-36867000D01*
X16819000Y-36867000D02*
X16819000Y-83617000D01*
X16819000Y-83617000D02*
X13269000Y-83617000D01*
%TO.C,JP4*%
X21231000Y-25554000D02*
X21231000Y-28054000D01*
X21231000Y-25554000D02*
X24531000Y-25554000D01*
X24531000Y-28054000D02*
X21231000Y-28054000D01*
X24531000Y-28054000D02*
X24531000Y-25554000D01*
%TO.C,R6*%
X27270000Y-34400000D02*
X27270000Y-31400000D01*
X27270000Y-31400000D02*
X17550000Y-31400000D01*
X17550000Y-34400000D02*
X27270000Y-34400000D01*
X17550000Y-31400000D02*
X17550000Y-34400000D01*
%TO.C,H6*%
X43900000Y-103200000D02*
G75*
G03*
X43900000Y-103200000I-3450000J0D01*
G01*
%TO.C,J16*%
X20530000Y-30367000D02*
X16980000Y-30367000D01*
X20530000Y-9017000D02*
X20530000Y-30367000D01*
X16980000Y-30367000D02*
X16980000Y-9017000D01*
X16980000Y-9017000D02*
X20530000Y-9017000D01*
%TO.C,U4*%
X17289000Y-75424000D02*
X38139000Y-75424000D01*
X38139000Y-75424000D02*
X38139000Y-65624000D01*
X17289000Y-65624000D02*
X17289000Y-75424000D01*
X38139000Y-65624000D02*
X17289000Y-65624000D01*
%TO.C,U6*%
X17289000Y-95744000D02*
X38139000Y-95744000D01*
X38139000Y-95744000D02*
X38139000Y-85944000D01*
X17289000Y-85944000D02*
X17289000Y-95744000D01*
X38139000Y-85944000D02*
X17289000Y-85944000D01*
%TO.C,J4*%
X42794000Y-68893999D02*
X50794000Y-68893999D01*
X42794000Y-68893999D02*
X42794000Y-53293999D01*
X50794000Y-53293999D02*
X50794000Y-68893999D01*
X50794000Y-53293999D02*
X42794000Y-53293999D01*
%TO.C,J26*%
X19935003Y-106531453D02*
X19935003Y-114531453D01*
X19935003Y-106531453D02*
X35535003Y-106531453D01*
X35535003Y-114531453D02*
X19935003Y-114531453D01*
X35535003Y-114531453D02*
X35535003Y-106531453D01*
%TO.C,U3*%
X17289000Y-65264000D02*
X38139000Y-65264000D01*
X38139000Y-65264000D02*
X38139000Y-55464000D01*
X17289000Y-55464000D02*
X17289000Y-65264000D01*
X38139000Y-55464000D02*
X17289000Y-55464000D01*
%TO.C,JP3*%
X24605001Y-22974000D02*
X24605001Y-20474000D01*
X24605001Y-22974000D02*
X21305001Y-22974000D01*
X21305001Y-20474000D02*
X24605001Y-20474000D01*
X21305001Y-20474000D02*
X21305001Y-22974000D01*
%TO.C,U5*%
X17289000Y-85584000D02*
X38139000Y-85584000D01*
X38139000Y-85584000D02*
X38139000Y-75784000D01*
X17289000Y-75784000D02*
X17289000Y-85584000D01*
X38139000Y-75784000D02*
X17289000Y-75784000D01*
%TO.C,J2*%
X42794000Y-99374000D02*
X50794000Y-99374000D01*
X42794000Y-99374000D02*
X42794000Y-83774000D01*
X50794000Y-83774000D02*
X50794000Y-99374000D01*
X50794000Y-83774000D02*
X42794000Y-83774000D01*
%TO.C,C1*%
X39398000Y-19726000D02*
X41998000Y-19726000D01*
X41998000Y-19726000D02*
X41998000Y-15126000D01*
X39398000Y-15126000D02*
X39398000Y-19726000D01*
X41998000Y-15126000D02*
X39398000Y-15126000D01*
%TO.C,H8*%
X19750000Y-110000000D02*
G75*
G03*
X19750000Y-110000000I-3450000J0D01*
G01*
%TO.C,J3*%
X42794000Y-84134000D02*
X50794000Y-84134000D01*
X42794000Y-84134000D02*
X42794000Y-68534000D01*
X50794000Y-68534000D02*
X50794000Y-84134000D01*
X50794000Y-68534000D02*
X42794000Y-68534000D01*
%TO.C,C4*%
X41900000Y-110000000D02*
G75*
G03*
X41900000Y-110000000I-2750000J0D01*
G01*
%TO.C,U7*%
X17289000Y-105904000D02*
X38139000Y-105904000D01*
X38139000Y-105904000D02*
X38139000Y-96104000D01*
X17289000Y-96104000D02*
X17289000Y-105904000D01*
X38139000Y-96104000D02*
X17289000Y-96104000D01*
%TO.C,U2*%
X17289000Y-55104000D02*
X38139000Y-55104000D01*
X38139000Y-55104000D02*
X38139000Y-45304000D01*
X17289000Y-45304000D02*
X17289000Y-55104000D01*
X38139000Y-45304000D02*
X17289000Y-45304000D01*
%TO.C,C2*%
X39144000Y-30902000D02*
X41744000Y-30902000D01*
X41744000Y-30902000D02*
X41744000Y-26302000D01*
X39144000Y-26302000D02*
X39144000Y-30902000D01*
X41744000Y-26302000D02*
X39144000Y-26302000D01*
%TO.C,J13*%
X12694000Y-83774001D02*
X4694000Y-83774001D01*
X12694000Y-83774001D02*
X12694000Y-99374001D01*
X4694000Y-99374001D02*
X4694000Y-83774001D01*
X4694000Y-99374001D02*
X12694000Y-99374001D01*
%TO.C,J21*%
X13314000Y-90779000D02*
X13314000Y-96929000D01*
X13314000Y-96929000D02*
X16914000Y-96929000D01*
X16914000Y-90779000D02*
X13314000Y-90779000D01*
X16914000Y-96929000D02*
X16914000Y-90779000D01*
%TO.C,R1*%
X34890000Y-27040000D02*
X34890000Y-24040000D01*
X34890000Y-24040000D02*
X25170000Y-24040000D01*
X25170000Y-27040000D02*
X34890000Y-27040000D01*
X25170000Y-24040000D02*
X25170000Y-27040000D01*
%TO.C,J22*%
X42264000Y-100379000D02*
X42264000Y-94229000D01*
X42264000Y-94229000D02*
X38664000Y-94229000D01*
X38664000Y-100379000D02*
X42264000Y-100379000D01*
X38664000Y-94229000D02*
X38664000Y-100379000D01*
%TO.C,J7*%
X42794000Y-23173999D02*
X50794000Y-23173999D01*
X42794000Y-23173999D02*
X42794000Y-7573999D01*
X50794000Y-7573999D02*
X50794000Y-23173999D01*
X50794000Y-7573999D02*
X42794000Y-7573999D01*
%TO.C,J14*%
X12694000Y-99014000D02*
X4694000Y-99014000D01*
X12694000Y-99014000D02*
X12694000Y-114614000D01*
X4694000Y-114614000D02*
X4694000Y-99014000D01*
X4694000Y-114614000D02*
X12694000Y-114614000D01*
%TO.C,J8*%
X12694000Y-7574000D02*
X4694000Y-7574000D01*
X12694000Y-7574000D02*
X12694000Y-23174000D01*
X4694000Y-23174000D02*
X4694000Y-7574000D01*
X4694000Y-23174000D02*
X12694000Y-23174000D01*
%TO.C,J15*%
X38530000Y-30367000D02*
X34980000Y-30367000D01*
X38530000Y-9017000D02*
X38530000Y-30367000D01*
X34980000Y-30367000D02*
X34980000Y-9017000D01*
X34980000Y-9017000D02*
X38530000Y-9017000D01*
%TO.C,J17*%
X16844000Y-21238000D02*
X16844000Y-15088000D01*
X16844000Y-15088000D02*
X13244000Y-15088000D01*
X13244000Y-21238000D02*
X16844000Y-21238000D01*
X13244000Y-15088000D02*
X13244000Y-21238000D01*
%TO.C,J1*%
X42794000Y-114614001D02*
X50794000Y-114614001D01*
X42794000Y-114614001D02*
X42794000Y-99014001D01*
X50794000Y-99014001D02*
X50794000Y-114614001D01*
X50794000Y-99014001D02*
X42794000Y-99014001D01*
%TO.C,JP1*%
X21230999Y-28094000D02*
X21230999Y-30594000D01*
X21230999Y-28094000D02*
X24530999Y-28094000D01*
X24530999Y-30594000D02*
X21230999Y-30594000D01*
X24530999Y-30594000D02*
X24530999Y-28094000D01*
%TO.C,J10*%
X12694000Y-38054001D02*
X4694000Y-38054001D01*
X12694000Y-38054001D02*
X12694000Y-53654001D01*
X4694000Y-53654001D02*
X4694000Y-38054001D01*
X4694000Y-53654001D02*
X12694000Y-53654001D01*
%TO.C,J18*%
X13244000Y-22718000D02*
X13244000Y-28868000D01*
X13244000Y-28868000D02*
X16844000Y-28868000D01*
X16844000Y-22718000D02*
X13244000Y-22718000D01*
X16844000Y-28868000D02*
X16844000Y-22718000D01*
%TO.C,JP2*%
X24568000Y-25514000D02*
X24568000Y-23014000D01*
X24568000Y-25514000D02*
X21268000Y-25514000D01*
X21268000Y-23014000D02*
X24568000Y-23014000D01*
X21268000Y-23014000D02*
X21268000Y-25514000D01*
%TO.C,R3*%
X34884000Y-30504000D02*
X34884000Y-27504000D01*
X34884000Y-27504000D02*
X25164000Y-27504000D01*
X25164000Y-30504000D02*
X34884000Y-30504000D01*
X25164000Y-27504000D02*
X25164000Y-30504000D01*
%TO.C,H5*%
X42370000Y-4960000D02*
G75*
G03*
X42370000Y-4960000I-3450000J0D01*
G01*
%TO.C,R2*%
X34890000Y-23484000D02*
X34890000Y-20484000D01*
X34890000Y-20484000D02*
X25170000Y-20484000D01*
X25170000Y-23484000D02*
X34890000Y-23484000D01*
X25170000Y-20484000D02*
X25170000Y-23484000D01*
%TO.C,U1*%
X17289000Y-44690000D02*
X38139000Y-44690000D01*
X38139000Y-44690000D02*
X38139000Y-34890000D01*
X17289000Y-34890000D02*
X17289000Y-44690000D01*
X38139000Y-34890000D02*
X17289000Y-34890000D01*
%TO.C,SW2*%
X42498000Y-15142000D02*
X42498000Y-8992000D01*
X42498000Y-8992000D02*
X38898000Y-8992000D01*
X38898000Y-15142000D02*
X42498000Y-15142000D01*
X38898000Y-8992000D02*
X38898000Y-15142000D01*
%TO.C,J6*%
X42794000Y-38414000D02*
X50794000Y-38414000D01*
X42794000Y-38414000D02*
X42794000Y-22814000D01*
X50794000Y-22814000D02*
X50794000Y-38414000D01*
X50794000Y-22814000D02*
X42794000Y-22814000D01*
%TO.C,J11*%
X12694000Y-53294000D02*
X4694000Y-53294000D01*
X12694000Y-53294000D02*
X12694000Y-68894000D01*
X4694000Y-68894000D02*
X4694000Y-53294000D01*
X4694000Y-68894000D02*
X12694000Y-68894000D01*
%TO.C,C3*%
X16344000Y-9010001D02*
X13744000Y-9010001D01*
X13744000Y-9010001D02*
X13744000Y-13610001D01*
X16344000Y-13610001D02*
X16344000Y-9010001D01*
X13744000Y-13610001D02*
X16344000Y-13610001D01*
%TO.C,J5*%
X42794000Y-53654000D02*
X50794000Y-53654000D01*
X42794000Y-53654000D02*
X42794000Y-38054000D01*
X50794000Y-38054000D02*
X50794000Y-53654000D01*
X50794000Y-38054000D02*
X42794000Y-38054000D01*
%TO.C,SW3*%
X16864000Y-103829000D02*
X16864000Y-97679000D01*
X16864000Y-97679000D02*
X13264000Y-97679000D01*
X13264000Y-103829000D02*
X16864000Y-103829000D01*
X13264000Y-97679000D02*
X13264000Y-103829000D01*
%TO.C,J23*%
X34396753Y-1200114D02*
X20996753Y-1200114D01*
X20996753Y-1200114D02*
X20996753Y-20100114D01*
X34396753Y-20100114D02*
X34396753Y-1200114D01*
X20996753Y-20100114D02*
X34396753Y-20100114D01*
%TO.C,H7*%
X20018000Y-4960000D02*
G75*
G03*
X20018000Y-4960000I-3450000J0D01*
G01*
%TO.C,J12*%
X12694000Y-68534000D02*
X4694000Y-68534000D01*
X12694000Y-68534000D02*
X12694000Y-84134000D01*
X4694000Y-84134000D02*
X4694000Y-68534000D01*
X4694000Y-84134000D02*
X12694000Y-84134000D01*
%TD*%
M02*
