%TF.GenerationSoftware,KiCad,Pcbnew,7.0.6*%
%TF.CreationDate,2024-08-21T19:33:41+02:00*%
%TF.ProjectId,Koracni ksilofon,4b6f7261-636e-4692-906b-73696c6f666f,rev?*%
%TF.SameCoordinates,PXca73a30PY16e2660*%
%TF.FileFunction,Soldermask,Bot*%
%TF.FilePolarity,Negative*%
%FSLAX46Y46*%
G04 Gerber Fmt 4.6, Leading zero omitted, Abs format (unit mm)*
G04 Created by KiCad (PCBNEW 7.0.6) date 2024-08-21 19:33:41*
%MOMM*%
%LPD*%
G01*
G04 APERTURE LIST*
%ADD10R,1.700000X1.700000*%
%ADD11O,1.700000X1.700000*%
%ADD12C,1.600000*%
%ADD13O,1.600000X1.600000*%
%ADD14R,3.000000X3.000000*%
%ADD15C,3.000000*%
%ADD16C,3.200000*%
%ADD17R,1.600000X1.600000*%
%ADD18O,4.000000X2.200000*%
%ADD19O,2.200000X4.000000*%
%ADD20R,2.200000X4.000000*%
G04 APERTURE END LIST*
D10*
%TO.C,SW1*%
X40698000Y-24264000D03*
D11*
X40698000Y-21724000D03*
%TD*%
D12*
%TO.C,R5*%
X29014000Y-32900000D03*
D13*
X36634000Y-32900000D03*
%TD*%
D14*
%TO.C,J9*%
X8694000Y-25534000D03*
D15*
X8694000Y-30614000D03*
X8694000Y-35694000D03*
%TD*%
D10*
%TO.C,J20*%
X40469000Y-38667000D03*
D11*
X40469000Y-41207000D03*
X40469000Y-43747000D03*
X40469000Y-46287000D03*
X40469000Y-48827000D03*
X40469000Y-51367000D03*
X40469000Y-53907000D03*
X40469000Y-56447000D03*
X40469000Y-58987000D03*
X40469000Y-61527000D03*
X40469000Y-64067000D03*
X40469000Y-66607000D03*
X40469000Y-69147000D03*
X40469000Y-71687000D03*
X40469000Y-74227000D03*
X40469000Y-76767000D03*
X40469000Y-79307000D03*
X40469000Y-81847000D03*
%TD*%
D10*
%TO.C,J19*%
X15069000Y-38667000D03*
D11*
X15069000Y-41207000D03*
X15069000Y-43747000D03*
X15069000Y-46287000D03*
X15069000Y-48827000D03*
X15069000Y-51367000D03*
X15069000Y-53907000D03*
X15069000Y-56447000D03*
X15069000Y-58987000D03*
X15069000Y-61527000D03*
X15069000Y-64067000D03*
X15069000Y-66607000D03*
X15069000Y-69147000D03*
X15069000Y-71687000D03*
X15069000Y-74227000D03*
X15069000Y-76767000D03*
X15069000Y-79307000D03*
X15069000Y-81847000D03*
%TD*%
D12*
%TO.C,R6*%
X26220000Y-32900000D03*
D13*
X18600000Y-32900000D03*
%TD*%
D16*
%TO.C,H6*%
X40450000Y-103200000D03*
%TD*%
D10*
%TO.C,J16*%
X18730000Y-28567000D03*
D11*
X18730000Y-26027000D03*
X18730000Y-23487000D03*
X18730000Y-20947000D03*
X18730000Y-18407000D03*
X18730000Y-15867000D03*
X18730000Y-13327000D03*
X18730000Y-10787000D03*
%TD*%
D17*
%TO.C,U4*%
X18839000Y-74324000D03*
D13*
X21379000Y-74324000D03*
X23919000Y-74324000D03*
X26459000Y-74324000D03*
X28999000Y-74324000D03*
X31539000Y-74324000D03*
X34079000Y-74324000D03*
X36619000Y-74324000D03*
X36619000Y-66704000D03*
X34079000Y-66704000D03*
X31539000Y-66704000D03*
X28999000Y-66704000D03*
X26459000Y-66704000D03*
X23919000Y-66704000D03*
X21379000Y-66704000D03*
X18839000Y-66704000D03*
%TD*%
D17*
%TO.C,U6*%
X18839000Y-94644000D03*
D13*
X21379000Y-94644000D03*
X23919000Y-94644000D03*
X26459000Y-94644000D03*
X28999000Y-94644000D03*
X31539000Y-94644000D03*
X34079000Y-94644000D03*
X36619000Y-94644000D03*
X36619000Y-87024000D03*
X34079000Y-87024000D03*
X31539000Y-87024000D03*
X28999000Y-87024000D03*
X26459000Y-87024000D03*
X23919000Y-87024000D03*
X21379000Y-87024000D03*
X18839000Y-87024000D03*
%TD*%
D14*
%TO.C,J4*%
X46794000Y-66173999D03*
D15*
X46794000Y-61093999D03*
X46794000Y-56013999D03*
%TD*%
D14*
%TO.C,J26*%
X22655003Y-110531453D03*
D15*
X27735003Y-110531453D03*
X32815003Y-110531453D03*
%TD*%
D17*
%TO.C,U3*%
X18839000Y-64164000D03*
D13*
X21379000Y-64164000D03*
X23919000Y-64164000D03*
X26459000Y-64164000D03*
X28999000Y-64164000D03*
X31539000Y-64164000D03*
X34079000Y-64164000D03*
X36619000Y-64164000D03*
X36619000Y-56544000D03*
X34079000Y-56544000D03*
X31539000Y-56544000D03*
X28999000Y-56544000D03*
X26459000Y-56544000D03*
X23919000Y-56544000D03*
X21379000Y-56544000D03*
X18839000Y-56544000D03*
%TD*%
D17*
%TO.C,U5*%
X18839000Y-84484000D03*
D13*
X21379000Y-84484000D03*
X23919000Y-84484000D03*
X26459000Y-84484000D03*
X28999000Y-84484000D03*
X31539000Y-84484000D03*
X34079000Y-84484000D03*
X36619000Y-84484000D03*
X36619000Y-76864000D03*
X34079000Y-76864000D03*
X31539000Y-76864000D03*
X28999000Y-76864000D03*
X26459000Y-76864000D03*
X23919000Y-76864000D03*
X21379000Y-76864000D03*
X18839000Y-76864000D03*
%TD*%
D14*
%TO.C,J2*%
X46794000Y-96654000D03*
D15*
X46794000Y-91574000D03*
X46794000Y-86494000D03*
%TD*%
D12*
%TO.C,C1*%
X40698000Y-18676000D03*
X40698000Y-16176000D03*
%TD*%
D16*
%TO.C,H8*%
X16300000Y-110000000D03*
%TD*%
D14*
%TO.C,J3*%
X46794000Y-81414000D03*
D15*
X46794000Y-76334000D03*
X46794000Y-71254000D03*
%TD*%
D16*
%TO.C,H4*%
X39769000Y-33757000D03*
%TD*%
D17*
%TO.C,C4*%
X39150000Y-111250000D03*
D12*
X39150000Y-108750000D03*
%TD*%
D17*
%TO.C,U7*%
X18839000Y-104804000D03*
D13*
X21379000Y-104804000D03*
X23919000Y-104804000D03*
X26459000Y-104804000D03*
X28999000Y-104804000D03*
X31539000Y-104804000D03*
X34079000Y-104804000D03*
X36619000Y-104804000D03*
X36619000Y-97184000D03*
X34079000Y-97184000D03*
X31539000Y-97184000D03*
X28999000Y-97184000D03*
X26459000Y-97184000D03*
X23919000Y-97184000D03*
X21379000Y-97184000D03*
X18839000Y-97184000D03*
%TD*%
D17*
%TO.C,U2*%
X18839000Y-54004000D03*
D13*
X21379000Y-54004000D03*
X23919000Y-54004000D03*
X26459000Y-54004000D03*
X28999000Y-54004000D03*
X31539000Y-54004000D03*
X34079000Y-54004000D03*
X36619000Y-54004000D03*
X36619000Y-46384000D03*
X34079000Y-46384000D03*
X31539000Y-46384000D03*
X28999000Y-46384000D03*
X26459000Y-46384000D03*
X23919000Y-46384000D03*
X21379000Y-46384000D03*
X18839000Y-46384000D03*
%TD*%
D12*
%TO.C,C2*%
X40444000Y-29852000D03*
X40444000Y-27352000D03*
%TD*%
D14*
%TO.C,J13*%
X8694000Y-86494001D03*
D15*
X8694000Y-91574001D03*
X8694000Y-96654001D03*
%TD*%
D10*
%TO.C,J21*%
X15114000Y-92579000D03*
D11*
X15114000Y-95119000D03*
%TD*%
D12*
%TO.C,R1*%
X33840000Y-25540000D03*
D13*
X26220000Y-25540000D03*
%TD*%
D16*
%TO.C,H2*%
X15675000Y-86750000D03*
%TD*%
D10*
%TO.C,J22*%
X40464000Y-98579000D03*
D11*
X40464000Y-96039000D03*
%TD*%
D14*
%TO.C,J7*%
X46794000Y-20453999D03*
D15*
X46794000Y-15373999D03*
X46794000Y-10293999D03*
%TD*%
D14*
%TO.C,J14*%
X8694000Y-101734000D03*
D15*
X8694000Y-106814000D03*
X8694000Y-111894000D03*
%TD*%
D14*
%TO.C,J8*%
X8694000Y-10294000D03*
D15*
X8694000Y-15374000D03*
X8694000Y-20454000D03*
%TD*%
D10*
%TO.C,J15*%
X36730000Y-28567000D03*
D11*
X36730000Y-26027000D03*
X36730000Y-23487000D03*
X36730000Y-20947000D03*
X36730000Y-18407000D03*
X36730000Y-15867000D03*
X36730000Y-13327000D03*
X36730000Y-10787000D03*
%TD*%
D10*
%TO.C,J17*%
X15044000Y-19438000D03*
D11*
X15044000Y-16898000D03*
%TD*%
D16*
%TO.C,H3*%
X15769000Y-33757000D03*
%TD*%
D14*
%TO.C,J1*%
X46794000Y-111894001D03*
D15*
X46794000Y-106814001D03*
X46794000Y-101734001D03*
%TD*%
D14*
%TO.C,J10*%
X8694000Y-40774001D03*
D15*
X8694000Y-45854001D03*
X8694000Y-50934001D03*
%TD*%
D10*
%TO.C,J18*%
X15044000Y-24518000D03*
D11*
X15044000Y-27058000D03*
%TD*%
D12*
%TO.C,R3*%
X33834000Y-29004000D03*
D13*
X26214000Y-29004000D03*
%TD*%
D16*
%TO.C,H5*%
X38920000Y-4960000D03*
%TD*%
D12*
%TO.C,R2*%
X33840000Y-21984000D03*
D13*
X26220000Y-21984000D03*
%TD*%
D17*
%TO.C,U1*%
X18839000Y-43590000D03*
D13*
X21379000Y-43590000D03*
X23919000Y-43590000D03*
X26459000Y-43590000D03*
X28999000Y-43590000D03*
X31539000Y-43590000D03*
X34079000Y-43590000D03*
X36619000Y-43590000D03*
X36619000Y-35970000D03*
X34079000Y-35970000D03*
X31539000Y-35970000D03*
X28999000Y-35970000D03*
X26459000Y-35970000D03*
X23919000Y-35970000D03*
X21379000Y-35970000D03*
X18839000Y-35970000D03*
%TD*%
D10*
%TO.C,SW2*%
X40698000Y-13342000D03*
D11*
X40698000Y-10802000D03*
%TD*%
D14*
%TO.C,J6*%
X46794000Y-35694000D03*
D15*
X46794000Y-30614000D03*
X46794000Y-25534000D03*
%TD*%
D14*
%TO.C,J11*%
X8694000Y-56014000D03*
D15*
X8694000Y-61094000D03*
X8694000Y-66174000D03*
%TD*%
D12*
%TO.C,C3*%
X15044000Y-10060001D03*
X15044000Y-12560001D03*
%TD*%
D14*
%TO.C,J5*%
X46794000Y-50934000D03*
D15*
X46794000Y-45854000D03*
X46794000Y-40774000D03*
%TD*%
D10*
%TO.C,SW3*%
X15064000Y-102029000D03*
D11*
X15064000Y-99489000D03*
%TD*%
D16*
%TO.C,H1*%
X39769000Y-86757000D03*
%TD*%
D18*
%TO.C,J23*%
X27596753Y-7100114D03*
D19*
X32796753Y-15100114D03*
X30096753Y-13900114D03*
D20*
X22996753Y-11000114D03*
D18*
X23496753Y-18300114D03*
%TD*%
D16*
%TO.C,H7*%
X16568000Y-4960000D03*
%TD*%
D14*
%TO.C,J12*%
X8694000Y-71254000D03*
D15*
X8694000Y-76334000D03*
X8694000Y-81414000D03*
%TD*%
M02*
